G04 Layer_Color=32896*
%FSLAX25Y25*%
%MOIN*%
G70*
G01*
G75*
%ADD10C,0.01000*%
%ADD38C,0.00591*%
D10*
X105905Y135676D02*
X109904D01*
X105905Y146306D02*
X109904D01*
X107905Y148305D02*
Y144307D01*
D38*
X352888Y151311D02*
X353544Y151967D01*
X354856D01*
X355512Y151311D01*
Y148688D01*
X354856Y148031D01*
X353544D01*
X352888Y148688D01*
Y149999D01*
X354200D01*
X351576Y148031D02*
Y151967D01*
X348952Y148031D01*
Y151967D01*
X347640D02*
Y148031D01*
X345672D01*
X345017Y148688D01*
Y151311D01*
X345672Y151967D01*
X347640D01*
X356299Y159842D02*
X353675D01*
X354987Y161154D02*
Y158530D01*
X349740Y161810D02*
X352363D01*
Y159842D01*
X351052Y160498D01*
X350396D01*
X349740Y159842D01*
Y158530D01*
X350396Y157874D01*
X351708D01*
X352363Y158530D01*
X348428Y161810D02*
Y159186D01*
X347116Y157874D01*
X345804Y159186D01*
Y161810D01*
X356693Y167323D02*
Y171259D01*
X354725D01*
X354069Y170603D01*
Y169291D01*
X354725Y168635D01*
X356693D01*
X355381D02*
X354069Y167323D01*
X350133Y170603D02*
X350789Y171259D01*
X352101D01*
X352757Y170603D01*
Y169947D01*
X352101Y169291D01*
X350789D01*
X350133Y168635D01*
Y167979D01*
X350789Y167323D01*
X352101D01*
X352757Y167979D01*
X348821Y171259D02*
X346198D01*
X347510D01*
Y167323D01*
X357087Y181495D02*
Y177559D01*
X355119D01*
X354463Y178215D01*
Y180839D01*
X355119Y181495D01*
X357087D01*
X353151Y177559D02*
Y181495D01*
X351183D01*
X350527Y180839D01*
Y179527D01*
X351183Y178871D01*
X353151D01*
X351839D02*
X350527Y177559D01*
X349215Y181495D02*
Y177559D01*
X347247D01*
X346591Y178215D01*
Y180839D01*
X347247Y181495D01*
X349215D01*
X345279D02*
Y180839D01*
X343968Y179527D01*
X342656Y180839D01*
Y181495D01*
X343968Y179527D02*
Y177559D01*
X354463Y191469D02*
X355119Y192125D01*
X356431D01*
X357087Y191469D01*
Y188845D01*
X356431Y188189D01*
X355119D01*
X354463Y188845D01*
X350527Y191469D02*
X351183Y192125D01*
X352495D01*
X353151Y191469D01*
Y190813D01*
X352495Y190157D01*
X351183D01*
X350527Y189501D01*
Y188845D01*
X351183Y188189D01*
X352495D01*
X353151Y188845D01*
X349215Y187533D02*
X346591D01*
X345279Y188189D02*
Y192125D01*
X343312D01*
X342656Y191469D01*
Y190157D01*
X343312Y189501D01*
X345279D01*
X357087Y201573D02*
Y198294D01*
X356431Y197638D01*
X355119D01*
X354463Y198294D01*
Y201573D01*
X353151Y197638D02*
X350527Y200262D01*
X349215Y201573D02*
Y197638D01*
X347247D01*
X346591Y198294D01*
Y200918D01*
X347247Y201573D01*
X349215D01*
X357087Y207480D02*
Y211416D01*
X355775Y210104D01*
X354463Y211416D01*
Y207480D01*
X351183Y211416D02*
X352495D01*
X353151Y210760D01*
Y208136D01*
X352495Y207480D01*
X351183D01*
X350527Y208136D01*
Y210760D01*
X351183Y211416D01*
X346591Y210760D02*
X347247Y211416D01*
X348559D01*
X349215Y210760D01*
Y210104D01*
X348559Y209448D01*
X347247D01*
X346591Y208792D01*
Y208136D01*
X347247Y207480D01*
X348559D01*
X349215Y208136D01*
X345279Y211416D02*
X343968D01*
X344623D01*
Y207480D01*
X345279D01*
X343968D01*
X357087Y217323D02*
Y221259D01*
X355775Y219947D01*
X354463Y221259D01*
Y217323D01*
X353151Y221259D02*
X351839D01*
X352495D01*
Y217323D01*
X353151D01*
X351839D01*
X347247Y220603D02*
X347903Y221259D01*
X349215D01*
X349871Y220603D01*
Y219947D01*
X349215Y219291D01*
X347903D01*
X347247Y218635D01*
Y217979D01*
X347903Y217323D01*
X349215D01*
X349871Y217979D01*
X343968Y221259D02*
X345279D01*
X345935Y220603D01*
Y217979D01*
X345279Y217323D01*
X343968D01*
X343312Y217979D01*
Y220603D01*
X343968Y221259D01*
X354463Y230839D02*
X355119Y231495D01*
X356431D01*
X357087Y230839D01*
Y230183D01*
X356431Y229527D01*
X355119D01*
X354463Y228871D01*
Y228215D01*
X355119Y227559D01*
X356431D01*
X357087Y228215D01*
X350527Y230839D02*
X351183Y231495D01*
X352495D01*
X353151Y230839D01*
Y228215D01*
X352495Y227559D01*
X351183D01*
X350527Y228215D01*
X349215Y231495D02*
Y227559D01*
Y228871D01*
X346591Y231495D01*
X348559Y229527D01*
X346591Y227559D01*
X354463Y240681D02*
X355119Y241337D01*
X356431D01*
X357087Y240681D01*
Y238057D01*
X356431Y237402D01*
X355119D01*
X354463Y238057D01*
X350527Y240681D02*
X351183Y241337D01*
X352495D01*
X353151Y240681D01*
Y240025D01*
X352495Y239369D01*
X351183D01*
X350527Y238714D01*
Y238057D01*
X351183Y237402D01*
X352495D01*
X353151Y238057D01*
X129134Y250787D02*
X127822D01*
X128478D01*
Y254723D01*
X129134Y254067D01*
X125854Y252755D02*
X123230D01*
X120079Y250787D02*
X118767D01*
X119423D01*
Y254723D01*
X120079Y254067D01*
X116799Y252755D02*
X114175D01*
X115487Y254067D02*
Y251443D01*
X127297Y241339D02*
X129921D01*
X127297Y243962D01*
Y244618D01*
X127953Y245274D01*
X129265D01*
X129921Y244618D01*
X125986Y243306D02*
X123362D01*
X118242Y241339D02*
X120866D01*
X118242Y243962D01*
Y244618D01*
X118898Y245274D01*
X120210D01*
X120866Y244618D01*
X116930Y243306D02*
X114307D01*
X115619Y244618D02*
Y241995D01*
X129921Y234382D02*
X129265Y235038D01*
X127953D01*
X127297Y234382D01*
Y233726D01*
X127953Y233070D01*
X128609D01*
X127953D01*
X127297Y232414D01*
Y231758D01*
X127953Y231102D01*
X129265D01*
X129921Y231758D01*
X125986Y233070D02*
X123362D01*
X120866Y234776D02*
X120210Y235432D01*
X118898D01*
X118242Y234776D01*
Y234120D01*
X118898Y233464D01*
X119554D01*
X118898D01*
X118242Y232808D01*
Y232152D01*
X118898Y231496D01*
X120210D01*
X120866Y232152D01*
X116930Y233464D02*
X114307D01*
X115619Y234776D02*
Y232152D01*
X127953Y220866D02*
Y224802D01*
X129921Y222834D01*
X127297D01*
X125986D02*
X123362D01*
X118898Y220866D02*
Y224802D01*
X120866Y222834D01*
X118242D01*
X116930D02*
X114307D01*
X115619Y224146D02*
Y221522D01*
X123360Y184776D02*
X124016Y185432D01*
X125328D01*
X125984Y184776D01*
Y182152D01*
X125328Y181496D01*
X124016D01*
X123360Y182152D01*
Y183464D01*
X124672D01*
X122048Y181496D02*
Y185432D01*
X119425Y181496D01*
Y185432D01*
X118113D02*
Y181496D01*
X116145D01*
X115489Y182152D01*
Y184776D01*
X116145Y185432D01*
X118113D01*
X129921Y193306D02*
X127297D01*
X128609Y194618D02*
Y191995D01*
X125986Y194618D02*
X125330Y195274D01*
X124018D01*
X123362Y194618D01*
Y193962D01*
X124018Y193306D01*
X124674D01*
X124018D01*
X123362Y192650D01*
Y191995D01*
X124018Y191339D01*
X125330D01*
X125986Y191995D01*
X122050Y195274D02*
Y192650D01*
X120738Y191339D01*
X119426Y192650D01*
Y195274D01*
X118114Y191339D02*
Y193962D01*
X116802Y195274D01*
X115490Y193962D01*
Y191339D01*
Y193306D01*
X118114D01*
X128347Y205117D02*
Y202493D01*
X127034Y201181D01*
X125723Y202493D01*
Y205117D01*
X124411Y201181D02*
Y205117D01*
X122443D01*
X121787Y204461D01*
Y203149D01*
X122443Y202493D01*
X124411D01*
X123099D02*
X121787Y201181D01*
X117851Y205117D02*
X120475D01*
Y201181D01*
X117851D01*
X120475Y203149D02*
X119163D01*
X113915Y205117D02*
X116539D01*
Y203149D01*
X115227D01*
X116539D01*
Y201181D01*
X162598Y215353D02*
Y211417D01*
X160631D01*
X159975Y212073D01*
Y214697D01*
X160631Y215353D01*
X162598D01*
X158663Y211417D02*
Y215353D01*
X156695D01*
X156039Y214697D01*
Y213385D01*
X156695Y212729D01*
X158663D01*
X157351D02*
X156039Y211417D01*
X154727Y215353D02*
X153415D01*
X154071D01*
Y211417D01*
X154727D01*
X153415D01*
X151447Y215353D02*
Y212729D01*
X150135Y211417D01*
X148823Y212729D01*
Y215353D01*
X144888D02*
X147511D01*
Y211417D01*
X144888D01*
X147511Y213385D02*
X146200D01*
X143576Y211417D02*
Y215353D01*
X140952Y211417D01*
Y215353D01*
X133080Y214697D02*
X133736Y215353D01*
X135048D01*
X135704Y214697D01*
Y212073D01*
X135048Y211417D01*
X133736D01*
X133080Y212073D01*
Y213385D01*
X134392D01*
X131769Y211417D02*
Y215353D01*
X129801D01*
X129145Y214697D01*
Y213385D01*
X129801Y212729D01*
X131769D01*
X130457D02*
X129145Y211417D01*
X125865Y215353D02*
X127177D01*
X127833Y214697D01*
Y212073D01*
X127177Y211417D01*
X125865D01*
X125209Y212073D01*
Y214697D01*
X125865Y215353D01*
X123897D02*
Y212073D01*
X123241Y211417D01*
X121929D01*
X121273Y212073D01*
Y215353D01*
X119961Y211417D02*
Y215353D01*
X117337Y211417D01*
Y215353D01*
X116025D02*
Y211417D01*
X114058D01*
X113402Y212073D01*
Y214697D01*
X114058Y215353D01*
X116025D01*
M02*
