M48
;Layer_Color=9474304
;FILE_FORMAT=2:5
INCH,LZ
;TYPE=PLATED
T1F00S00C0.01575
T2F00S00C0.03000
T3F00S00C0.04331
T4F00S00C0.04724
T5F00S00C0.11811
%
T01
X0177165Y0153543
X0226772
Y0141339
X0233465Y0133858
X0238583Y0137008
X0242126Y0129921
X022441Y0123228
X0217323Y0129921
X0212992Y0126772
X0224803Y0109449
X024685Y0108661
X0263779Y0141339
Y0151181
X0272441Y015315
X028189Y014685
X0293701Y0127559
X0336221Y0151575
Y0165354
X0353543Y0162205
X0345669Y0194882
X0339665Y0188878
X0336221Y0192126
X0348425Y0204567
X0353543Y0203543
X0375197Y0194882
X0336221Y0219291
Y0243701
X0293701Y0243307
X028937Y0238583
X0293701Y0218504
X0285827Y0214567
X0263779Y0219291
X0251575Y0214961
X0226772Y0217323
X0234252Y0237795
X0216535
X0203543
X0203937Y0227953
X0202362Y0222441
X0197638Y0225984
Y0215748
X0192126Y0219685
X0187008Y0211811
X0186221Y0202362
X0180709Y0191339
X0179134Y0185039
X0187008
X0186221Y0171653
X0186614Y0162598
X0181496Y015748
X0171653Y0167323
X0165512Y018126
X0161417Y0185827
X0165354Y0205512
Y0216535
X016063Y0219685
X0165354Y023937
Y0252756
X0161024Y0255906
X0180315Y0254331
X0185039
X0188976Y0258268
X0195669Y0255118
X0198819Y026063
Y0249606
X0192913Y0244094
X0185827Y0237795
X0188583Y0273622
X0196457Y027874
X020315Y0275984
X02Y0285827
Y0296063
X0206299
X0205906Y03
X0209055Y0288583
X0196457Y0292913
X0192913Y0290158
X0187795Y0292913
Y0308268
X0165354Y0306693
Y0283858
Y0273228
X0226772Y0251181
X0253543Y025315
Y024685
X0272047Y0247638
X0272441Y0263386
X0267323Y0268898
X0257874Y0265748
X025689Y0277756
X0272047Y0277559
X0285039Y0283071
Y0291732
X0285433Y029685
X0282677Y0299213
X0282283Y0303937
X0285039Y0307087
X0283071Y0312205
X0255512Y0311417
X0257087Y0303937
X025689Y0293701
X0299606Y0289764
X0300394Y0285039
X0309291Y0293858
X0285039Y0270079
X0283465Y0187402
X0293701Y0190551
X0297638Y0173622
X0293701Y0164567
X0286614Y0156299
X0279921Y016063
X0269291Y0174016
X0253937Y0180709
X0233465Y0175591
X0238583Y0170079
X0226772Y0183858
X0204331Y0188976
X020315Y0174803
X0205512Y0204488
X0151969Y0209055
X0145276Y0215354
X0140551Y0219291
X0125591Y0208661
X011811Y0198031
X0119685Y018937
X0127165Y0184646
X0129134Y0174803
X0120472Y0171653
X0114173Y0179921
X0140157Y0185827
X0145276Y0181102
X0150787Y0243307
X0145276Y0250787
X0141437Y0261516
X0151969Y0277165
X0145276Y0283858
X014252Y028937
X0125197
X0125984Y0284252
X0120472Y0267323
X0118898Y022559
X0291339Y0325984
T02
X0370472Y0150394
Y0160394
Y0170394
Y0180394
Y0190394
Y0200394
Y0210394
Y0220394
Y0230394
Y0240394
T03
X0096457Y0136614
Y0146614
T04
X0093543Y0182992
Y0192992
Y0202992
Y0212992
Y0222992
Y0232992
Y0242992
Y0252992
X0103543
Y0242992
Y0232992
Y0222992
Y0212992
Y0202992
Y0192992
Y0182992
T05
X0096457Y0112598
X036811Y0114173
X0096063Y0320866
X036811
M30
