G04 Layer_Physical_Order=1*
G04 Layer_Color=255*
%FSLAX25Y25*%
%MOIN*%
G70*
G01*
G75*
%ADD10C,0.01000*%
%ADD11C,0.00787*%
%ADD12R,0.02362X0.02165*%
%ADD13R,0.03150X0.03150*%
%ADD14R,0.01575X0.03347*%
%ADD15O,0.05905X0.02362*%
%ADD16R,0.04331X0.02362*%
%ADD17R,0.03740X0.05512*%
%ADD18O,0.02362X0.05905*%
%ADD19R,0.03740X0.02559*%
%ADD20O,0.06496X0.01968*%
%ADD21O,0.05315X0.01968*%
%ADD22R,0.02165X0.02362*%
%ADD23R,0.02441X0.02598*%
%ADD24R,0.08268X0.22047*%
%ADD25R,0.02598X0.02441*%
%ADD26R,0.02362X0.04134*%
%ADD27R,0.05512X0.04724*%
%ADD28C,0.01968*%
%ADD29C,0.01575*%
%ADD30C,0.06299*%
%ADD31R,0.06000X0.06000*%
%ADD32C,0.06000*%
%ADD33C,0.02362*%
G36*
X272599Y259095D02*
Y255709D01*
X272768Y254858D01*
X273250Y254136D01*
X273972Y253654D01*
X274823Y253485D01*
X275674Y253654D01*
X276395Y254136D01*
X276877Y254858D01*
X277047Y255709D01*
Y255951D01*
X280315D01*
Y229642D01*
X280126D01*
Y227559D01*
X279126D01*
Y229642D01*
X274098D01*
Y229187D01*
X272161D01*
Y229839D01*
X271352D01*
Y232847D01*
X271395Y232876D01*
X271877Y233598D01*
X272047Y234449D01*
Y237992D01*
X271877Y238843D01*
X271395Y239565D01*
X270674Y240047D01*
X269823Y240216D01*
X268972Y240047D01*
X268250Y239565D01*
X267768Y238843D01*
X267599Y237992D01*
Y234449D01*
X267768Y233598D01*
X268250Y232876D01*
X268293Y232847D01*
Y229839D01*
X267996D01*
Y225090D01*
X264315Y221409D01*
X263779Y221515D01*
X262929Y221346D01*
X262207Y220864D01*
X261725Y220142D01*
X261556Y219291D01*
X261725Y218440D01*
X262207Y217719D01*
X262929Y217237D01*
X263779Y217068D01*
X264631Y217237D01*
X264678Y217268D01*
X265059D01*
X265833Y217422D01*
X266490Y217861D01*
X270759Y222130D01*
X272161D01*
Y226128D01*
X274098D01*
Y225476D01*
X274750D01*
Y222693D01*
X273921D01*
Y218252D01*
X279185D01*
Y220472D01*
X280185D01*
Y218252D01*
X280315D01*
Y183063D01*
X281072Y182306D01*
X280881Y181844D01*
X259055D01*
X258470Y181728D01*
X257974Y181396D01*
X256518Y179941D01*
X256057Y180187D01*
X256161Y180709D01*
X255992Y181560D01*
X255509Y182281D01*
X254788Y182763D01*
X253937Y182932D01*
X253086Y182763D01*
X252364Y182281D01*
X252336Y182238D01*
X228914D01*
X228646Y182738D01*
X228826Y183007D01*
X228837Y183063D01*
X231549Y185774D01*
X231573Y185811D01*
X232299D01*
Y190106D01*
X232799Y190373D01*
X232879Y190319D01*
X233465Y190203D01*
X235614D01*
Y188370D01*
X243126D01*
Y190203D01*
X246949D01*
X247534Y190319D01*
X248030Y190651D01*
X248407Y191028D01*
X250508D01*
Y194374D01*
Y198736D01*
X248308D01*
X247538Y199507D01*
X247042Y199838D01*
X246457Y199955D01*
X243126D01*
Y201787D01*
X235614D01*
Y201628D01*
X232299D01*
Y203165D01*
X231647D01*
Y205988D01*
X232398D01*
Y209986D01*
X233563D01*
X234148Y210103D01*
X234645Y210434D01*
X236854Y212644D01*
X250787D01*
X251373Y212760D01*
X251392Y212773D01*
X251575Y212737D01*
X252426Y212906D01*
X253147Y213388D01*
X253629Y214110D01*
X253799Y214961D01*
X253629Y215812D01*
X253147Y216533D01*
X252426Y217015D01*
X251575Y217184D01*
X250724Y217015D01*
X250002Y216533D01*
X249520Y215812D01*
X249499Y215703D01*
X236221D01*
X235635Y215586D01*
X235139Y215255D01*
X232929Y213045D01*
X232398D01*
Y213697D01*
X228232D01*
Y213697D01*
X227952Y213581D01*
X226915Y214618D01*
X227080Y215160D01*
X227623Y215268D01*
X228344Y215750D01*
X228826Y216472D01*
X228995Y217323D01*
X228954Y217530D01*
X229912Y218488D01*
X232299D01*
Y224455D01*
X233225D01*
X234548Y223131D01*
X235045Y222800D01*
X235614Y222686D01*
Y220850D01*
X243126D01*
Y222683D01*
X246358D01*
X246943Y222800D01*
X247440Y223131D01*
X248407Y224098D01*
X250508D01*
Y227445D01*
Y231807D01*
X248309D01*
X248129Y231987D01*
X247633Y232318D01*
X247047Y232435D01*
X243126D01*
Y234268D01*
X235614D01*
Y232435D01*
X234295D01*
X232873Y233857D01*
X232377Y234189D01*
X232299Y234204D01*
Y235842D01*
X231647D01*
Y237146D01*
X232148Y237195D01*
X232197Y236944D01*
X232680Y236223D01*
X233401Y235741D01*
X234252Y235572D01*
X235103Y235741D01*
X235450Y235973D01*
X246095D01*
X247136Y234932D01*
X247136Y234932D01*
X247728Y234537D01*
X248425Y234398D01*
X248425Y234398D01*
X257609D01*
X257768Y233598D01*
X258250Y232876D01*
X258972Y232394D01*
X259823Y232225D01*
X260674Y232394D01*
X261395Y232876D01*
X261877Y233598D01*
X262037Y234398D01*
X262609D01*
X262768Y233598D01*
X263250Y232876D01*
X263972Y232394D01*
X264823Y232225D01*
X265674Y232394D01*
X266395Y232876D01*
X266877Y233598D01*
X267047Y234449D01*
Y237992D01*
X266877Y238843D01*
X266395Y239565D01*
X265674Y240047D01*
X264823Y240216D01*
X263972Y240047D01*
X263250Y239565D01*
X262768Y238843D01*
X262609Y238043D01*
X262037D01*
X261877Y238843D01*
X261395Y239565D01*
X260674Y240047D01*
X259823Y240216D01*
X258972Y240047D01*
X258250Y239565D01*
X257768Y238843D01*
X257609Y238043D01*
X249180D01*
X248139Y239084D01*
X247548Y239479D01*
X246850Y239618D01*
X246850Y239618D01*
X235450D01*
X235103Y239850D01*
X234252Y240019D01*
X233401Y239850D01*
X232680Y239368D01*
X232504Y239105D01*
X232004Y239257D01*
Y241618D01*
Y245321D01*
X251942D01*
X251971Y245278D01*
X252692Y244796D01*
X253543Y244627D01*
X254394Y244796D01*
X255116Y245278D01*
X255145Y245321D01*
X262992D01*
X263577Y245437D01*
X264074Y245769D01*
X265904Y247600D01*
X266236Y248096D01*
X266352Y248681D01*
Y254107D01*
X266395Y254136D01*
X266877Y254858D01*
X267047Y255709D01*
Y255951D01*
X267599D01*
Y255709D01*
X267768Y254858D01*
X268250Y254136D01*
X268972Y253654D01*
X269823Y253485D01*
X270674Y253654D01*
X271395Y254136D01*
X271877Y254858D01*
X272047Y255709D01*
Y258898D01*
X272547Y259137D01*
X272599Y259095D01*
D02*
G37*
G36*
X135713Y225593D02*
X134932Y224812D01*
X134537Y224221D01*
X134398Y223524D01*
X134398Y223524D01*
Y216535D01*
X134398Y216535D01*
X134537Y215838D01*
X134932Y215247D01*
X136113Y214066D01*
X136113Y214066D01*
X136704Y213671D01*
X137402Y213532D01*
X137402Y213532D01*
X144077D01*
X144425Y213300D01*
X145276Y213130D01*
X146127Y213300D01*
X146848Y213782D01*
X147330Y214503D01*
X147499Y215354D01*
X147330Y216205D01*
X147098Y216553D01*
Y217717D01*
X147098Y217717D01*
X146959Y218414D01*
X146564Y219005D01*
X146564Y219005D01*
X145917Y219653D01*
Y220161D01*
X146177D01*
Y224750D01*
X149652D01*
Y217618D01*
X149768Y217033D01*
X150083Y216562D01*
Y214453D01*
X157791D01*
Y214453D01*
X158071Y214569D01*
X164407Y208233D01*
X164216Y207771D01*
X159307D01*
Y208713D01*
X154866D01*
Y206913D01*
Y203449D01*
X155063D01*
Y199080D01*
X154738Y199015D01*
X154081Y198576D01*
X153643Y197920D01*
X153489Y197146D01*
X153594Y196616D01*
X153258Y196116D01*
X140665D01*
Y196768D01*
X136500D01*
Y196116D01*
X127307D01*
X122719Y200703D01*
X122911Y201165D01*
X124819D01*
Y206081D01*
X125319Y206492D01*
X125591Y206438D01*
X126442Y206607D01*
X127163Y207089D01*
X127645Y207810D01*
X127814Y208661D01*
X127645Y209512D01*
X127163Y210234D01*
X126442Y210716D01*
X125995Y210805D01*
X125930Y211077D01*
X125942Y211325D01*
X126377Y211615D01*
X128247Y213486D01*
X128578Y213982D01*
X128695Y214567D01*
Y221414D01*
X134196Y226916D01*
X135713D01*
Y225593D01*
D02*
G37*
G36*
X227839Y245980D02*
Y241618D01*
Y238272D01*
X228589D01*
Y235842D01*
X226878D01*
Y232776D01*
Y229709D01*
X232299D01*
X232299Y229709D01*
X232789Y229684D01*
X233076Y229492D01*
X233661Y229376D01*
X235614D01*
Y227045D01*
X235152Y226853D01*
X234940Y227066D01*
X234443Y227397D01*
X233858Y227514D01*
X225984D01*
X225399Y227397D01*
X224903Y227066D01*
X222459Y224622D01*
X220457D01*
Y223084D01*
X218799D01*
X218214Y222968D01*
X217718Y222637D01*
X216296Y221214D01*
X204721D01*
X204441Y221714D01*
X204586Y222441D01*
X204417Y223292D01*
X203935Y224013D01*
X203213Y224496D01*
X202362Y224665D01*
X201511Y224496D01*
X200790Y224013D01*
X200761Y223970D01*
X199381D01*
X199249Y224470D01*
X199692Y225133D01*
X199862Y225984D01*
X199692Y226835D01*
X199210Y227557D01*
X199167Y227586D01*
Y227953D01*
X199051Y228538D01*
X199050Y228539D01*
X199317Y229039D01*
X200287D01*
Y230839D01*
X198567D01*
Y229840D01*
X198105Y229648D01*
X197538Y230215D01*
X197042Y230547D01*
X196457Y230663D01*
X195980D01*
Y231217D01*
X188272D01*
Y230663D01*
X185941D01*
Y234563D01*
X185388D01*
Y235193D01*
X185776Y235582D01*
X185827Y235572D01*
X186678Y235741D01*
X187224Y236105D01*
X188272Y235058D01*
Y232957D01*
X195980D01*
Y233510D01*
X198567D01*
Y231839D01*
X200787D01*
Y231339D01*
D01*
Y231839D01*
X203008D01*
Y235097D01*
X203492Y235582D01*
X203543Y235572D01*
X204394Y235741D01*
X205116Y236223D01*
X205598Y236944D01*
X205767Y237795D01*
X205603Y238622D01*
X205597Y238711D01*
X205855Y239123D01*
X209088D01*
X211703Y236507D01*
X211703Y236507D01*
X212295Y236112D01*
X212992Y235973D01*
X212992Y235973D01*
X215337D01*
X215684Y235741D01*
X216535Y235572D01*
X217387Y235741D01*
X218108Y236223D01*
X218590Y236944D01*
X218759Y237795D01*
X218590Y238646D01*
X218108Y239368D01*
X217387Y239850D01*
X216535Y240019D01*
X215684Y239850D01*
X215337Y239618D01*
X213747D01*
X211300Y242065D01*
X211507Y242565D01*
X220358D01*
Y238272D01*
X221108D01*
Y235842D01*
X220457D01*
Y229709D01*
X225878D01*
Y232776D01*
Y235842D01*
X224167D01*
Y238272D01*
X224524D01*
Y241618D01*
Y245980D01*
X224971Y246108D01*
X227392D01*
X227839Y245980D01*
D02*
G37*
G36*
X255360Y281847D02*
Y279357D01*
X255317Y279328D01*
X254835Y278607D01*
X254666Y277756D01*
X254676Y277705D01*
X254091Y277120D01*
X237641D01*
X235333Y279428D01*
X234837Y279759D01*
X234252Y279876D01*
X232004D01*
Y280528D01*
X227839D01*
Y276165D01*
Y272819D01*
X228195D01*
Y269307D01*
X226484D01*
Y266240D01*
Y263173D01*
X231906D01*
Y264043D01*
X232405Y264250D01*
X233367Y263289D01*
X233864Y262957D01*
X234449Y262841D01*
X235614D01*
Y259207D01*
X235082D01*
X233759Y260530D01*
X233262Y260862D01*
X232677Y260978D01*
X225591D01*
X225005Y260862D01*
X224509Y260530D01*
X222065Y258087D01*
X220063D01*
Y256647D01*
X197271D01*
X197242Y256691D01*
X196520Y257173D01*
X195669Y257342D01*
X194818Y257173D01*
X194097Y256691D01*
X193615Y255969D01*
X193446Y255118D01*
X193615Y254267D01*
X194097Y253546D01*
X194818Y253064D01*
X195669Y252894D01*
X196520Y253064D01*
X197242Y253546D01*
X197271Y253589D01*
X220063D01*
Y251953D01*
X224191D01*
X224618Y251533D01*
X224548Y251181D01*
X224717Y250330D01*
X225160Y249667D01*
X225028Y249167D01*
X201421D01*
X201033Y249555D01*
X201043Y249606D01*
X200873Y250457D01*
X200391Y251179D01*
X199670Y251661D01*
X198819Y251830D01*
X197968Y251661D01*
X197246Y251179D01*
X197218Y251136D01*
X184252D01*
X183667Y251019D01*
X183170Y250688D01*
X178500Y246018D01*
X177775D01*
X177417Y246362D01*
Y248161D01*
X175197D01*
Y249161D01*
X177417D01*
Y249827D01*
Y254425D01*
X177121D01*
Y257200D01*
X177546Y257284D01*
X178202Y257723D01*
X178641Y258379D01*
X178751Y258931D01*
X179273Y259115D01*
X181202Y257186D01*
X181698Y256855D01*
X182283Y256738D01*
X183817D01*
X183968Y256238D01*
X183467Y255903D01*
X182985Y255182D01*
X182932Y254917D01*
X182422D01*
X182369Y255182D01*
X181887Y255903D01*
X181166Y256385D01*
X180815Y256455D01*
Y254331D01*
Y252206D01*
X181166Y252276D01*
X181887Y252758D01*
X182369Y253480D01*
X182422Y253745D01*
X182932D01*
X182985Y253480D01*
X183467Y252758D01*
X184188Y252276D01*
X184539Y252206D01*
Y254331D01*
X185039D01*
Y254831D01*
X187164D01*
X187094Y255182D01*
X186612Y255903D01*
X186110Y256238D01*
X186262Y256738D01*
X187375D01*
X187404Y256695D01*
X188125Y256213D01*
X188976Y256044D01*
X189827Y256213D01*
X190549Y256695D01*
X191031Y257417D01*
X191200Y258268D01*
X191031Y259119D01*
X190549Y259840D01*
X189827Y260322D01*
X188976Y260492D01*
X188125Y260322D01*
X187404Y259840D01*
X187375Y259797D01*
X182917D01*
X180434Y262280D01*
X180625Y262742D01*
X184138D01*
Y262287D01*
X188303D01*
Y262939D01*
X191028D01*
Y262484D01*
X196475D01*
X197050Y261909D01*
X196764Y261481D01*
X196595Y260630D01*
X196764Y259779D01*
X197246Y259057D01*
X197968Y258575D01*
X198819Y258406D01*
X199670Y258575D01*
X200391Y259057D01*
X200873Y259779D01*
X201043Y260630D01*
X200873Y261481D01*
X200391Y262202D01*
X200348Y262231D01*
Y262303D01*
X200232Y262888D01*
X199900Y263385D01*
X198736Y264549D01*
Y266650D01*
X191028D01*
Y265998D01*
X188303D01*
Y269996D01*
X187750D01*
Y270626D01*
X188532Y271408D01*
X188583Y271398D01*
X189434Y271568D01*
X190155Y272050D01*
X190595Y271809D01*
X191028Y271376D01*
Y267602D01*
X198736D01*
Y268156D01*
X200259D01*
X200438Y268036D01*
X200929Y267938D01*
Y266484D01*
X203150D01*
X205370D01*
Y267150D01*
Y271748D01*
X204679D01*
Y274383D01*
X204722Y274412D01*
X205204Y275133D01*
X205373Y275984D01*
X205229Y276711D01*
X205509Y277211D01*
X220358D01*
Y272917D01*
X220715D01*
Y269307D01*
X220063D01*
Y263173D01*
X225484D01*
Y266240D01*
Y269307D01*
X223774D01*
Y272917D01*
X224524D01*
Y276264D01*
Y280626D01*
X220358D01*
Y280270D01*
X198058D01*
X198029Y280313D01*
X197308Y280795D01*
X196457Y280964D01*
X195935Y280860D01*
X195689Y281321D01*
X198544Y284176D01*
X199149Y283772D01*
X200000Y283603D01*
X200851Y283772D01*
X201572Y284254D01*
X201601Y284297D01*
X252910D01*
X255360Y281847D01*
D02*
G37*
G36*
X184888Y212333D02*
X184784Y211811D01*
X184953Y210960D01*
X185435Y210239D01*
X186157Y209756D01*
X187008Y209587D01*
X187859Y209756D01*
X188580Y210239D01*
X188609Y210282D01*
X220358D01*
Y205988D01*
X221108D01*
Y203165D01*
X220457D01*
Y197031D01*
X225878D01*
Y200098D01*
Y203165D01*
X224167D01*
Y205988D01*
X224524D01*
Y209335D01*
Y212030D01*
X224986Y212222D01*
X226773Y210434D01*
X227269Y210103D01*
X227854Y209986D01*
X228232D01*
Y205988D01*
X228589D01*
Y203165D01*
X226878D01*
Y200098D01*
Y197031D01*
X232299D01*
Y198569D01*
X235614D01*
Y195063D01*
Y193262D01*
X234098D01*
X232577Y194782D01*
X232081Y195114D01*
X231496Y195230D01*
X226378D01*
X225793Y195114D01*
X225296Y194782D01*
X222459Y191945D01*
X220457D01*
Y190506D01*
X205932D01*
X205903Y190549D01*
X205182Y191031D01*
X204331Y191200D01*
X203480Y191031D01*
X202758Y190549D01*
X202276Y189827D01*
X202107Y188976D01*
X202276Y188125D01*
X202758Y187404D01*
X203480Y186922D01*
X204331Y186752D01*
X205182Y186922D01*
X205903Y187404D01*
X205932Y187447D01*
X220457D01*
Y185811D01*
X224819D01*
Y189979D01*
X227011Y192171D01*
X227531D01*
X227937Y191945D01*
Y187885D01*
X225976Y185924D01*
X225921Y185913D01*
X225199Y185431D01*
X224717Y184709D01*
X224548Y183858D01*
X224717Y183007D01*
X224897Y182738D01*
X224630Y182238D01*
X199721D01*
Y182595D01*
X199167D01*
Y191043D01*
X199051Y191629D01*
X198719Y192125D01*
X196374Y194470D01*
Y196571D01*
X188665D01*
Y195919D01*
X186728D01*
Y199917D01*
X187019Y200297D01*
X187072Y200308D01*
X187793Y200790D01*
X188285Y200793D01*
X188665Y200412D01*
Y198311D01*
X196374D01*
Y198864D01*
X198961D01*
Y197193D01*
X201181D01*
Y196693D01*
D01*
Y197193D01*
X203402D01*
Y197858D01*
Y200215D01*
X205461Y202274D01*
X205512Y202264D01*
X206363Y202434D01*
X207084Y202916D01*
X207566Y203637D01*
X207736Y204488D01*
X207566Y205339D01*
X207084Y206061D01*
X206363Y206543D01*
X205512Y206712D01*
X204661Y206543D01*
X203939Y206061D01*
X203457Y205339D01*
X203288Y204488D01*
X203298Y204437D01*
X201317Y202457D01*
X198961D01*
Y201923D01*
X196374D01*
Y202476D01*
X190927D01*
X189959Y203444D01*
X189463Y203775D01*
X188878Y203892D01*
X187822D01*
X187793Y203935D01*
X187072Y204417D01*
X186221Y204586D01*
X185370Y204417D01*
X184648Y203935D01*
X184166Y203213D01*
X183997Y202362D01*
X184007Y202311D01*
X183564Y201869D01*
X183233Y201373D01*
X183116Y200787D01*
Y199917D01*
X182563D01*
Y199266D01*
X180807D01*
X180222Y199149D01*
X179726Y198818D01*
X179583Y198675D01*
X178054D01*
X177546Y199015D01*
X176772Y199169D01*
X173425D01*
X172651Y199015D01*
X171995Y198576D01*
X171556Y197920D01*
X171402Y197146D01*
X171556Y196371D01*
X171894Y195866D01*
X171556Y195361D01*
X171402Y194587D01*
X171556Y193812D01*
X171894Y193307D01*
X171556Y192802D01*
X171402Y192027D01*
X171556Y191253D01*
X171894Y190748D01*
X171556Y190243D01*
X171402Y189469D01*
X171556Y188694D01*
X171995Y188038D01*
X172651Y187599D01*
X173174Y187495D01*
Y183559D01*
X172976D01*
Y183283D01*
X166410D01*
X166363Y183314D01*
X165512Y183484D01*
X164661Y183314D01*
X163939Y182832D01*
X163457Y182111D01*
X163288Y181260D01*
X163457Y180409D01*
X163560Y180254D01*
X163172Y179936D01*
X159743Y183365D01*
X159247Y183696D01*
X158661Y183813D01*
X157398D01*
Y184366D01*
X151950D01*
X150742Y185574D01*
Y190498D01*
X153258D01*
X153594Y189998D01*
X153588Y189969D01*
X157185D01*
X160782D01*
X160727Y190243D01*
X160390Y190748D01*
X160727Y191253D01*
X160881Y192027D01*
X160727Y192802D01*
X160390Y193307D01*
X160727Y193812D01*
X160881Y194587D01*
X160727Y195361D01*
X160390Y195866D01*
X160727Y196371D01*
X160881Y197146D01*
X160727Y197920D01*
X160289Y198576D01*
X159633Y199015D01*
X159110Y199119D01*
Y203449D01*
X159307D01*
Y203725D01*
X164103D01*
X164503Y203457D01*
X165354Y203288D01*
X166205Y203457D01*
X166927Y203939D01*
X167409Y204661D01*
X167578Y205512D01*
X167434Y206238D01*
X167714Y206738D01*
X177953D01*
X178538Y206855D01*
X179034Y207186D01*
X184427Y212579D01*
X184888Y212333D01*
D02*
G37*
G36*
X193702Y179332D02*
X194198Y179000D01*
X194783Y178884D01*
X195555D01*
Y174886D01*
X195912D01*
Y171669D01*
X194201D01*
Y168602D01*
Y165535D01*
X199622D01*
Y167073D01*
X202937D01*
Y162356D01*
X202405D01*
X200688Y164074D01*
X200192Y164405D01*
X199606Y164522D01*
X194488D01*
X193903Y164405D01*
X193407Y164074D01*
X191241Y161908D01*
X188583Y164567D01*
X187594D01*
X187465Y164653D01*
X186614Y164822D01*
X185763Y164653D01*
X185634Y164567D01*
X185433D01*
X180338Y169662D01*
X180529Y170124D01*
X184619D01*
X184648Y170081D01*
X185370Y169599D01*
X186221Y169430D01*
X187072Y169599D01*
X187339Y169777D01*
X187779Y169542D01*
Y165535D01*
X193201D01*
Y168602D01*
Y171669D01*
X191490D01*
Y174886D01*
X191847D01*
Y178232D01*
Y180506D01*
X191870Y180525D01*
X192347Y180687D01*
X193702Y179332D01*
D02*
G37*
G36*
X186503Y274348D02*
X186359Y273622D01*
X186369Y273571D01*
X185139Y272341D01*
X184808Y271845D01*
X184691Y271260D01*
Y269996D01*
X184138D01*
Y269344D01*
X183169D01*
X182584Y269228D01*
X182088Y268896D01*
X181552Y268360D01*
X178054D01*
X177546Y268700D01*
X176772Y268854D01*
X173425D01*
X172651Y268700D01*
X171995Y268261D01*
X171556Y267605D01*
X171402Y266831D01*
X171556Y266056D01*
X171894Y265551D01*
X171556Y265046D01*
X171402Y264272D01*
X171556Y263497D01*
X171894Y262992D01*
X171556Y262487D01*
X171402Y261713D01*
X171556Y260938D01*
X171894Y260433D01*
X171556Y259928D01*
X171402Y259154D01*
X171556Y258379D01*
X171995Y257723D01*
X172651Y257284D01*
X173075Y257200D01*
Y254425D01*
X172976D01*
Y254149D01*
X167047D01*
X166927Y254328D01*
X166205Y254811D01*
X165354Y254980D01*
X164503Y254811D01*
X163782Y254328D01*
X163300Y253607D01*
X163192Y253064D01*
X162649Y252900D01*
X162499Y253050D01*
X162003Y253381D01*
X161946Y253591D01*
X161951Y253902D01*
X162596Y254333D01*
X163078Y255054D01*
X163148Y255405D01*
X158899D01*
X158969Y255054D01*
X159305Y254551D01*
X159042Y254051D01*
X153919D01*
X151923Y256047D01*
Y260183D01*
X153258D01*
X153594Y259683D01*
X153588Y259653D01*
X157185D01*
X160782D01*
X160727Y259928D01*
X160390Y260433D01*
X160727Y260938D01*
X160881Y261713D01*
X160727Y262487D01*
X160390Y262992D01*
X160727Y263497D01*
X160881Y264272D01*
X160727Y265046D01*
X160390Y265551D01*
X160727Y266056D01*
X160881Y266831D01*
X160727Y267605D01*
X160289Y268261D01*
X159633Y268700D01*
X159208Y268784D01*
Y271559D01*
X159307D01*
Y271835D01*
X163662D01*
X163782Y271656D01*
X164503Y271174D01*
X165354Y271005D01*
X166205Y271174D01*
X166927Y271656D01*
X167409Y272377D01*
X167578Y273228D01*
X167409Y274079D01*
X167229Y274349D01*
X167496Y274849D01*
X186223D01*
X186503Y274348D01*
D02*
G37*
G36*
X120459Y227772D02*
X120140Y227383D01*
X119749Y227645D01*
X119398Y227715D01*
Y225590D01*
Y223466D01*
X119749Y223536D01*
X120470Y224018D01*
X120952Y224740D01*
X121002Y224991D01*
X121502Y224941D01*
Y215370D01*
X120972D01*
Y212697D01*
X119972D01*
Y215370D01*
X118683D01*
X116884Y217169D01*
Y223847D01*
X117384Y223979D01*
X118047Y223536D01*
X118398Y223466D01*
Y225590D01*
Y227715D01*
X118047Y227645D01*
X117384Y227202D01*
X116884Y227334D01*
Y227559D01*
X116767Y228144D01*
X116436Y228641D01*
X111160Y233916D01*
X110664Y234248D01*
X110079Y234364D01*
X107467D01*
X107168Y235085D01*
X106645Y235766D01*
X106883Y236266D01*
X111965D01*
X120459Y227772D01*
D02*
G37*
G36*
X367620Y157541D02*
X368455Y156900D01*
X369428Y156497D01*
X370472Y156359D01*
X371517Y156497D01*
X372490Y156900D01*
X373325Y157541D01*
X373955Y158361D01*
X374004Y158367D01*
X374455Y158249D01*
Y152538D01*
X374004Y152421D01*
X373955Y152426D01*
X373325Y153246D01*
X372490Y153888D01*
X371517Y154291D01*
X370972Y154362D01*
Y150394D01*
Y146425D01*
X371517Y146497D01*
X372490Y146900D01*
X373325Y147541D01*
X373955Y148361D01*
X374004Y148367D01*
X374455Y148249D01*
Y141185D01*
X356793Y123522D01*
X356461Y123026D01*
X356345Y122441D01*
Y118350D01*
X347004Y109010D01*
X249005D01*
X248905Y109512D01*
X248423Y110234D01*
X247701Y110716D01*
X246850Y110885D01*
X245999Y110716D01*
X245278Y110234D01*
X244796Y109512D01*
X244627Y108661D01*
X244796Y107810D01*
X245239Y107148D01*
X245107Y106648D01*
X239287D01*
Y107595D01*
X234010D01*
Y109236D01*
X235055D01*
Y114386D01*
X229906D01*
Y109236D01*
X230951D01*
Y106791D01*
X231067Y106206D01*
X231399Y105710D01*
X231579Y105530D01*
Y103937D01*
X212319D01*
X212112Y104437D01*
X223074Y115400D01*
X274016D01*
X274601Y115516D01*
X275097Y115848D01*
X280318Y121069D01*
X291480D01*
Y119634D01*
X293701D01*
Y119134D01*
D01*
Y119634D01*
X295921D01*
Y120615D01*
X297386D01*
Y119634D01*
X299606D01*
X301827D01*
Y120615D01*
X305496D01*
Y120457D01*
X311827D01*
Y124819D01*
X305496D01*
Y124661D01*
X301827D01*
Y124898D01*
X297386D01*
Y124661D01*
X295921D01*
Y124898D01*
X295724D01*
Y126661D01*
X295755Y126708D01*
X295925Y127559D01*
X295755Y128410D01*
X295498Y128795D01*
X295765Y129295D01*
X338583Y129295D01*
X338973Y129373D01*
X339304Y129594D01*
X341339Y127559D01*
X345669Y131890D01*
Y147638D01*
X344217Y149090D01*
X344409Y149552D01*
X350339D01*
Y130366D01*
X344595Y124621D01*
X338441D01*
Y124898D01*
X334000D01*
Y124621D01*
X331354D01*
Y124898D01*
X326913D01*
Y124661D01*
X322063D01*
Y124819D01*
X315732D01*
Y120457D01*
Y119398D01*
X318898D01*
X322063D01*
Y120615D01*
X326913D01*
Y119634D01*
X329134D01*
Y119134D01*
D01*
Y119634D01*
X331354D01*
Y120575D01*
X334000D01*
Y119634D01*
X336221D01*
X338441D01*
Y120575D01*
X345433D01*
X346207Y120729D01*
X346864Y121168D01*
X353793Y128097D01*
X354231Y128753D01*
X354385Y129528D01*
Y150737D01*
X362019Y158371D01*
X366983D01*
X367620Y157541D01*
D02*
G37*
G36*
X298031Y283353D02*
Y265748D01*
X297638Y265354D01*
X305906Y257087D01*
X368110D01*
X378346Y246850D01*
Y205336D01*
X377885Y205145D01*
X374167Y208862D01*
X374370Y209349D01*
X374507Y210394D01*
X374370Y211438D01*
X373966Y212411D01*
X373325Y213246D01*
X372490Y213888D01*
X371517Y214291D01*
X370472Y214428D01*
X369428Y214291D01*
X368455Y213888D01*
X367620Y213246D01*
X366978Y212411D01*
X366744Y211844D01*
X360315D01*
X359730Y211728D01*
X359233Y211396D01*
X353594Y205757D01*
X353543Y205767D01*
X352692Y205598D01*
X351971Y205116D01*
X351489Y204394D01*
X351320Y203543D01*
X351489Y202692D01*
X351971Y201971D01*
X352692Y201489D01*
X353543Y201320D01*
X354394Y201489D01*
X355116Y201971D01*
X355598Y202692D01*
X355767Y203543D01*
X355757Y203594D01*
X360948Y208786D01*
X366809D01*
X366978Y208376D01*
X367620Y207541D01*
X368455Y206900D01*
X369428Y206497D01*
X370472Y206359D01*
X371517Y206497D01*
X372005Y206699D01*
X377211Y201493D01*
Y196625D01*
X376711Y196493D01*
X376048Y196936D01*
X375197Y197106D01*
X374346Y196936D01*
X373624Y196454D01*
X373142Y195733D01*
X372973Y194882D01*
X373142Y194031D01*
X373161Y194003D01*
X372791Y193656D01*
X372490Y193888D01*
X371517Y194291D01*
X370472Y194428D01*
X369428Y194291D01*
X368455Y193888D01*
X367620Y193246D01*
X366978Y192411D01*
X366776Y191923D01*
X357323D01*
X356738Y191807D01*
X356241Y191475D01*
X343461Y178695D01*
X342514D01*
X342362Y179195D01*
X342420Y179234D01*
X361972Y198786D01*
X366809D01*
X366978Y198376D01*
X367620Y197541D01*
X368455Y196900D01*
X369428Y196497D01*
X370472Y196359D01*
X371517Y196497D01*
X372490Y196900D01*
X373325Y197541D01*
X373966Y198376D01*
X374370Y199349D01*
X374507Y200394D01*
X374370Y201438D01*
X373966Y202411D01*
X373325Y203246D01*
X372490Y203888D01*
X371517Y204291D01*
X370472Y204428D01*
X369428Y204291D01*
X368455Y203888D01*
X367620Y203246D01*
X366978Y202411D01*
X366744Y201844D01*
X361339D01*
X360753Y201728D01*
X360257Y201396D01*
X340705Y181844D01*
X283116D01*
X281334Y183626D01*
Y185764D01*
X281835Y185915D01*
X281892Y185829D01*
X282613Y185347D01*
X283465Y185178D01*
X284316Y185347D01*
X285037Y185829D01*
X285066Y185872D01*
X304217D01*
Y185122D01*
X306317D01*
X307875Y183564D01*
X308371Y183233D01*
X308957Y183116D01*
X310319D01*
Y182760D01*
X316059D01*
Y187319D01*
X310319D01*
Y186175D01*
X309590D01*
X308382Y187383D01*
Y188627D01*
X311713D01*
X312487Y188780D01*
X313143Y189219D01*
X313771Y189847D01*
X316059D01*
Y194405D01*
X310319D01*
Y192673D01*
X308382D01*
Y192831D01*
X304217D01*
Y192574D01*
X294599D01*
X294552Y192606D01*
X293701Y192775D01*
X292850Y192606D01*
X292128Y192124D01*
X291646Y191402D01*
X291477Y190551D01*
X291646Y189700D01*
X291826Y189431D01*
X291559Y188931D01*
X285066D01*
X285037Y188974D01*
X284316Y189456D01*
X283465Y189625D01*
X282613Y189456D01*
X281892Y188974D01*
X281835Y188888D01*
X281334Y189040D01*
Y218252D01*
X281984D01*
Y222693D01*
X280709D01*
Y225476D01*
X281807D01*
Y229642D01*
X281334D01*
Y252644D01*
X283213D01*
Y251874D01*
X287653D01*
Y255339D01*
Y259937D01*
X283213D01*
Y259010D01*
X280709D01*
Y263331D01*
X286496D01*
X287270Y263485D01*
X287927Y263924D01*
X288365Y264580D01*
X288519Y265354D01*
X288365Y266128D01*
X287927Y266785D01*
X287270Y267224D01*
X286496Y267377D01*
X285202D01*
X285153Y267877D01*
X285394Y267926D01*
X285890Y268024D01*
X286612Y268506D01*
X287094Y269228D01*
X287164Y269579D01*
X282915D01*
X282985Y269228D01*
X283467Y268506D01*
X284188Y268024D01*
X284684Y267926D01*
X284926Y267877D01*
X284877Y267377D01*
X281334D01*
Y275931D01*
X289465D01*
X289974Y275591D01*
X290748Y275437D01*
X295276D01*
X296050Y275591D01*
X296706Y276030D01*
X297145Y276686D01*
X297299Y277461D01*
X297145Y278235D01*
X296807Y278740D01*
X297145Y279245D01*
X297299Y280020D01*
X297145Y280794D01*
X296807Y281299D01*
X297145Y281804D01*
X297199Y282079D01*
X293012D01*
Y283079D01*
X297266D01*
X297532Y283426D01*
X298031Y283353D01*
D02*
G37*
G36*
X111804Y170374D02*
X111955Y170223D01*
X112612Y169784D01*
X113386Y169630D01*
X119574D01*
X119621Y169599D01*
X120472Y169430D01*
X121324Y169599D01*
X122045Y170081D01*
X122197Y170309D01*
X132499Y170245D01*
X132619Y170098D01*
X132788Y169247D01*
X133270Y168526D01*
X133992Y168044D01*
X134843Y167875D01*
X138386D01*
X139237Y168044D01*
X139958Y168526D01*
X140440Y169247D01*
X140610Y170098D01*
X140688Y170194D01*
X153868Y170111D01*
X153878Y170098D01*
X154048Y169247D01*
X154530Y168526D01*
X155251Y168044D01*
X156102Y167875D01*
X159646D01*
X160497Y168044D01*
X160544Y168075D01*
X161059D01*
X162937Y166196D01*
Y146507D01*
X159398Y142968D01*
X157705D01*
X157586Y143568D01*
X157104Y144289D01*
X156383Y144771D01*
X155532Y144940D01*
X154681Y144771D01*
X153959Y144289D01*
X153477Y143568D01*
X153308Y142717D01*
Y139173D01*
X153477Y138322D01*
X153959Y137601D01*
X154681Y137119D01*
X155532Y136949D01*
X156383Y137119D01*
X157104Y137601D01*
X157586Y138322D01*
X157705Y138922D01*
X160236D01*
X161010Y139076D01*
X161667Y139514D01*
X165726Y143574D01*
X166269D01*
X170843Y138999D01*
X170652Y138537D01*
X161811D01*
X161226Y138421D01*
X160730Y138089D01*
X151335Y128695D01*
X143701D01*
X143115Y128578D01*
X142619Y128247D01*
X139450Y125077D01*
X139119Y124581D01*
X139002Y123996D01*
Y123058D01*
X138959Y123029D01*
X138477Y122308D01*
X138308Y121457D01*
Y117913D01*
X138477Y117062D01*
X138959Y116341D01*
X139681Y115859D01*
X140532Y115690D01*
X141383Y115859D01*
X142104Y116341D01*
X142586Y117062D01*
X142755Y117913D01*
Y121457D01*
X142586Y122308D01*
X142104Y123029D01*
X142200Y123501D01*
X144334Y125636D01*
X151969D01*
X152554Y125752D01*
X153050Y126084D01*
X162444Y135478D01*
X162998D01*
X163150Y134978D01*
X163092Y134940D01*
X154450Y126298D01*
X154119Y125802D01*
X154002Y125216D01*
Y123058D01*
X153959Y123029D01*
X153477Y122308D01*
X153308Y121457D01*
Y117913D01*
X153477Y117062D01*
X153959Y116341D01*
X154681Y115859D01*
X155532Y115690D01*
X156383Y115859D01*
X157104Y116341D01*
X157586Y117062D01*
X157755Y117913D01*
Y121457D01*
X157586Y122308D01*
X157104Y123029D01*
X157061Y123058D01*
Y124583D01*
X164807Y132329D01*
X177514D01*
X178347Y131496D01*
X201264D01*
Y127839D01*
X201264D01*
X201380Y127558D01*
X201084Y127263D01*
X200752Y126766D01*
X200636Y126181D01*
Y125803D01*
X199591D01*
Y120653D01*
X204740D01*
Y125803D01*
X204604D01*
X204412Y126265D01*
X204526Y126379D01*
X204858Y126875D01*
X204974Y127461D01*
Y127839D01*
X208972D01*
Y128392D01*
X210439D01*
X210591Y127892D01*
X210533Y127853D01*
X208483Y125803D01*
X205496D01*
Y120653D01*
X210646D01*
Y123640D01*
X211890Y124885D01*
X212141Y124717D01*
X212992Y124548D01*
X213843Y124717D01*
X214565Y125199D01*
X215047Y125921D01*
X215216Y126772D01*
X215047Y127623D01*
X214867Y127892D01*
X215134Y128392D01*
X215722D01*
X215750Y128349D01*
X216472Y127867D01*
X217323Y127697D01*
X218174Y127867D01*
X218895Y128349D01*
X219377Y129070D01*
X219547Y129921D01*
X219377Y130772D01*
X219228Y130996D01*
X219495Y131496D01*
X231579D01*
Y127839D01*
X232230D01*
Y127307D01*
X231399Y126475D01*
X231067Y125979D01*
X231032Y125803D01*
X229906D01*
Y120653D01*
X235055D01*
Y125803D01*
X235055Y125803D01*
X235139Y126038D01*
X235173Y126088D01*
X235289Y126673D01*
Y127839D01*
X239287D01*
Y128392D01*
X240525D01*
X240553Y128349D01*
X241275Y127867D01*
X242126Y127697D01*
X242977Y127867D01*
X243699Y128349D01*
X244180Y129070D01*
X244350Y129921D01*
X244180Y130772D01*
X244031Y130996D01*
X244298Y131496D01*
X284778D01*
X286681Y129594D01*
X287011Y129373D01*
X287402Y129295D01*
X291636D01*
X291904Y128795D01*
X291646Y128410D01*
X291477Y127559D01*
X291646Y126708D01*
X291678Y126661D01*
Y124898D01*
X291480D01*
Y124128D01*
X279685D01*
X279100Y124011D01*
X278604Y123680D01*
X273382Y118458D01*
X222441D01*
X221856Y118342D01*
X221359Y118011D01*
X209996Y106648D01*
X208972D01*
Y107595D01*
X203695D01*
Y109236D01*
X204740D01*
Y114386D01*
X199591D01*
Y109236D01*
X200636D01*
Y106791D01*
X200752Y106206D01*
X201084Y105710D01*
X201264Y105530D01*
Y103937D01*
X126772D01*
X108268Y122441D01*
X96850D01*
X87795Y131496D01*
Y162205D01*
X96063Y170472D01*
X111804Y170374D01*
D02*
G37*
G36*
X343307Y145669D02*
Y135039D01*
X338583Y130315D01*
X287402Y130315D01*
X278312Y139405D01*
X278503Y139867D01*
X291480D01*
Y138925D01*
X293701D01*
X295921D01*
Y139867D01*
X297386D01*
Y138768D01*
X299606D01*
X301827D01*
Y139906D01*
X305496D01*
Y139748D01*
X311827D01*
Y144110D01*
X305496D01*
Y143952D01*
X301827D01*
Y144032D01*
X297386D01*
Y143913D01*
X295921D01*
Y144189D01*
X291480D01*
Y143913D01*
X273804D01*
X273084Y144632D01*
X278003Y149552D01*
X281727D01*
X281776Y149052D01*
X281535Y149004D01*
X281039Y148905D01*
X280317Y148423D01*
X279835Y147701D01*
X279765Y147350D01*
X284014D01*
X283944Y147701D01*
X283462Y148423D01*
X282741Y148905D01*
X282245Y149004D01*
X282003Y149052D01*
X282052Y149552D01*
X334197D01*
Y144189D01*
X334000D01*
Y143913D01*
X331354D01*
Y144189D01*
X326913D01*
Y143952D01*
X322063D01*
Y144110D01*
X315732D01*
Y139748D01*
Y138689D01*
X318898D01*
X322063D01*
Y139906D01*
X326913D01*
Y138925D01*
X329134D01*
X331354D01*
Y139867D01*
X334000D01*
Y138925D01*
X336221D01*
X338441D01*
Y139591D01*
Y144189D01*
X338244D01*
Y149552D01*
X339425D01*
X343307Y145669D01*
D02*
G37*
G36*
X137287Y290634D02*
X137548D01*
Y287008D01*
X137548Y287008D01*
X137686Y286311D01*
X138081Y285719D01*
X141231Y282570D01*
X141231Y282570D01*
X141822Y282175D01*
X142520Y282036D01*
X142520Y282036D01*
X144077D01*
X144425Y281804D01*
X145276Y281634D01*
X146127Y281804D01*
X146848Y282286D01*
X147330Y283007D01*
X147412Y283417D01*
X148533Y284538D01*
X148533Y284538D01*
X148928Y285129D01*
X149066Y285827D01*
Y287090D01*
X149327D01*
Y291089D01*
X150098D01*
X150439Y290809D01*
Y288583D01*
X150556Y287997D01*
X150887Y287501D01*
X151916Y286473D01*
Y285154D01*
X151264D01*
Y280988D01*
X158972D01*
Y281071D01*
X159472Y281278D01*
X164369Y276381D01*
X164162Y275881D01*
X159307D01*
Y276823D01*
X154866D01*
Y275024D01*
Y271559D01*
X155162D01*
Y268784D01*
X154738Y268700D01*
X154081Y268261D01*
X153643Y267605D01*
X153489Y266831D01*
X153594Y266301D01*
X153258Y265801D01*
X139484D01*
Y266453D01*
X135319D01*
Y265801D01*
X122609D01*
X122373Y266242D01*
X122527Y266472D01*
X122696Y267323D01*
X122527Y268174D01*
X122125Y268776D01*
X122274Y269184D01*
X122346Y269276D01*
X124819D01*
Y274622D01*
X122714D01*
X122522Y275084D01*
X124113Y276675D01*
X124444Y277171D01*
X124561Y277756D01*
Y278134D01*
X124819D01*
Y280924D01*
X125933Y282038D01*
X125984Y282028D01*
X126835Y282197D01*
X127557Y282680D01*
X128039Y283401D01*
X128208Y284252D01*
X128039Y285103D01*
X127557Y285824D01*
X126835Y286307D01*
X125984Y286476D01*
X125133Y286307D01*
X124412Y285824D01*
X123930Y285103D01*
X123760Y284252D01*
X123770Y284201D01*
X123050Y283480D01*
X120972D01*
Y280807D01*
X119972D01*
Y283480D01*
X119443D01*
Y286965D01*
X122616Y290138D01*
X123077Y289892D01*
X123073Y289870D01*
X124697D01*
Y291494D01*
X124675Y291490D01*
X124429Y291951D01*
X127110Y294632D01*
X137287D01*
Y290634D01*
D02*
G37*
G36*
X281826Y297158D02*
X282677Y296989D01*
X282769Y297007D01*
X283260Y296595D01*
X283379Y295999D01*
X283861Y295278D01*
X284582Y294796D01*
X285433Y294627D01*
X286284Y294796D01*
X287006Y295278D01*
X287488Y295999D01*
X287568Y296404D01*
X288494D01*
X288830Y295904D01*
X288725Y295374D01*
X288879Y294600D01*
X289217Y294094D01*
X288879Y293589D01*
X288725Y292815D01*
X288879Y292041D01*
X289217Y291535D01*
X288879Y291030D01*
X288824Y290756D01*
X293012D01*
Y289756D01*
X288824D01*
X288830Y289726D01*
X288494Y289226D01*
X286046D01*
X285978Y289423D01*
X285963Y289726D01*
X286612Y290160D01*
X287094Y290881D01*
X287164Y291232D01*
X282915D01*
X282985Y290881D01*
X283467Y290160D01*
X284116Y289726D01*
X284100Y289423D01*
X284033Y289226D01*
X281334D01*
Y296956D01*
X281775Y297192D01*
X281826Y297158D01*
D02*
G37*
G36*
X288976Y174409D02*
Y162159D01*
X281523D01*
X281494Y162202D01*
X280772Y162685D01*
X279921Y162854D01*
X279070Y162685D01*
X278349Y162202D01*
X277867Y161481D01*
X277697Y160630D01*
X277867Y159779D01*
X278349Y159057D01*
X279070Y158575D01*
X279921Y158406D01*
X280772Y158575D01*
X281494Y159057D01*
X281523Y159100D01*
X288976D01*
Y157590D01*
X288476Y157438D01*
X288187Y157872D01*
X287465Y158354D01*
X286614Y158523D01*
X285763Y158354D01*
X285042Y157872D01*
X284560Y157150D01*
X284390Y156299D01*
X284560Y155448D01*
X285042Y154727D01*
X285763Y154245D01*
X286501Y154098D01*
X286452Y153598D01*
X277165D01*
X276391Y153444D01*
X275735Y153005D01*
X275000Y152270D01*
X274539Y152516D01*
X274565Y152650D01*
X272941D01*
Y151025D01*
X273074Y151052D01*
X273320Y150591D01*
X270494Y147765D01*
X269952D01*
X266588Y151128D01*
X268163Y152703D01*
X268601Y153360D01*
X268755Y154134D01*
Y154709D01*
X268913D01*
Y156246D01*
X272047D01*
X272633Y156363D01*
X273129Y156694D01*
X274785Y158350D01*
X276886D01*
Y161697D01*
Y166059D01*
X276332D01*
Y167110D01*
X276886D01*
Y167762D01*
X279669D01*
Y166835D01*
X284110D01*
Y170299D01*
Y172098D01*
X279669D01*
Y170821D01*
X276886D01*
Y172138D01*
X272721D01*
Y170526D01*
X268913D01*
Y171482D01*
X269291Y171792D01*
X270142Y171961D01*
X270864Y172443D01*
X271346Y173165D01*
X271416Y173516D01*
X267167D01*
X267237Y173165D01*
X267639Y172563D01*
X267457Y172063D01*
X263492D01*
Y168996D01*
Y165929D01*
X268913D01*
Y167467D01*
X272721D01*
Y167110D01*
X273274D01*
Y166059D01*
X272721D01*
Y161697D01*
Y160612D01*
X271414Y159305D01*
X268913D01*
Y160843D01*
X264551D01*
Y154814D01*
X263533Y153795D01*
X252022D01*
Y155398D01*
X252673D01*
Y156246D01*
X257071D01*
Y154709D01*
X261433D01*
Y160843D01*
X260781D01*
Y165929D01*
X262492D01*
Y168996D01*
Y172063D01*
X257610D01*
X257403Y172563D01*
X260476Y175636D01*
X267149D01*
X267417Y175136D01*
X267237Y174867D01*
X267167Y174516D01*
X271416D01*
X271346Y174867D01*
X271166Y175136D01*
X271433Y175636D01*
X287749D01*
X288976Y174409D01*
D02*
G37*
G36*
X188665Y192405D02*
X194113D01*
X196108Y190410D01*
Y182595D01*
X195555D01*
Y182595D01*
X195055Y182574D01*
X194836Y182739D01*
Y185433D01*
X194720Y186018D01*
X194388Y186514D01*
X190452Y190452D01*
X189955Y190783D01*
X189370Y190900D01*
X185039D01*
X184454Y190783D01*
X183958Y190452D01*
X181596Y188089D01*
X181264Y187593D01*
X181148Y187008D01*
Y186783D01*
X180648Y186651D01*
X179985Y187094D01*
X179634Y187164D01*
Y185039D01*
Y182915D01*
X179985Y182985D01*
X180648Y183428D01*
X181148Y183296D01*
Y176224D01*
X180863Y175939D01*
X177417D01*
Y177295D01*
X175197D01*
Y178295D01*
X177417D01*
Y178961D01*
Y182962D01*
X177917Y183229D01*
X178283Y182985D01*
X178634Y182915D01*
Y185039D01*
Y187164D01*
X178283Y187094D01*
X177720Y186718D01*
X177220Y186932D01*
Y187534D01*
X177546Y187599D01*
X178202Y188038D01*
X178641Y188694D01*
X178789Y189442D01*
X178813Y189464D01*
X178894Y189514D01*
X179262Y189682D01*
X179858Y189284D01*
X180709Y189115D01*
X181560Y189284D01*
X182281Y189766D01*
X182763Y190488D01*
X182932Y191339D01*
X182859Y191709D01*
X183269Y192209D01*
X186728D01*
Y192860D01*
X188665D01*
Y192405D01*
D02*
G37*
G36*
X116126Y186435D02*
Y182071D01*
X116384D01*
Y181693D01*
X116456Y181331D01*
X115985Y181135D01*
X115746Y181494D01*
X115024Y181976D01*
X114673Y182046D01*
Y179921D01*
X113673D01*
Y182046D01*
X113322Y181976D01*
X112759Y181600D01*
X112259Y181814D01*
Y186299D01*
X112105Y187073D01*
X111667Y187730D01*
X107557Y191839D01*
X107586Y191909D01*
X107729Y192992D01*
X107586Y194075D01*
X107450Y194405D01*
X107874Y194688D01*
X116126Y186435D01*
D02*
G37*
G36*
X118112Y263190D02*
X118608Y262859D01*
X119193Y262742D01*
X135319D01*
Y258744D01*
X135579D01*
Y255906D01*
X135579Y255906D01*
X135718Y255208D01*
X136113Y254617D01*
X141231Y249499D01*
X141822Y249104D01*
X142520Y248965D01*
X142520Y248965D01*
X144077D01*
X144425Y248733D01*
X144834Y248651D01*
X146743Y246743D01*
X146743Y246743D01*
X147334Y246348D01*
X148031Y246209D01*
X148031Y246209D01*
X160269D01*
X164150Y242328D01*
X163959Y241866D01*
X159307D01*
Y242807D01*
X154866D01*
Y241008D01*
Y237543D01*
X155063D01*
Y233332D01*
X154738Y233267D01*
X154081Y232828D01*
X153643Y232172D01*
X153489Y231398D01*
X153594Y230868D01*
X153258Y230368D01*
X139878D01*
Y230626D01*
X135713D01*
Y229974D01*
X133563D01*
X132978Y229858D01*
X132482Y229526D01*
X126084Y223129D01*
X125752Y222633D01*
X125636Y222047D01*
Y215200D01*
X125281Y214845D01*
X124819Y215037D01*
Y215370D01*
X124561D01*
Y227362D01*
X124444Y227947D01*
X124113Y228444D01*
X113680Y238877D01*
X113184Y239208D01*
X112598Y239325D01*
X106402D01*
X106232Y239825D01*
X106503Y240033D01*
X107168Y240899D01*
X107586Y241909D01*
X107729Y242992D01*
X107586Y244075D01*
X107168Y245085D01*
X106503Y245952D01*
X106338Y246078D01*
X106462Y246613D01*
X106491Y246619D01*
X106987Y246950D01*
X111711Y251675D01*
X112043Y252171D01*
X112159Y252756D01*
Y259996D01*
X116732Y264569D01*
X118112Y263190D01*
D02*
G37*
G36*
X168110Y239123D02*
X183515D01*
X183773Y238711D01*
X183767Y238622D01*
X183603Y237795D01*
X183613Y237744D01*
X182777Y236908D01*
X182445Y236412D01*
X182329Y235827D01*
Y234563D01*
X181776D01*
Y233869D01*
X181403Y233795D01*
X180907Y233463D01*
X180370Y232927D01*
X178054D01*
X177546Y233267D01*
X176772Y233421D01*
X173425D01*
X172651Y233267D01*
X171995Y232828D01*
X171556Y232172D01*
X171402Y231398D01*
X171556Y230623D01*
X171894Y230118D01*
X171556Y229613D01*
X171402Y228839D01*
X171556Y228064D01*
X171894Y227559D01*
X171556Y227054D01*
X171402Y226279D01*
X171556Y225505D01*
X171894Y225000D01*
X171556Y224495D01*
X171402Y223721D01*
X171556Y222946D01*
X171995Y222290D01*
X172651Y221851D01*
X173174Y221747D01*
Y218205D01*
X172976D01*
Y217929D01*
X167047D01*
X166927Y218108D01*
X166205Y218590D01*
X165354Y218759D01*
X164503Y218590D01*
X163782Y218108D01*
X163300Y217387D01*
X163130Y216535D01*
X163300Y215684D01*
X163782Y214963D01*
X164503Y214481D01*
X164562Y214469D01*
X165210Y214036D01*
X165984Y213882D01*
X172976D01*
Y212941D01*
X175197D01*
X177417D01*
Y213606D01*
Y218205D01*
X177220D01*
Y221786D01*
X177546Y221851D01*
X178202Y222290D01*
X178641Y222946D01*
X178751Y223498D01*
X179273Y223682D01*
X181596Y221359D01*
X182092Y221028D01*
X182677Y220912D01*
X189767D01*
X190047Y220411D01*
X189902Y219685D01*
X190071Y218834D01*
X190553Y218113D01*
X191055Y217777D01*
X190903Y217277D01*
X185433D01*
X184848Y217161D01*
X184352Y216829D01*
X177917Y210395D01*
X177417Y210602D01*
Y211941D01*
X175197D01*
X172976D01*
Y210142D01*
X172619Y209797D01*
X167169D01*
X159862Y217104D01*
X160108Y217565D01*
X160130Y217561D01*
Y219685D01*
X160630D01*
Y220185D01*
X162754D01*
X162685Y220536D01*
X162202Y221257D01*
X161481Y221740D01*
X160630Y221909D01*
X160584Y221900D01*
X160437Y222093D01*
X160336Y222360D01*
X160727Y222946D01*
X160782Y223220D01*
X157185D01*
Y224220D01*
X160782D01*
X160727Y224495D01*
X160390Y225000D01*
X160727Y225505D01*
X160881Y226279D01*
X160727Y227054D01*
X160390Y227559D01*
X160727Y228064D01*
X160881Y228839D01*
X160727Y229613D01*
X160390Y230118D01*
X160727Y230623D01*
X160881Y231398D01*
X160727Y232172D01*
X160289Y232828D01*
X159633Y233267D01*
X159110Y233371D01*
Y237543D01*
X159307D01*
Y237819D01*
X163767D01*
X163782Y237798D01*
X164503Y237316D01*
X165354Y237146D01*
X166205Y237316D01*
X166927Y237798D01*
X167409Y238519D01*
X167551Y239234D01*
X168110Y239123D01*
D02*
G37*
G36*
X280315Y319291D02*
Y304917D01*
X280229Y304788D01*
X280060Y303937D01*
X280229Y303086D01*
X280315Y302957D01*
Y267377D01*
X275996D01*
X275222Y267224D01*
X274566Y266785D01*
X274127Y266128D01*
X274014Y265560D01*
X273553Y265313D01*
X273492Y265306D01*
X273292Y265440D01*
X272441Y265610D01*
X271590Y265440D01*
X270868Y264958D01*
X270386Y264237D01*
X270217Y263386D01*
X270386Y262535D01*
X270868Y261813D01*
X270582Y261410D01*
X270495Y261342D01*
X269823Y261476D01*
X268972Y261307D01*
X268250Y260824D01*
X267768Y260103D01*
X267599Y259252D01*
Y259010D01*
X267047D01*
Y259252D01*
X266877Y260103D01*
X266395Y260824D01*
X266352Y260853D01*
Y263130D01*
X266236Y263715D01*
X265904Y264211D01*
X264467Y265648D01*
X263971Y265980D01*
X263386Y266096D01*
X260029D01*
X259929Y266599D01*
X259447Y267320D01*
X258725Y267803D01*
X257874Y267972D01*
X257023Y267803D01*
X256301Y267320D01*
X255820Y266599D01*
X255650Y265748D01*
X255820Y264897D01*
X256301Y264176D01*
X257023Y263693D01*
X257505Y263598D01*
X257580Y263486D01*
X258076Y263154D01*
X258661Y263037D01*
X262752D01*
X263294Y262496D01*
Y260853D01*
X263250Y260824D01*
X262768Y260103D01*
X262599Y259252D01*
Y255709D01*
X262768Y254858D01*
X263250Y254136D01*
X263294Y254107D01*
Y249315D01*
X262359Y248380D01*
X255145D01*
X255116Y248423D01*
X254394Y248905D01*
X253543Y249074D01*
X252692Y248905D01*
X251971Y248423D01*
X251942Y248380D01*
X231736D01*
X231396Y248719D01*
X230900Y249051D01*
X230315Y249167D01*
X228515D01*
X228383Y249667D01*
X228826Y250330D01*
X228837Y250386D01*
X230404Y251953D01*
X231906D01*
Y257350D01*
X232405Y257558D01*
X233367Y256596D01*
X233864Y256264D01*
X234449Y256148D01*
X235614D01*
Y254315D01*
X243126D01*
Y256148D01*
X246752D01*
X247337Y256264D01*
X247833Y256596D01*
X248407Y257169D01*
X250508D01*
Y260516D01*
Y264878D01*
X248407D01*
X247833Y265452D01*
X247337Y265783D01*
X246752Y265899D01*
X243126D01*
Y267732D01*
X235614D01*
Y265899D01*
X235082D01*
X233660Y267322D01*
X233164Y267653D01*
X232579Y267770D01*
X231906D01*
Y269307D01*
X231254D01*
Y272819D01*
X232004D01*
Y276817D01*
X233618D01*
X235926Y274509D01*
X236423Y274178D01*
X237008Y274061D01*
X254724D01*
X255310Y274178D01*
X255806Y274509D01*
X256839Y275542D01*
X256890Y275532D01*
X257741Y275701D01*
X258462Y276183D01*
X258944Y276905D01*
X259114Y277756D01*
X258944Y278607D01*
X258462Y279328D01*
X258419Y279357D01*
Y282480D01*
X258303Y283066D01*
X257971Y283562D01*
X254625Y286908D01*
X254129Y287240D01*
X253543Y287356D01*
X211414D01*
X211134Y287856D01*
X211279Y288583D01*
X211760Y288726D01*
X259951D01*
X260287Y288227D01*
X260281Y288197D01*
X264469D01*
X268656D01*
X268601Y288471D01*
X268264Y288976D01*
X268601Y289482D01*
X268755Y290256D01*
X268601Y291030D01*
X268264Y291535D01*
X268601Y292041D01*
X268755Y292815D01*
X268601Y293589D01*
X268264Y294094D01*
X268601Y294600D01*
X268755Y295374D01*
X268601Y296148D01*
X268264Y296654D01*
X268601Y297159D01*
X268755Y297933D01*
X268601Y298707D01*
X268264Y299213D01*
X268601Y299718D01*
X268755Y300492D01*
X268601Y301266D01*
X268264Y301772D01*
X268601Y302277D01*
X268755Y303051D01*
X268601Y303825D01*
X268264Y304331D01*
X268601Y304836D01*
X268755Y305610D01*
X268601Y306384D01*
X268264Y306890D01*
X268601Y307395D01*
X268755Y308169D01*
X268601Y308944D01*
X268264Y309449D01*
X268601Y309954D01*
X268755Y310728D01*
X268601Y311503D01*
X268163Y312159D01*
X267507Y312597D01*
X266732Y312752D01*
X266481D01*
X266338Y313471D01*
X265899Y314127D01*
X262848Y317179D01*
X262192Y317617D01*
X261417Y317771D01*
X257575D01*
Y317969D01*
X252311D01*
Y315748D01*
Y313528D01*
X253489D01*
Y312315D01*
X253457Y312268D01*
X253288Y311417D01*
X253457Y310566D01*
X253703Y310199D01*
X253436Y309699D01*
X204232D01*
X203647Y309582D01*
X203151Y309251D01*
X200688Y306787D01*
X197780D01*
Y305860D01*
X196768D01*
Y306413D01*
X192770D01*
Y306791D01*
X192653Y307377D01*
X192322Y307873D01*
X190845Y309349D01*
X190349Y309681D01*
X189764Y309797D01*
X189397D01*
X189368Y309840D01*
X188646Y310322D01*
X187795Y310492D01*
X186944Y310322D01*
X186223Y309840D01*
X185831Y309254D01*
X183564Y306987D01*
X183233Y306491D01*
X183116Y305906D01*
Y302673D01*
X182563D01*
Y302022D01*
X180807D01*
X180222Y301905D01*
X179726Y301574D01*
X178402Y300250D01*
X178054D01*
X177546Y300590D01*
X176772Y300744D01*
X173425D01*
X172651Y300590D01*
X171995Y300151D01*
X171556Y299495D01*
X171402Y298721D01*
X171556Y297946D01*
X171894Y297441D01*
X171556Y296936D01*
X171402Y296161D01*
X171556Y295387D01*
X171894Y294882D01*
X171556Y294377D01*
X171402Y293602D01*
X171556Y292828D01*
X171894Y292323D01*
X171556Y291817D01*
X171402Y291043D01*
X171556Y290269D01*
X171995Y289613D01*
X172651Y289174D01*
X173075Y289090D01*
Y286315D01*
X172976D01*
Y286039D01*
X165572D01*
X165354Y286082D01*
X164503Y285913D01*
X163782Y285431D01*
X163300Y284709D01*
X163130Y283858D01*
X163300Y283007D01*
X163782Y282286D01*
X164503Y281804D01*
X165354Y281634D01*
X166205Y281804D01*
X166488Y281993D01*
X172976D01*
Y281051D01*
X175197D01*
X177417D01*
Y281716D01*
Y286315D01*
X177121D01*
Y289090D01*
X177546Y289174D01*
X178202Y289613D01*
X178641Y290269D01*
X178795Y291043D01*
X178689Y291573D01*
X178730Y291640D01*
X179290Y291776D01*
X181989Y289076D01*
X182486Y288744D01*
X183071Y288628D01*
X191312D01*
X191341Y288585D01*
X192062Y288103D01*
X192913Y287934D01*
X193764Y288103D01*
X194486Y288585D01*
X194968Y289306D01*
X195137Y290158D01*
X195043Y290634D01*
X195492Y290934D01*
X195606Y290859D01*
X196457Y290690D01*
X197308Y290859D01*
X198029Y291341D01*
X198511Y292062D01*
X198680Y292913D01*
X198511Y293764D01*
X198428Y293889D01*
X198789Y294249D01*
X199149Y294008D01*
X200000Y293839D01*
X200851Y294008D01*
X201572Y294491D01*
X202055Y295212D01*
X202224Y296063D01*
X202055Y296914D01*
X201572Y297636D01*
X200851Y298117D01*
X200314Y298224D01*
X200363Y298724D01*
X202221D01*
Y300524D01*
X200000D01*
X197780D01*
Y298774D01*
X196768D01*
Y299327D01*
X189059D01*
Y298675D01*
X186728D01*
Y302673D01*
X186175D01*
Y305272D01*
X187088Y306185D01*
X187795Y306044D01*
X188559Y306196D01*
X188886Y306024D01*
X189059Y305888D01*
Y302248D01*
X196768D01*
Y302801D01*
X197780D01*
Y301524D01*
X200000D01*
X202221D01*
Y302189D01*
Y303995D01*
X204866Y306640D01*
X256932D01*
X256981Y306140D01*
X256236Y305992D01*
X255514Y305509D01*
X255032Y304788D01*
X254863Y303937D01*
X255032Y303086D01*
X255409Y302521D01*
X255196Y302022D01*
X206806D01*
X206756Y302055D01*
X205906Y302224D01*
X205054Y302055D01*
X204333Y301572D01*
X203851Y300851D01*
X203682Y300000D01*
X203851Y299149D01*
X204333Y298428D01*
X204673Y298201D01*
X204727Y297636D01*
X204245Y296914D01*
X204075Y296063D01*
X204245Y295212D01*
X204727Y294491D01*
X205448Y294008D01*
X206299Y293839D01*
X207150Y294008D01*
X207872Y294491D01*
X208354Y295212D01*
X208523Y296063D01*
X208875Y296404D01*
X256735D01*
X256784Y295904D01*
X256039Y295755D01*
X255317Y295273D01*
X254835Y294552D01*
X254666Y293701D01*
X254835Y292850D01*
X255212Y292285D01*
X254999Y291785D01*
X210728D01*
X210143Y291669D01*
X209647Y291337D01*
X209106Y290796D01*
X209055Y290807D01*
X208204Y290637D01*
X207483Y290155D01*
X207001Y289434D01*
X206831Y288583D01*
X206976Y287856D01*
X206696Y287356D01*
X201601D01*
X201572Y287399D01*
X200851Y287881D01*
X200000Y288051D01*
X199149Y287881D01*
X198427Y287399D01*
X198399Y287356D01*
X198031D01*
X197446Y287240D01*
X196950Y286908D01*
X187949Y277907D01*
X177775D01*
X177417Y278252D01*
Y280051D01*
X175197D01*
X172976D01*
Y278252D01*
X172619Y277907D01*
X167169D01*
X160924Y284152D01*
X160428Y284484D01*
X159843Y284600D01*
X158972D01*
Y285154D01*
X154974D01*
Y287106D01*
X154858Y287692D01*
X154526Y288188D01*
X153603Y289111D01*
X153641Y289372D01*
X153816Y289468D01*
X154172Y289552D01*
X154738Y289174D01*
X155512Y289020D01*
X156685D01*
Y291043D01*
X157185D01*
Y291543D01*
X160782D01*
X160727Y291817D01*
X160390Y292323D01*
X160727Y292828D01*
X160881Y293602D01*
X160727Y294377D01*
X160390Y294882D01*
X160727Y295387D01*
X160881Y296161D01*
X160727Y296936D01*
X160390Y297441D01*
X160727Y297946D01*
X160881Y298721D01*
X160727Y299495D01*
X160289Y300151D01*
X159633Y300590D01*
X159110Y300694D01*
Y305181D01*
X159307D01*
Y305457D01*
X163557D01*
X163782Y305120D01*
X164503Y304638D01*
X165354Y304469D01*
X166205Y304638D01*
X166927Y305120D01*
X167409Y305842D01*
X167578Y306693D01*
X167409Y307544D01*
X166927Y308265D01*
X166205Y308748D01*
X166150Y308758D01*
X165998Y308911D01*
X165341Y309349D01*
X164567Y309503D01*
X159307D01*
Y310445D01*
X154866D01*
Y308646D01*
Y305181D01*
X155063D01*
Y300654D01*
X154738Y300590D01*
X154081Y300151D01*
X153643Y299495D01*
X153489Y298721D01*
X153594Y298191D01*
X153258Y297691D01*
X141453D01*
Y298342D01*
X137287D01*
Y297691D01*
X126476D01*
X125891Y297574D01*
X125395Y297243D01*
X116832Y288680D01*
X116500Y288184D01*
X116384Y287598D01*
Y283480D01*
X116126D01*
Y282314D01*
X115655Y282220D01*
X115159Y281889D01*
X112359Y279088D01*
X100787D01*
X100202Y278972D01*
X99706Y278641D01*
X92226Y271160D01*
X91894Y270664D01*
X91778Y270079D01*
Y256752D01*
X91451Y256617D01*
X90584Y255952D01*
X89919Y255085D01*
X89500Y254075D01*
X89358Y252992D01*
X89500Y251909D01*
X89919Y250899D01*
X90584Y250033D01*
X91451Y249367D01*
X92460Y248949D01*
X93543Y248807D01*
X94627Y248949D01*
X95636Y249367D01*
X96503Y250033D01*
X97168Y250899D01*
X97586Y251909D01*
X97729Y252992D01*
X97586Y254075D01*
X97168Y255085D01*
X96503Y255952D01*
X95636Y256617D01*
X94836Y256948D01*
Y269445D01*
X101421Y276030D01*
X104710D01*
X104901Y275568D01*
X102462Y273129D01*
X102130Y272633D01*
X102014Y272047D01*
Y256850D01*
X101451Y256617D01*
X100584Y255952D01*
X99919Y255085D01*
X99501Y254075D01*
X99358Y252992D01*
X99501Y251909D01*
X99919Y250899D01*
X100562Y250061D01*
X100531Y249876D01*
X100424Y249561D01*
X98583D01*
X97997Y249445D01*
X97501Y249113D01*
X95190Y246802D01*
X94627Y247035D01*
X93543Y247178D01*
X92460Y247035D01*
X91451Y246617D01*
X90584Y245952D01*
X89919Y245085D01*
X89500Y244075D01*
X89358Y242992D01*
X89500Y241909D01*
X89919Y240899D01*
X90584Y240033D01*
X91451Y239368D01*
X92460Y238949D01*
X93543Y238807D01*
X94627Y238949D01*
X95636Y239368D01*
X96503Y240033D01*
X97168Y240899D01*
X97586Y241909D01*
X97729Y242992D01*
X97586Y244075D01*
X97353Y244639D01*
X99216Y246502D01*
X100523D01*
X100684Y246029D01*
X100584Y245952D01*
X99919Y245085D01*
X99501Y244075D01*
X99358Y242992D01*
X99501Y241909D01*
X99919Y240899D01*
X100584Y240033D01*
X100855Y239825D01*
X100685Y239325D01*
X98347D01*
X97761Y239208D01*
X97265Y238877D01*
X95190Y236802D01*
X94627Y237035D01*
X93543Y237177D01*
X92460Y237035D01*
X91451Y236617D01*
X90584Y235952D01*
X89919Y235085D01*
X89500Y234075D01*
X89358Y232992D01*
X89500Y231909D01*
X89919Y230899D01*
X90584Y230033D01*
X91451Y229367D01*
X92460Y228949D01*
X93543Y228807D01*
X94627Y228949D01*
X95636Y229367D01*
X96503Y230033D01*
X97168Y230899D01*
X97586Y231909D01*
X97729Y232992D01*
X97586Y234075D01*
X97353Y234639D01*
X98980Y236266D01*
X100204D01*
X100441Y235766D01*
X99919Y235085D01*
X99501Y234075D01*
X99358Y232992D01*
X99501Y231909D01*
X99919Y230899D01*
X100584Y230033D01*
X100684Y229956D01*
X100523Y229482D01*
X98032D01*
X97446Y229366D01*
X96950Y229034D01*
X94856Y226940D01*
X94627Y227035D01*
X93543Y227178D01*
X92460Y227035D01*
X91451Y226617D01*
X90584Y225952D01*
X89919Y225085D01*
X89500Y224075D01*
X89358Y222992D01*
X89500Y221909D01*
X89919Y220899D01*
X90584Y220033D01*
X91451Y219368D01*
X92460Y218949D01*
X93543Y218807D01*
X94627Y218949D01*
X95636Y219368D01*
X96503Y220033D01*
X97168Y220899D01*
X97586Y221909D01*
X97729Y222992D01*
X97586Y224075D01*
X97214Y224973D01*
X98665Y226423D01*
X100424D01*
X100531Y226108D01*
X100562Y225923D01*
X99919Y225085D01*
X99501Y224075D01*
X99358Y222992D01*
X99501Y221909D01*
X99919Y220899D01*
X100584Y220033D01*
X101451Y219368D01*
X102460Y218949D01*
X103543Y218807D01*
X104627Y218949D01*
X105078Y219137D01*
X107526Y216689D01*
Y215440D01*
X107026Y215270D01*
X106503Y215952D01*
X105636Y216617D01*
X104627Y217035D01*
X103543Y217178D01*
X102460Y217035D01*
X101451Y216617D01*
X100584Y215952D01*
X99919Y215085D01*
X99890Y215015D01*
X97197D01*
X97168Y215085D01*
X96503Y215952D01*
X95636Y216617D01*
X94627Y217035D01*
X93543Y217178D01*
X92460Y217035D01*
X91451Y216617D01*
X90584Y215952D01*
X89919Y215085D01*
X89500Y214075D01*
X89358Y212992D01*
X89500Y211909D01*
X89919Y210899D01*
X90584Y210033D01*
X91451Y209367D01*
X92460Y208949D01*
X93543Y208807D01*
X94627Y208949D01*
X95636Y209367D01*
X96503Y210033D01*
X97168Y210899D01*
X97197Y210969D01*
X99890D01*
X99919Y210899D01*
X100584Y210033D01*
X101451Y209367D01*
X102460Y208949D01*
X103152Y208858D01*
X104447Y207563D01*
X104214Y207089D01*
X103543Y207177D01*
X102460Y207035D01*
X101451Y206617D01*
X100584Y205952D01*
X99919Y205085D01*
X99890Y205015D01*
X97197D01*
X97168Y205085D01*
X96503Y205952D01*
X95636Y206617D01*
X94627Y207035D01*
X93543Y207177D01*
X92460Y207035D01*
X91451Y206617D01*
X90584Y205952D01*
X89919Y205085D01*
X89500Y204075D01*
X89358Y202992D01*
X89500Y201909D01*
X89919Y200899D01*
X90584Y200033D01*
X91451Y199367D01*
X92460Y198949D01*
X93543Y198807D01*
X94627Y198949D01*
X95636Y199367D01*
X96503Y200033D01*
X97168Y200899D01*
X97197Y200969D01*
X99890D01*
X99919Y200899D01*
X100584Y200033D01*
X101451Y199367D01*
X102460Y198949D01*
X103543Y198807D01*
X104627Y198949D01*
X105023Y199114D01*
X106738Y197398D01*
Y196457D01*
X106751Y196391D01*
X106298Y196109D01*
X105636Y196617D01*
X104627Y197035D01*
X103543Y197178D01*
X102460Y197035D01*
X101451Y196617D01*
X100584Y195952D01*
X99919Y195085D01*
X99890Y195015D01*
X97197D01*
X97168Y195085D01*
X96503Y195952D01*
X95636Y196617D01*
X94627Y197035D01*
X93543Y197178D01*
X92460Y197035D01*
X91451Y196617D01*
X90584Y195952D01*
X89919Y195085D01*
X89500Y194075D01*
X89358Y192992D01*
X89500Y191909D01*
X89919Y190899D01*
X90584Y190033D01*
X91451Y189367D01*
X92460Y188949D01*
X93543Y188807D01*
X94627Y188949D01*
X95636Y189367D01*
X96503Y190033D01*
X97168Y190899D01*
X97197Y190969D01*
X99890D01*
X99919Y190899D01*
X100584Y190033D01*
X101451Y189367D01*
X102460Y188949D01*
X103543Y188807D01*
X104627Y188949D01*
X104696Y188978D01*
X108213Y185461D01*
Y183144D01*
X107713Y183111D01*
X107682Y183351D01*
X107586Y184075D01*
X107168Y185085D01*
X106503Y185952D01*
X105636Y186617D01*
X104627Y187035D01*
X104043Y187112D01*
Y182992D01*
Y178873D01*
X104627Y178949D01*
X105636Y179367D01*
X106503Y180033D01*
X107168Y180899D01*
X107586Y181909D01*
X107682Y182634D01*
X107713Y182873D01*
X108213Y182841D01*
Y174803D01*
X108367Y174029D01*
X108806Y173373D01*
X109275Y172903D01*
X109084Y172441D01*
X96063D01*
X95262Y173241D01*
X87795Y180709D01*
X87795Y298031D01*
X114173Y324409D01*
X275197Y324410D01*
X280315Y319291D01*
D02*
G37*
%LPC*%
G36*
X271547Y249762D02*
X271196Y249692D01*
X270475Y249210D01*
X269993Y248489D01*
X269923Y248138D01*
X271547D01*
Y249762D01*
D02*
G37*
G36*
X272547D02*
Y248138D01*
X274172D01*
X274102Y248489D01*
X273620Y249210D01*
X272898Y249692D01*
X272547Y249762D01*
D02*
G37*
G36*
X271547Y247138D02*
X269923D01*
X269993Y246787D01*
X270475Y246065D01*
X271196Y245583D01*
X271547Y245513D01*
Y247138D01*
D02*
G37*
G36*
X274172D02*
X272547D01*
Y245513D01*
X272898Y245583D01*
X273620Y246065D01*
X274102Y246787D01*
X274172Y247138D01*
D02*
G37*
G36*
X274323Y240117D02*
X273972Y240047D01*
X273250Y239565D01*
X272768Y238843D01*
X272599Y237992D01*
Y236720D01*
X274323D01*
Y240117D01*
D02*
G37*
G36*
X275323Y240117D02*
Y236720D01*
X277047D01*
Y237992D01*
X276877Y238843D01*
X276395Y239565D01*
X275674Y240047D01*
X275323Y240117D01*
D02*
G37*
G36*
X274323Y235720D02*
X272599D01*
Y234449D01*
X272768Y233598D01*
X273250Y232876D01*
X273972Y232394D01*
X274323Y232324D01*
Y235720D01*
D02*
G37*
G36*
X277047D02*
X275323D01*
Y232324D01*
X275674Y232394D01*
X276395Y232876D01*
X276877Y233598D01*
X277047Y234449D01*
Y235720D01*
D02*
G37*
G36*
X151469Y208555D02*
X149844D01*
X149914Y208204D01*
X150396Y207483D01*
X151118Y207001D01*
X151469Y206931D01*
Y208555D01*
D02*
G37*
G36*
X154093D02*
X152469D01*
Y206931D01*
X152820Y207001D01*
X153541Y207483D01*
X154023Y208204D01*
X154093Y208555D01*
D02*
G37*
G36*
X156587Y211512D02*
X154866D01*
Y209713D01*
X156587D01*
Y211512D01*
D02*
G37*
G36*
X159307D02*
X157587D01*
Y209713D01*
X159307D01*
Y211512D01*
D02*
G37*
G36*
X151469Y211179D02*
X151118Y211110D01*
X150396Y210628D01*
X149914Y209906D01*
X149844Y209555D01*
X151469D01*
Y211179D01*
D02*
G37*
G36*
X152469D02*
Y209555D01*
X154093D01*
X154023Y209906D01*
X153541Y210628D01*
X152820Y211110D01*
X152469Y211179D01*
D02*
G37*
G36*
X203437Y227453D02*
X201813D01*
X201883Y227102D01*
X202364Y226380D01*
X203086Y225898D01*
X203437Y225828D01*
Y227453D01*
D02*
G37*
G36*
X206061D02*
X204437D01*
Y225828D01*
X204788Y225898D01*
X205509Y226380D01*
X205992Y227102D01*
X206061Y227453D01*
D02*
G37*
G36*
X204437Y230077D02*
Y228453D01*
X206061D01*
X205992Y228804D01*
X205509Y229525D01*
X204788Y230007D01*
X204437Y230077D01*
D02*
G37*
G36*
X203008Y230839D02*
X201287D01*
Y229039D01*
X201484D01*
X201830Y228539D01*
X201813Y228453D01*
X203437D01*
Y230149D01*
X203008Y230502D01*
Y230839D01*
D02*
G37*
G36*
X202650Y265484D02*
X200929D01*
Y263685D01*
X202650D01*
Y265484D01*
D02*
G37*
G36*
X205370D02*
X203650D01*
Y263685D01*
X205370D01*
Y265484D01*
D02*
G37*
G36*
X179815Y253831D02*
X178191D01*
X178260Y253480D01*
X178743Y252758D01*
X179464Y252276D01*
X179815Y252206D01*
Y253831D01*
D02*
G37*
G36*
Y256455D02*
X179464Y256385D01*
X178743Y255903D01*
X178260Y255182D01*
X178191Y254831D01*
X179815D01*
Y256455D01*
D02*
G37*
G36*
X187164Y253831D02*
X185539D01*
Y252206D01*
X185890Y252276D01*
X186612Y252758D01*
X187094Y253480D01*
X187164Y253831D01*
D02*
G37*
G36*
X203402Y196193D02*
X201681D01*
Y194394D01*
X203402D01*
Y196193D01*
D02*
G37*
G36*
X200681D02*
X198961D01*
Y194394D01*
X200681D01*
Y196193D01*
D02*
G37*
G36*
X163542Y185327D02*
X161917D01*
Y183702D01*
X162268Y183772D01*
X162990Y184254D01*
X163472Y184976D01*
X163542Y185327D01*
D02*
G37*
G36*
X160782Y188969D02*
X157685D01*
Y187445D01*
X158858D01*
X159338Y187541D01*
X159639Y187091D01*
X159363Y186678D01*
X159293Y186327D01*
X160917D01*
Y187951D01*
X160819Y187932D01*
X160519Y188382D01*
X160727Y188694D01*
X160782Y188969D01*
D02*
G37*
G36*
X160917Y185327D02*
X159293D01*
X159363Y184976D01*
X159845Y184254D01*
X160566Y183772D01*
X160917Y183702D01*
Y185327D01*
D02*
G37*
G36*
X161917Y187951D02*
Y186327D01*
X163542D01*
X163472Y186678D01*
X162990Y187399D01*
X162268Y187881D01*
X161917Y187951D01*
D02*
G37*
G36*
X156685Y188969D02*
X153588D01*
X153643Y188694D01*
X154081Y188038D01*
X154738Y187599D01*
X155512Y187445D01*
X156685D01*
Y188969D01*
D02*
G37*
G36*
Y258653D02*
X153588D01*
X153643Y258379D01*
X154081Y257723D01*
X154738Y257284D01*
X155512Y257130D01*
X156685D01*
Y258653D01*
D02*
G37*
G36*
X160782D02*
X157685D01*
Y257130D01*
X158617D01*
X158754Y256985D01*
X158937Y256692D01*
X158946Y256642D01*
X158899Y256405D01*
X163148D01*
X163078Y256756D01*
X162596Y257478D01*
X161875Y257960D01*
X161144Y258105D01*
X160976Y258216D01*
X160769Y258589D01*
X160782Y258653D01*
D02*
G37*
G36*
X369972Y149894D02*
X366504D01*
X366575Y149349D01*
X366978Y148376D01*
X367620Y147541D01*
X368455Y146900D01*
X369428Y146497D01*
X369972Y146425D01*
Y149894D01*
D02*
G37*
G36*
Y154362D02*
X369428Y154291D01*
X368455Y153888D01*
X367620Y153246D01*
X366978Y152411D01*
X366575Y151438D01*
X366504Y150894D01*
X369972D01*
Y154362D01*
D02*
G37*
G36*
X322063Y118398D02*
X318898D01*
X315732D01*
Y116717D01*
Y112976D01*
X322063D01*
Y116717D01*
Y118398D01*
D02*
G37*
G36*
X311827Y117339D02*
X305496D01*
Y112976D01*
X311827D01*
Y117339D01*
D02*
G37*
G36*
X335720Y118634D02*
X334000D01*
Y116835D01*
X335720D01*
Y118634D01*
D02*
G37*
G36*
X338441D02*
X336720D01*
Y116835D01*
X338441D01*
Y118634D01*
D02*
G37*
G36*
X331354D02*
X329634D01*
Y116835D01*
X331354D01*
Y118634D01*
D02*
G37*
G36*
X328634D02*
X326913D01*
Y116835D01*
X328634D01*
Y118634D01*
D02*
G37*
G36*
X240961Y111311D02*
X238886D01*
Y109236D01*
X240961D01*
Y111311D01*
D02*
G37*
G36*
X237886D02*
X235811D01*
Y109236D01*
X237886D01*
Y111311D01*
D02*
G37*
G36*
X224303Y108949D02*
X222679D01*
X222749Y108598D01*
X223231Y107876D01*
X223952Y107394D01*
X224303Y107325D01*
Y108949D01*
D02*
G37*
G36*
X226927D02*
X225303D01*
Y107325D01*
X225654Y107394D01*
X226376Y107876D01*
X226858Y108598D01*
X226927Y108949D01*
D02*
G37*
G36*
X237886Y114386D02*
X235811D01*
Y112311D01*
X237886D01*
Y114386D01*
D02*
G37*
G36*
X240961D02*
X238886D01*
Y112311D01*
X240961D01*
Y114386D01*
D02*
G37*
G36*
X225303Y111573D02*
Y109949D01*
X226927D01*
X226858Y110300D01*
X226376Y111021D01*
X225654Y111503D01*
X225303Y111573D01*
D02*
G37*
G36*
X224303D02*
X223952Y111503D01*
X223231Y111021D01*
X222749Y110300D01*
X222679Y109949D01*
X224303D01*
Y111573D01*
D02*
G37*
G36*
X293201Y118634D02*
X291480D01*
Y116835D01*
X293201D01*
Y118634D01*
D02*
G37*
G36*
X301827D02*
X300106D01*
Y116835D01*
X301827D01*
Y118634D01*
D02*
G37*
G36*
X295921D02*
X294201D01*
Y116835D01*
X295921D01*
Y118634D01*
D02*
G37*
G36*
X299106D02*
X297386D01*
Y116835D01*
X299106D01*
Y118634D01*
D02*
G37*
G36*
X285539Y272203D02*
Y270579D01*
X287164D01*
X287094Y270930D01*
X286612Y271651D01*
X285890Y272133D01*
X285539Y272203D01*
D02*
G37*
G36*
X284539D02*
X284188Y272133D01*
X283467Y271651D01*
X282985Y270930D01*
X282915Y270579D01*
X284539D01*
Y272203D01*
D02*
G37*
G36*
X315961Y246374D02*
X310221D01*
Y244641D01*
X307988D01*
Y244799D01*
X303823D01*
Y244641D01*
X295432D01*
X295273Y244880D01*
X294552Y245362D01*
X293701Y245531D01*
X292850Y245362D01*
X292128Y244880D01*
X291646Y244158D01*
X291477Y243307D01*
X291646Y242456D01*
X292128Y241735D01*
X292850Y241252D01*
X292905Y241242D01*
X292959Y241188D01*
X293616Y240749D01*
X294304Y240612D01*
X294255Y240112D01*
X290971D01*
X290943Y240155D01*
X290221Y240637D01*
X289370Y240807D01*
X288519Y240637D01*
X287798Y240155D01*
X287316Y239434D01*
X287146Y238583D01*
X287316Y237732D01*
X287798Y237010D01*
X288519Y236528D01*
X289370Y236359D01*
X290221Y236528D01*
X290943Y237010D01*
X290971Y237053D01*
X302756D01*
X303323Y237166D01*
X303618Y237200D01*
X303823Y237090D01*
Y237090D01*
X305924D01*
X307088Y235926D01*
X307584Y235595D01*
X308169Y235478D01*
X310221D01*
Y234728D01*
X315961D01*
Y239287D01*
X310221D01*
Y238537D01*
X308803D01*
X307988Y239352D01*
Y240595D01*
X311614D01*
X312388Y240749D01*
X313045Y241188D01*
X313672Y241815D01*
X315961D01*
Y246374D01*
D02*
G37*
G36*
X346169Y197006D02*
Y195382D01*
X347794D01*
X347724Y195733D01*
X347242Y196454D01*
X346520Y196936D01*
X346169Y197006D01*
D02*
G37*
G36*
X345169D02*
X344818Y196936D01*
X344097Y196454D01*
X343615Y195733D01*
X343545Y195382D01*
X345169D01*
Y197006D01*
D02*
G37*
G36*
Y194382D02*
X343545D01*
X343615Y194031D01*
X344097Y193309D01*
X344818Y192827D01*
X345169Y192757D01*
Y194382D01*
D02*
G37*
G36*
X347794D02*
X346169D01*
Y192757D01*
X346520Y192827D01*
X347242Y193309D01*
X347724Y194031D01*
X347794Y194382D01*
D02*
G37*
G36*
X332791Y194405D02*
X328626D01*
Y190112D01*
X325311D01*
Y190862D01*
X319571D01*
Y186303D01*
X325311D01*
Y187053D01*
X328626D01*
Y186697D01*
X332791D01*
Y187349D01*
X338064D01*
X338093Y187305D01*
X338814Y186823D01*
X339665Y186654D01*
X340516Y186823D01*
X341238Y187305D01*
X341720Y188027D01*
X341889Y188878D01*
X341720Y189729D01*
X341238Y190450D01*
X340516Y190933D01*
X339665Y191102D01*
X338814Y190933D01*
X338513Y190731D01*
X338153Y191092D01*
X338275Y191275D01*
X338444Y192126D01*
X338275Y192977D01*
X337793Y193699D01*
X337071Y194181D01*
X336221Y194350D01*
X335369Y194181D01*
X335322Y194149D01*
X332791D01*
Y194405D01*
D02*
G37*
G36*
Y245980D02*
X328626D01*
Y242081D01*
X325213D01*
Y242831D01*
X319472D01*
Y238272D01*
X325213D01*
Y239022D01*
X328626D01*
Y238272D01*
X332791D01*
Y238786D01*
X366472D01*
Y236394D01*
X374472D01*
Y244394D01*
X366472D01*
Y241844D01*
X338199D01*
X337937Y242344D01*
X338275Y242850D01*
X338444Y243701D01*
X338275Y244552D01*
X337793Y245273D01*
X337071Y245755D01*
X336221Y245925D01*
X335369Y245755D01*
X335322Y245724D01*
X332791D01*
Y245980D01*
D02*
G37*
G36*
X370472Y224428D02*
X369428Y224291D01*
X368455Y223888D01*
X367620Y223247D01*
X366978Y222411D01*
X366776Y221923D01*
X364252D01*
Y221925D01*
X363636Y221802D01*
X363114Y221453D01*
X363044Y221348D01*
X348476Y206781D01*
X348425Y206791D01*
X347574Y206622D01*
X346853Y206139D01*
X346371Y205418D01*
X346201Y204567D01*
X346371Y203716D01*
X346853Y202994D01*
X347574Y202512D01*
X348425Y202343D01*
X349276Y202512D01*
X349998Y202994D01*
X350480Y203716D01*
X350649Y204567D01*
X350639Y204618D01*
X364885Y218864D01*
X366776D01*
X366978Y218376D01*
X367620Y217541D01*
X368455Y216900D01*
X369428Y216497D01*
X370472Y216359D01*
X371517Y216497D01*
X372490Y216900D01*
X373325Y217541D01*
X373966Y218376D01*
X374370Y219350D01*
X374507Y220394D01*
X374370Y221438D01*
X373966Y222411D01*
X373325Y223247D01*
X372490Y223888D01*
X371517Y224291D01*
X370472Y224428D01*
D02*
G37*
G36*
X315862Y221571D02*
X310122D01*
Y219838D01*
X308382D01*
Y219996D01*
X306949D01*
X306384Y220373D01*
X305610Y220527D01*
X294599D01*
X294552Y220559D01*
X293701Y220728D01*
X292850Y220559D01*
X292128Y220076D01*
X291646Y219355D01*
X291477Y218504D01*
X291646Y217653D01*
X292128Y216931D01*
X292630Y216596D01*
X292478Y216096D01*
X287428D01*
X287399Y216139D01*
X286678Y216621D01*
X285827Y216791D01*
X284976Y216621D01*
X284254Y216139D01*
X283772Y215418D01*
X283603Y214567D01*
X283772Y213716D01*
X284254Y212994D01*
X284976Y212512D01*
X285827Y212343D01*
X286678Y212512D01*
X287399Y212994D01*
X287428Y213037D01*
X304217D01*
Y212287D01*
X308382D01*
Y212939D01*
X309701D01*
X310122Y212518D01*
Y209925D01*
X315862D01*
Y214484D01*
X312482D01*
X311656Y215310D01*
X311821Y215852D01*
X312290Y215946D01*
X312946Y216384D01*
X313574Y217012D01*
X315862D01*
Y221571D01*
D02*
G37*
G36*
X370472Y234428D02*
X369428Y234291D01*
X368455Y233888D01*
X367620Y233246D01*
X366978Y232411D01*
X366744Y231844D01*
X354724D01*
X354139Y231728D01*
X353643Y231396D01*
X339819Y217573D01*
X338297D01*
X338029Y218073D01*
X338275Y218440D01*
X338444Y219291D01*
X338275Y220142D01*
X337793Y220864D01*
X337071Y221346D01*
X336221Y221515D01*
X335369Y221346D01*
X335322Y221315D01*
X332791D01*
Y221571D01*
X328626D01*
Y217277D01*
X325114D01*
Y218027D01*
X319374D01*
Y213469D01*
X325114D01*
Y214219D01*
X328626D01*
Y213862D01*
X332791D01*
Y214514D01*
X340453D01*
X341038Y214630D01*
X341534Y214962D01*
X355358Y228786D01*
X366809D01*
X366978Y228376D01*
X367620Y227541D01*
X368455Y226900D01*
X369428Y226497D01*
X370472Y226359D01*
X371517Y226497D01*
X372490Y226900D01*
X373325Y227541D01*
X373966Y228376D01*
X374370Y229349D01*
X374507Y230394D01*
X374370Y231438D01*
X373966Y232411D01*
X373325Y233246D01*
X372490Y233888D01*
X371517Y234291D01*
X370472Y234428D01*
D02*
G37*
G36*
X95957Y140734D02*
X95373Y140657D01*
X94364Y140239D01*
X93497Y139574D01*
X92832Y138707D01*
X92414Y137697D01*
X92337Y137114D01*
X95957D01*
Y140734D01*
D02*
G37*
G36*
X150031Y144841D02*
X149680Y144771D01*
X148959Y144289D01*
X148477Y143568D01*
X148308Y142717D01*
Y141445D01*
X150031D01*
Y144841D01*
D02*
G37*
G36*
X151031D02*
Y141445D01*
X152755D01*
Y142717D01*
X152586Y143568D01*
X152104Y144289D01*
X151383Y144771D01*
X151031Y144841D01*
D02*
G37*
G36*
X152755Y140445D02*
X151031D01*
Y137049D01*
X151383Y137119D01*
X152104Y137601D01*
X152586Y138322D01*
X152755Y139173D01*
Y140445D01*
D02*
G37*
G36*
X96957Y140734D02*
Y137114D01*
X100576D01*
X100499Y137697D01*
X100081Y138707D01*
X99416Y139574D01*
X98549Y140239D01*
X97540Y140657D01*
X96957Y140734D01*
D02*
G37*
G36*
X150031Y140445D02*
X148308D01*
Y139173D01*
X148477Y138322D01*
X148959Y137601D01*
X149680Y137119D01*
X150031Y137049D01*
Y140445D01*
D02*
G37*
G36*
X138386Y157322D02*
X134843D01*
X133992Y157153D01*
X133270Y156671D01*
X132788Y155949D01*
X132619Y155098D01*
X132788Y154247D01*
X133270Y153526D01*
X133992Y153044D01*
X134843Y152875D01*
X138386D01*
X139237Y153044D01*
X139958Y153526D01*
X140440Y154247D01*
X140610Y155098D01*
X140440Y155949D01*
X139958Y156671D01*
X139237Y157153D01*
X138386Y157322D01*
D02*
G37*
G36*
X159646D02*
X156102D01*
X155251Y157153D01*
X155204Y157122D01*
X154311D01*
X153537Y156967D01*
X152881Y156529D01*
X144101Y147749D01*
X143662Y147093D01*
X143508Y146319D01*
Y143615D01*
X143477Y143568D01*
X143308Y142717D01*
Y139173D01*
X143477Y138322D01*
X143959Y137601D01*
X144681Y137119D01*
X145531Y136949D01*
X146382Y137119D01*
X147104Y137601D01*
X147586Y138322D01*
X147755Y139173D01*
Y142717D01*
X147586Y143568D01*
X147555Y143615D01*
Y145481D01*
X155149Y153075D01*
X155204D01*
X155251Y153044D01*
X156102Y152875D01*
X159646D01*
X160497Y153044D01*
X161218Y153526D01*
X161700Y154247D01*
X161870Y155098D01*
X161700Y155949D01*
X161218Y156671D01*
X160497Y157153D01*
X159646Y157322D01*
D02*
G37*
G36*
X120095Y163854D02*
X114354D01*
Y162121D01*
X103405D01*
X102631Y161968D01*
X101975Y161529D01*
X95026Y154580D01*
X94588Y153924D01*
X94434Y153150D01*
Y150268D01*
X94364Y150239D01*
X93497Y149574D01*
X92832Y148707D01*
X92414Y147697D01*
X92271Y146614D01*
X92414Y145531D01*
X92832Y144521D01*
X93497Y143655D01*
X94364Y142990D01*
X95373Y142571D01*
X96457Y142429D01*
X97540Y142571D01*
X98549Y142990D01*
X99416Y143655D01*
X100081Y144521D01*
X100499Y145531D01*
X100642Y146614D01*
X100499Y147697D01*
X100081Y148707D01*
X99416Y149574D01*
X98549Y150239D01*
X98480Y150268D01*
Y152312D01*
X104244Y158075D01*
X114354D01*
Y156342D01*
X120095D01*
Y163854D01*
D02*
G37*
G36*
X159646Y167322D02*
X156102D01*
X155251Y167153D01*
X155204Y167122D01*
X139284D01*
X139237Y167153D01*
X138386Y167322D01*
X134843D01*
X133992Y167153D01*
X133270Y166671D01*
X132788Y165949D01*
X132619Y165098D01*
X132788Y164247D01*
X133270Y163526D01*
X133992Y163044D01*
X134843Y162875D01*
X138386D01*
X139237Y163044D01*
X139284Y163075D01*
X155204D01*
X155251Y163044D01*
X155851Y162925D01*
Y162272D01*
X155251Y162153D01*
X155204Y162121D01*
X139284D01*
X139237Y162153D01*
X138386Y162322D01*
X134843D01*
X133992Y162153D01*
X133944Y162121D01*
X127378D01*
Y163854D01*
X121638D01*
Y156342D01*
X127378D01*
Y158075D01*
X133944D01*
X133992Y158044D01*
X134843Y157875D01*
X138386D01*
X139237Y158044D01*
X139284Y158075D01*
X142071D01*
Y153988D01*
X139101Y151017D01*
X138662Y150361D01*
X138508Y149587D01*
Y143615D01*
X138477Y143568D01*
X138308Y142717D01*
Y139173D01*
X138477Y138322D01*
X138959Y137601D01*
X139681Y137119D01*
X140532Y136949D01*
X141383Y137119D01*
X142104Y137601D01*
X142586Y138322D01*
X142755Y139173D01*
Y142717D01*
X142586Y143568D01*
X142555Y143615D01*
Y148749D01*
X145525Y151719D01*
X145964Y152375D01*
X146118Y153150D01*
Y158075D01*
X155204D01*
X155251Y158044D01*
X156102Y157875D01*
X159646D01*
X160497Y158044D01*
X161218Y158526D01*
X161700Y159247D01*
X161870Y160098D01*
X161700Y160949D01*
X161218Y161671D01*
X160497Y162153D01*
X159897Y162272D01*
Y162925D01*
X160497Y163044D01*
X161218Y163526D01*
X161700Y164247D01*
X161870Y165098D01*
X161700Y165949D01*
X161218Y166671D01*
X160497Y167153D01*
X159646Y167322D01*
D02*
G37*
G36*
X145531Y123680D02*
X144681Y123511D01*
X143959Y123029D01*
X143477Y122308D01*
X143308Y121457D01*
Y117913D01*
X143477Y117062D01*
X143959Y116341D01*
X144681Y115859D01*
X145531Y115690D01*
X146382Y115859D01*
X147104Y116341D01*
X147586Y117062D01*
X147755Y117913D01*
Y121457D01*
X147586Y122308D01*
X147104Y123029D01*
X146382Y123511D01*
X145531Y123680D01*
D02*
G37*
G36*
X207571Y114386D02*
X205496D01*
Y112311D01*
X207571D01*
Y114386D01*
D02*
G37*
G36*
X210646D02*
X208571D01*
Y112311D01*
X210646D01*
Y114386D01*
D02*
G37*
G36*
X150531Y123680D02*
X149680Y123511D01*
X148959Y123029D01*
X148477Y122308D01*
X148308Y121457D01*
Y117913D01*
X148477Y117062D01*
X148959Y116341D01*
X149680Y115859D01*
X150531Y115690D01*
X151383Y115859D01*
X152104Y116341D01*
X152586Y117062D01*
X152755Y117913D01*
Y121457D01*
X152586Y122308D01*
X152104Y123029D01*
X151383Y123511D01*
X150531Y123680D01*
D02*
G37*
G36*
X207571Y111311D02*
X205496D01*
Y109236D01*
X207571D01*
Y111311D01*
D02*
G37*
G36*
X210646D02*
X208571D01*
Y109236D01*
X210646D01*
Y111311D01*
D02*
G37*
G36*
X95957Y136114D02*
X92337D01*
X92414Y135531D01*
X92832Y134521D01*
X93497Y133655D01*
X94364Y132990D01*
X95373Y132571D01*
X95957Y132495D01*
Y136114D01*
D02*
G37*
G36*
X100576D02*
X96957D01*
Y132495D01*
X97540Y132571D01*
X98549Y132990D01*
X99416Y133655D01*
X100081Y134521D01*
X100499Y135531D01*
X100576Y136114D01*
D02*
G37*
G36*
X240961Y125803D02*
X238886D01*
Y123728D01*
X240961D01*
Y125803D01*
D02*
G37*
G36*
X237886Y122728D02*
X235811D01*
Y120653D01*
X237886D01*
Y122728D01*
D02*
G37*
G36*
X240961D02*
X238886D01*
Y120653D01*
X240961D01*
Y122728D01*
D02*
G37*
G36*
X224909Y125353D02*
Y123728D01*
X226534D01*
X226464Y124079D01*
X225982Y124801D01*
X225260Y125283D01*
X224909Y125353D01*
D02*
G37*
G36*
X237886Y125803D02*
X235811D01*
Y123728D01*
X237886D01*
Y125803D01*
D02*
G37*
G36*
X223909Y125353D02*
X223558Y125283D01*
X222837Y124801D01*
X222355Y124079D01*
X222285Y123728D01*
X223909D01*
Y125353D01*
D02*
G37*
G36*
Y122728D02*
X222285D01*
X222355Y122377D01*
X222837Y121656D01*
X223558Y121174D01*
X223909Y121104D01*
Y122728D01*
D02*
G37*
G36*
X226534D02*
X224909D01*
Y121104D01*
X225260Y121174D01*
X225982Y121656D01*
X226464Y122377D01*
X226534Y122728D01*
D02*
G37*
G36*
X338441Y137925D02*
X336720D01*
Y136126D01*
X338441D01*
Y137925D01*
D02*
G37*
G36*
X284014Y146350D02*
X282390D01*
Y144726D01*
X282741Y144796D01*
X283462Y145278D01*
X283944Y145999D01*
X284014Y146350D01*
D02*
G37*
G36*
X281390D02*
X279765D01*
X279835Y145999D01*
X280317Y145278D01*
X281039Y144796D01*
X281390Y144726D01*
Y146350D01*
D02*
G37*
G36*
X335720Y137925D02*
X334000D01*
Y136126D01*
X335720D01*
Y137925D01*
D02*
G37*
G36*
X331354D02*
X329634D01*
Y136126D01*
X331354D01*
Y137925D01*
D02*
G37*
G36*
X322063Y137689D02*
X318898D01*
X315732D01*
Y136008D01*
Y132268D01*
X322063D01*
Y136008D01*
Y137689D01*
D02*
G37*
G36*
X311827Y136630D02*
X305496D01*
Y132268D01*
X311827D01*
Y136630D01*
D02*
G37*
G36*
X295921Y137925D02*
X294201D01*
Y136126D01*
X295921D01*
Y137925D01*
D02*
G37*
G36*
X328634Y137925D02*
X326913D01*
Y136126D01*
X328634D01*
Y137925D01*
D02*
G37*
G36*
X293201Y137925D02*
X291480D01*
Y136126D01*
X293201D01*
Y137925D01*
D02*
G37*
G36*
X299106Y137768D02*
X297386D01*
Y135968D01*
X299106D01*
Y137768D01*
D02*
G37*
G36*
X301827D02*
X300106D01*
Y135968D01*
X301827D01*
Y137768D01*
D02*
G37*
G36*
X151469Y276665D02*
X149844D01*
X149914Y276314D01*
X150396Y275593D01*
X151118Y275111D01*
X151469Y275041D01*
Y276665D01*
D02*
G37*
G36*
X125697Y291494D02*
Y289870D01*
X127321D01*
X127251Y290221D01*
X126769Y290943D01*
X126048Y291425D01*
X125697Y291494D01*
D02*
G37*
G36*
X127321Y288870D02*
X125697D01*
Y287246D01*
X126048Y287316D01*
X126769Y287798D01*
X127251Y288519D01*
X127321Y288870D01*
D02*
G37*
G36*
X124697D02*
X123073D01*
X123142Y288519D01*
X123624Y287798D01*
X124346Y287316D01*
X124697Y287246D01*
Y288870D01*
D02*
G37*
G36*
X152469Y279290D02*
Y277665D01*
X154093D01*
X154023Y278016D01*
X153541Y278738D01*
X152820Y279220D01*
X152469Y279290D01*
D02*
G37*
G36*
X156587Y279622D02*
X154866D01*
Y277823D01*
X156587D01*
Y279622D01*
D02*
G37*
G36*
X154093Y276665D02*
X152469D01*
Y275041D01*
X152820Y275111D01*
X153541Y275593D01*
X154023Y276314D01*
X154093Y276665D01*
D02*
G37*
G36*
X151469Y279290D02*
X151118Y279220D01*
X150396Y278738D01*
X149914Y278016D01*
X149844Y277665D01*
X151469D01*
Y279290D01*
D02*
G37*
G36*
X159307Y279622D02*
X157587D01*
Y277823D01*
X159307D01*
Y279622D01*
D02*
G37*
G36*
X284539Y293857D02*
X284188Y293787D01*
X283467Y293305D01*
X282985Y292583D01*
X282915Y292232D01*
X284539D01*
Y293857D01*
D02*
G37*
G36*
X285539D02*
Y292232D01*
X287164D01*
X287094Y292583D01*
X286612Y293305D01*
X285890Y293787D01*
X285539Y293857D01*
D02*
G37*
G36*
X276886Y174819D02*
X275303D01*
Y173138D01*
X276886D01*
Y174819D01*
D02*
G37*
G36*
X284110Y174898D02*
X282390D01*
Y173098D01*
X284110D01*
Y174898D01*
D02*
G37*
G36*
X274303Y174819D02*
X272721D01*
Y173138D01*
X274303D01*
Y174819D01*
D02*
G37*
G36*
X281390Y174898D02*
X279669D01*
Y173098D01*
X281390D01*
Y174898D01*
D02*
G37*
G36*
X271941Y152650D02*
X270317D01*
X270386Y152299D01*
X270868Y151577D01*
X271590Y151095D01*
X271941Y151025D01*
Y152650D01*
D02*
G37*
G36*
Y155274D02*
X271590Y155204D01*
X270868Y154722D01*
X270386Y154001D01*
X270317Y153650D01*
X271941D01*
Y155274D01*
D02*
G37*
G36*
X272941D02*
Y153650D01*
X274565D01*
X274496Y154001D01*
X274013Y154722D01*
X273292Y155204D01*
X272941Y155274D01*
D02*
G37*
G36*
X150287Y242807D02*
X148663D01*
X148733Y242456D01*
X149215Y241735D01*
X149936Y241252D01*
X150287Y241183D01*
Y242807D01*
D02*
G37*
G36*
X152912D02*
X151287D01*
Y241183D01*
X151638Y241252D01*
X152360Y241735D01*
X152842Y242456D01*
X152912Y242807D01*
D02*
G37*
G36*
X156587Y245606D02*
X154866D01*
Y243807D01*
X156587D01*
Y245606D01*
D02*
G37*
G36*
X159307D02*
X157587D01*
Y243807D01*
X159307D01*
Y245606D01*
D02*
G37*
G36*
X150287Y245431D02*
X149936Y245362D01*
X149215Y244880D01*
X148733Y244158D01*
X148663Y243807D01*
X150287D01*
Y245431D01*
D02*
G37*
G36*
X151287D02*
Y243807D01*
X152912D01*
X152842Y244158D01*
X152360Y244880D01*
X151638Y245362D01*
X151287Y245431D01*
D02*
G37*
G36*
X162754Y219185D02*
X161130D01*
Y217561D01*
X161481Y217631D01*
X162202Y218113D01*
X162685Y218834D01*
X162754Y219185D01*
D02*
G37*
G36*
X93043Y182492D02*
X89424D01*
X89500Y181909D01*
X89919Y180899D01*
X90584Y180033D01*
X91451Y179367D01*
X92460Y178949D01*
X93043Y178873D01*
Y182492D01*
D02*
G37*
G36*
Y187112D02*
X92460Y187035D01*
X91451Y186617D01*
X90584Y185952D01*
X89919Y185085D01*
X89500Y184075D01*
X89424Y183492D01*
X93043D01*
Y187112D01*
D02*
G37*
G36*
X103043D02*
X102460Y187035D01*
X101451Y186617D01*
X100584Y185952D01*
X99919Y185085D01*
X99501Y184075D01*
X99424Y183492D01*
X103043D01*
Y187112D01*
D02*
G37*
G36*
Y182492D02*
X99424D01*
X99501Y181909D01*
X99919Y180899D01*
X100584Y180033D01*
X101451Y179367D01*
X102460Y178949D01*
X103043Y178873D01*
Y182492D01*
D02*
G37*
G36*
X97663D02*
X94043D01*
Y178873D01*
X94627Y178949D01*
X95636Y179367D01*
X96503Y180033D01*
X97168Y180899D01*
X97586Y181909D01*
X97663Y182492D01*
D02*
G37*
G36*
X266823Y268398D02*
X265198D01*
X265268Y268047D01*
X265750Y267325D01*
X266472Y266843D01*
X266823Y266773D01*
Y268398D01*
D02*
G37*
G36*
X269447D02*
X267823D01*
Y266773D01*
X268174Y266843D01*
X268895Y267325D01*
X269377Y268047D01*
X269447Y268398D01*
D02*
G37*
G36*
X266823Y271022D02*
X266472Y270952D01*
X265750Y270470D01*
X265268Y269749D01*
X265198Y269398D01*
X266823D01*
Y271022D01*
D02*
G37*
G36*
X267823D02*
Y269398D01*
X269447D01*
X269377Y269749D01*
X268895Y270470D01*
X268174Y270952D01*
X267823Y271022D01*
D02*
G37*
G36*
X259823Y261476D02*
X258972Y261307D01*
X258250Y260824D01*
X257768Y260103D01*
X257649Y259503D01*
X255118D01*
X254344Y259349D01*
X253688Y258911D01*
X252113Y257336D01*
X251674Y256680D01*
X251520Y255906D01*
Y254048D01*
X251489Y254001D01*
X251320Y253150D01*
X251489Y252299D01*
X251971Y251577D01*
X252692Y251095D01*
X253543Y250926D01*
X254394Y251095D01*
X255116Y251577D01*
X255598Y252299D01*
X255767Y253150D01*
X255598Y254001D01*
X255566Y254048D01*
Y255067D01*
X255956Y255457D01*
X257649D01*
X257768Y254858D01*
X258250Y254136D01*
X258972Y253654D01*
X259823Y253485D01*
X260674Y253654D01*
X261395Y254136D01*
X261877Y254858D01*
X262047Y255709D01*
Y259252D01*
X261877Y260103D01*
X261395Y260824D01*
X260674Y261307D01*
X259823Y261476D01*
D02*
G37*
G36*
X160782Y290543D02*
X157685D01*
Y289020D01*
X158858D01*
X159633Y289174D01*
X160289Y289613D01*
X160727Y290269D01*
X160782Y290543D01*
D02*
G37*
G36*
X251311Y315248D02*
X249512D01*
Y313528D01*
X251311D01*
Y315248D01*
D02*
G37*
G36*
Y317969D02*
X249512D01*
Y316248D01*
X251311D01*
Y317969D01*
D02*
G37*
G36*
X156587Y313244D02*
X154866D01*
Y311445D01*
X156587D01*
Y313244D01*
D02*
G37*
G36*
X159307D02*
X157587D01*
Y311445D01*
X159307D01*
Y313244D01*
D02*
G37*
G36*
X268656Y284638D02*
X264469D01*
X260281D01*
X260336Y284364D01*
X260673Y283858D01*
X260336Y283353D01*
X260281Y283079D01*
X264469D01*
X268656D01*
X268601Y283353D01*
X268264Y283858D01*
X268601Y284364D01*
X268656Y284638D01*
D02*
G37*
G36*
Y287197D02*
X264469D01*
X260281D01*
X260336Y286923D01*
X260673Y286417D01*
X260336Y285912D01*
X260281Y285638D01*
X264469D01*
X268656D01*
X268601Y285912D01*
X268264Y286417D01*
X268601Y286923D01*
X268656Y287197D01*
D02*
G37*
G36*
X272047Y279783D02*
X271196Y279614D01*
X270475Y279132D01*
X270446Y279088D01*
X269052D01*
X268722Y279520D01*
X264469D01*
X260281D01*
X260336Y279245D01*
X260673Y278740D01*
X260336Y278235D01*
X260182Y277461D01*
X260336Y276686D01*
X260774Y276030D01*
X261431Y275591D01*
X262205Y275437D01*
X266732D01*
X267507Y275591D01*
X268162Y276030D01*
X270446D01*
X270475Y275987D01*
X271196Y275504D01*
X272047Y275335D01*
X272898Y275504D01*
X273620Y275987D01*
X274102Y276708D01*
X274271Y277559D01*
X274102Y278410D01*
X273620Y279132D01*
X272898Y279614D01*
X272047Y279783D01*
D02*
G37*
G36*
X268656Y282079D02*
X264469D01*
X260281D01*
X260336Y281804D01*
X260673Y281299D01*
X260336Y280794D01*
X260281Y280520D01*
X264469D01*
X268656D01*
X268601Y280794D01*
X268264Y281299D01*
X268601Y281804D01*
X268656Y282079D01*
D02*
G37*
G36*
X94043Y187112D02*
Y183492D01*
X97663D01*
X97586Y184075D01*
X97168Y185085D01*
X96503Y185952D01*
X95636Y186617D01*
X94627Y187035D01*
X94043Y187112D01*
D02*
G37*
%LPD*%
D10*
X364252Y220394D02*
G03*
X364173Y220315I0J-79D01*
G01*
X93307Y252992D02*
Y270079D01*
X117913Y280807D02*
Y287598D01*
X126476Y296161D01*
X139370D01*
X116240Y280807D02*
X117913D01*
X100787Y277559D02*
X112992D01*
X116240Y280807D01*
X103386Y232835D02*
X110079D01*
X118110Y210236D02*
Y212697D01*
X110079Y232835D02*
X115354Y227559D01*
Y216535D02*
Y227559D01*
Y216535D02*
X117913Y213976D01*
Y212697D02*
Y213976D01*
X118898Y209449D02*
X124803D01*
X118110Y210236D02*
X118898Y209449D01*
X124803D02*
X125591Y208661D01*
X119685Y207480D02*
X120472Y206693D01*
X114567Y207480D02*
X119685D01*
X111417Y210630D02*
X114567Y207480D01*
X120472Y203839D02*
Y206693D01*
X114173Y177559D02*
Y179921D01*
Y177559D02*
X115847Y175886D01*
X117913D01*
X119685Y189370D02*
X120472Y188583D01*
Y184744D02*
Y188583D01*
X124409Y187008D02*
Y190157D01*
X123031Y185630D02*
X124409Y187008D01*
X123031Y184744D02*
Y185630D01*
X120866Y193701D02*
X124409Y190157D01*
X116142Y193701D02*
X120866D01*
X109055Y200787D02*
X116142Y193701D01*
X103307Y202992D02*
X108268Y198031D01*
X119291Y180315D02*
X124409D01*
X117913Y181693D02*
X119291Y180315D01*
X117913Y181693D02*
Y184744D01*
X108268Y196457D02*
Y198031D01*
Y196457D02*
X117913Y186811D01*
Y184744D02*
Y186811D01*
X103386Y222992D02*
X109055Y217323D01*
Y208661D02*
Y217323D01*
X106299Y227953D02*
X111417Y222835D01*
X98032Y227953D02*
X106299D01*
X93543Y223465D02*
X98032Y227953D01*
X93543Y222992D02*
Y223465D01*
X111417Y210630D02*
Y222835D01*
X93543Y232992D02*
X98347Y237795D01*
X112598D01*
X123031Y227362D01*
X351181Y155118D02*
X366457Y170394D01*
X287795Y155118D02*
X351181D01*
X286614Y156299D02*
X287795Y155118D01*
X366457Y170394D02*
X370472D01*
X328386Y141929D02*
X328976Y141339D01*
X283071Y312205D02*
X284646D01*
X288681Y308169D01*
X293012D01*
X373228Y331102D02*
X377165Y327165D01*
Y251575D02*
Y327165D01*
X374410Y248819D02*
X377165Y251575D01*
X308032Y331102D02*
X373228D01*
X296614Y319685D02*
X308032Y331102D01*
X193701Y166142D02*
Y168602D01*
X190157Y162598D02*
X193701Y166142D01*
X186614Y162598D02*
X190157D01*
X211614Y126772D02*
X212992D01*
X208071Y123228D02*
X211614Y126772D01*
X285039Y283071D02*
X285531Y282579D01*
X293012D01*
X360315Y210315D02*
X370472D01*
X330807Y162205D02*
X353543D01*
X330709Y162106D02*
X330807Y162205D01*
X364252Y220394D02*
X370472D01*
X348425Y204567D02*
X364173Y220315D01*
X206791Y129921D02*
X217323D01*
X206791Y105512D02*
X207185Y105118D01*
X210630D01*
X222441Y116929D01*
X274016D01*
X279685Y122598D01*
X293701D01*
X202165Y123228D02*
Y126181D01*
X203445Y127461D01*
Y129921D01*
X202165Y106791D02*
X203445Y105512D01*
X202165Y106791D02*
Y111811D01*
X232480Y106791D02*
X233760Y105512D01*
X232480Y106791D02*
Y111811D01*
Y123228D02*
Y125394D01*
X233760Y126673D01*
Y129921D01*
X237106D02*
X242126D01*
X248031Y107480D02*
X347638D01*
X246850Y108661D02*
X248031Y107480D01*
X347638D02*
X357874Y117717D01*
Y122441D01*
X375984Y140551D01*
Y194095D01*
X375197Y194882D02*
X375984Y194095D01*
X361339Y200315D02*
X370472D01*
Y210394D02*
X378740Y202126D01*
Y137795D02*
Y202126D01*
X360630Y119685D02*
X378740Y137795D01*
X237106Y105512D02*
X237500Y105118D01*
X161811Y137008D02*
X238583D01*
X164173Y133858D02*
X233465D01*
X155532Y125216D02*
X164173Y133858D01*
X246457Y198425D02*
X248376Y196506D01*
X247047Y230906D02*
X248376Y229577D01*
X183563Y229134D02*
X190453D01*
X331240Y240315D02*
X370472D01*
X322342Y240551D02*
X331004D01*
X190551Y194390D02*
X190847Y194095D01*
X357480Y180315D02*
X370472D01*
X354724Y230315D02*
X370472D01*
X322244Y215748D02*
X330709D01*
X237500Y105118D02*
X349213D01*
X360630Y116535D01*
Y119685D01*
X155532Y119685D02*
Y125216D01*
X140532Y119685D02*
Y123996D01*
X143701Y127165D01*
X151969D01*
X161811Y137008D01*
X279370Y254173D02*
X285433D01*
X279035Y287697D02*
X293012D01*
X278248Y277461D02*
X293012D01*
X277854Y280020D02*
X293012D01*
X166142Y171653D02*
X186221D01*
X161811Y175984D02*
X166142Y171653D01*
X130315Y175984D02*
X161811D01*
X120472Y171653D02*
Y175886D01*
X123031Y184744D02*
X123130Y184646D01*
X127165D01*
X129134Y174803D02*
X130315Y175984D01*
X166535Y174409D02*
X181496D01*
X158661Y182283D02*
X166535Y174409D01*
X155217Y182283D02*
X158661D01*
X181496Y174409D02*
X182677Y175591D01*
X126378Y178347D02*
X154331D01*
X154724Y178740D01*
Y181791D01*
X155217Y182283D01*
X124409Y180315D02*
X126378Y178347D01*
X203150Y174803D02*
X213779D01*
X231102Y157480D01*
X247146D01*
X103543Y210630D02*
X109055Y205118D01*
Y200787D02*
Y205118D01*
X103543Y210630D02*
Y212992D01*
X113779Y200787D02*
X116535Y198031D01*
X109055Y208661D02*
X113779Y203937D01*
Y200787D02*
Y203937D01*
X123031Y212697D02*
Y227362D01*
X116535Y198031D02*
X118110D01*
X117913Y203839D02*
X118110Y203642D01*
Y198031D02*
Y203642D01*
X126673Y194587D02*
X138583D01*
X120472Y200787D02*
X126673Y194587D01*
X120472Y200787D02*
Y203839D01*
X140157Y185827D02*
X141732Y187402D01*
Y190157D01*
X143405Y191831D01*
X145276D01*
X140551Y219291D02*
Y224016D01*
X142224Y225689D01*
X144095D01*
X123031Y212697D02*
X125295D01*
X127165Y214567D01*
Y222047D01*
X133563Y228445D01*
X137795D01*
X120472Y267323D02*
Y271949D01*
X117913Y271063D02*
Y271949D01*
X116535Y269685D02*
X117913Y271063D01*
X116535Y266929D02*
Y269685D01*
X116732Y266732D02*
X117323Y266142D01*
X116535Y266929D02*
X116732Y266732D01*
X110630Y260630D02*
X116732Y266732D01*
X110630Y252756D02*
Y260630D01*
X117323Y266142D02*
X119193Y264272D01*
X137402D01*
X141437Y261516D02*
X145276D01*
X93543Y242992D02*
X98583Y248031D01*
X105905D01*
X110630Y252756D01*
X120472Y275197D02*
X123031Y277756D01*
X106693Y275197D02*
X120472D01*
X103543Y272047D02*
X106693Y275197D01*
X93307Y270079D02*
X100787Y277559D01*
X103543Y252992D02*
Y272047D01*
X123031Y277756D02*
Y280807D01*
Y281299D01*
X125984Y284252D01*
X142520Y289370D02*
X145768Y292618D01*
X147244D01*
X145472Y192027D02*
X149213D01*
Y184941D02*
Y192027D01*
Y184941D02*
X151870Y182283D01*
X189370Y189370D02*
X193307Y185433D01*
Y181890D02*
Y185433D01*
Y181890D02*
X194783Y180413D01*
X197638D01*
X185039Y189370D02*
X189370D01*
X197638Y181102D02*
Y191043D01*
X182677Y187008D02*
X185039Y189370D01*
X182677Y175591D02*
Y187008D01*
X149213Y192027D02*
X157185D01*
X177953Y208268D02*
X185433Y215748D01*
X166535Y208268D02*
X177953D01*
X158268Y216535D02*
X166535Y208268D01*
X185433Y215748D02*
X197638D01*
X155610Y216535D02*
X158268D01*
X151181Y226279D02*
X157185D01*
X144685D02*
X151181D01*
Y217618D02*
X152264Y216535D01*
X151181Y217618D02*
Y226279D01*
X184252Y249606D02*
X198819D01*
X179134Y244488D02*
X184252Y249606D01*
X168898Y244488D02*
X179134D01*
X161417Y251969D02*
X168898Y244488D01*
X157185Y251969D02*
X161417D01*
X150394Y261713D02*
X157185D01*
X145472D02*
X150394D01*
Y255413D02*
X153839Y251969D01*
X150394Y255413D02*
Y261713D01*
X198031Y285827D02*
X200000D01*
X188583Y276378D02*
X198031Y285827D01*
X166535Y276378D02*
X188583D01*
X159843Y283071D02*
X166535Y276378D01*
X156791Y283071D02*
X159843D01*
X151969Y293602D02*
X157185D01*
X151083D02*
X151969D01*
Y288583D02*
Y293602D01*
Y288583D02*
X153445Y287106D01*
Y283071D02*
Y287106D01*
X357323Y190394D02*
X370472D01*
X344094Y177165D02*
X357323Y190394D01*
X350787Y173622D02*
X357480Y180315D01*
X331004Y240551D02*
X331240Y240315D01*
X293012Y285138D02*
X293110Y285039D01*
X300394D01*
X297638Y173622D02*
X350787D01*
X155532Y119685D02*
X155532Y119685D01*
X238583Y170079D02*
X252756D01*
X259842Y177165D02*
X344094D01*
X252756Y170079D02*
X259842Y177165D01*
X259055Y180315D02*
X341339D01*
X254331Y175591D02*
X259055Y180315D01*
X233465Y175591D02*
X254331D01*
X341339Y180315D02*
X361339Y200315D01*
X353543Y203543D02*
X360315Y210315D01*
X330709Y188878D02*
X339665D01*
X330709Y216043D02*
X340453D01*
X354724Y230315D01*
X330413Y188583D02*
X330709Y188878D01*
X322441Y188583D02*
X330413D01*
X257972Y303051D02*
X264469D01*
X257087Y303937D02*
X257972Y303051D01*
X258760Y305610D02*
X264469D01*
X257087Y303937D02*
X258760Y305610D01*
X257776Y292815D02*
X264469D01*
X256890Y293701D02*
X257776Y292815D01*
X258563Y295374D02*
X264469D01*
X256890Y293701D02*
X258563Y295374D01*
X304823Y160630D02*
X305118Y160925D01*
X279921Y160630D02*
X304823D01*
X306201Y187402D02*
X306299Y187303D01*
X283465Y187402D02*
X306201D01*
X306201Y214567D02*
X306299Y214469D01*
X285827Y214567D02*
X306201D01*
X303445Y239272D02*
X305906D01*
X302756Y238583D02*
X303445Y239272D01*
X289370Y238583D02*
X302756D01*
X264567Y277559D02*
X272047D01*
X264469Y277461D02*
X264567Y277559D01*
X274823Y257480D02*
Y259429D01*
X272441Y261811D02*
X274823Y259429D01*
X272441Y261811D02*
Y263386D01*
X282677Y299213D02*
X283957Y300492D01*
X293012D01*
X283169Y303051D02*
X293012D01*
X282283Y303937D02*
X283169Y303051D01*
X285039Y307087D02*
X286516Y305610D01*
X293012D01*
X285433Y296850D02*
X286516Y297933D01*
X293012D01*
Y290256D02*
X299114D01*
X299606Y289764D01*
X309291Y293858D02*
X311417D01*
Y294094D01*
Y293858D02*
X316929Y288347D01*
X311417Y294094D02*
X316929Y299606D01*
Y300236D01*
X313543Y284882D02*
X316929D01*
X305610Y292815D02*
X313543Y284882D01*
X293012Y292815D02*
X305610D01*
X313937Y303701D02*
X316929D01*
X305610Y295374D02*
X313937Y303701D01*
X293012Y295374D02*
X305610D01*
X293150Y315748D02*
X298130D01*
X301969Y311909D01*
X301575Y308169D02*
X301969Y308563D01*
X293012Y308169D02*
X301575D01*
X256890Y277756D02*
Y282480D01*
X253543Y285827D02*
X256890Y282480D01*
X200000Y285827D02*
X253543D01*
X237008Y275590D02*
X254724D01*
X234252Y278346D02*
X237008Y275590D01*
X229921Y278346D02*
X234252D01*
X254724Y275590D02*
X256890Y277756D01*
X258661Y264567D02*
X263386D01*
X198425Y214961D02*
X224410D01*
X227854Y211516D01*
X230315D01*
X236221Y214173D02*
X250787D01*
X233563Y211516D02*
X236221Y214173D01*
X230315Y211516D02*
X233563D01*
X197638Y215748D02*
X198425Y214961D01*
X230315Y247638D02*
X231102Y246850D01*
X200787Y247638D02*
X230315D01*
X198819Y249606D02*
X200787Y247638D01*
X237697Y200098D02*
X239370Y198425D01*
X230118Y200098D02*
X237697D01*
X194193Y194488D02*
X197638Y191043D01*
Y180413D02*
X197933Y180709D01*
X253937D01*
X197638Y225984D02*
Y227953D01*
X196457Y229134D02*
X197638Y227953D01*
X193799Y229134D02*
X196457D01*
X250787Y214173D02*
X251575Y214961D01*
X253543Y246850D02*
X262992D01*
X231102D02*
X253543D01*
X196555Y264567D02*
X198819Y262303D01*
Y260630D02*
Y262303D01*
X264823Y248681D02*
Y257480D01*
X262992Y246850D02*
X264823Y248681D01*
X229921Y245669D02*
X231102Y246850D01*
X229921Y243799D02*
Y245669D01*
X194587Y297244D02*
X198819D01*
X200000Y296063D01*
X263386Y264567D02*
X264823Y263130D01*
Y257480D02*
Y263130D01*
X285276Y257480D02*
X285433Y257638D01*
X274823Y257480D02*
X285276D01*
X264823D02*
X269823D01*
X187795Y292913D02*
X196457D01*
Y278740D02*
X221752D01*
X187795Y308268D02*
X189764D01*
X187008D02*
X187795D01*
X183071Y290158D02*
X192913D01*
X179626Y293602D02*
X183071Y290158D01*
X191240Y304331D02*
Y306791D01*
X189764Y308268D02*
X191240Y306791D01*
X184646Y305906D02*
X187008Y308268D01*
X184646Y300492D02*
Y305906D01*
X222146Y255118D02*
X222244Y255020D01*
X195669Y255118D02*
X222146D01*
X175098Y293602D02*
X179626D01*
X222146Y244094D02*
X222441Y243799D01*
X192913Y244094D02*
X222146D01*
X193209Y269685D02*
Y271358D01*
X190945Y273622D02*
X193209Y271358D01*
X188583Y273622D02*
X190945D01*
X186221Y271260D02*
X188583Y273622D01*
X186221Y267815D02*
Y271260D01*
X218799Y221555D02*
X222638D01*
X216929Y219685D02*
X218799Y221555D01*
X192126Y219685D02*
X216929D01*
X182283Y258268D02*
X188976D01*
X178839Y261713D02*
X182283Y258268D01*
X175098Y261713D02*
X178839D01*
X222146Y211811D02*
X222441Y211516D01*
X187008Y211811D02*
X222146D01*
X183858Y235827D02*
X185827Y237795D01*
X183858Y232382D02*
Y235827D01*
X181988Y232382D02*
X183858D01*
X181004Y231398D02*
X181988Y232382D01*
X187697Y237795D02*
X190453Y235039D01*
X185827Y237795D02*
X187697D01*
X175098Y231398D02*
X181004D01*
X222539Y188976D02*
X222638Y188878D01*
X204331Y188976D02*
X222539D01*
X182677Y222441D02*
X202362D01*
X178839Y226279D02*
X182677Y222441D01*
X175098Y226279D02*
X178839D01*
X189764Y180413D02*
Y182283D01*
X187008Y185039D02*
X189764Y182283D01*
X186221Y202362D02*
X188878D01*
X184646Y200787D02*
X186221Y202362D01*
X184646Y197736D02*
Y200787D01*
X188878Y202362D02*
X190847Y200394D01*
X189862Y157480D02*
X189961Y157382D01*
X181496Y157480D02*
X189862D01*
X246949Y191732D02*
X248425Y193209D01*
X239370Y191732D02*
X246949D01*
X239370Y198425D02*
X246457D01*
X233465Y191732D02*
X239370D01*
X180020Y192027D02*
X180709Y191339D01*
X175098Y192027D02*
X180020D01*
X214075Y167520D02*
X215748Y165847D01*
X206693Y167520D02*
X214075D01*
X214075Y160827D02*
X215748Y162500D01*
X206693Y160827D02*
X214075D01*
X246358Y224213D02*
X248425Y226279D01*
X239370Y224213D02*
X246358D01*
X239370Y230906D02*
X247047D01*
X197441Y168602D02*
X203839D01*
X204921Y167520D01*
X201772Y160827D02*
X206693D01*
X233661Y230906D02*
X239370D01*
X204921Y167520D02*
X206693D01*
X235630Y224213D02*
X239370D01*
X222638Y222638D02*
X225984Y225984D01*
X233858D01*
X194488Y162992D02*
X199606D01*
X201772Y160827D01*
X210728Y290256D02*
X264469D01*
X209055Y288583D02*
X210728Y290256D01*
X201181Y200157D02*
X205512Y204488D01*
X208169Y297933D02*
X264469D01*
X206299Y296063D02*
X208169Y297933D01*
X200787Y235039D02*
X203543Y237795D01*
X200787Y234803D02*
Y235039D01*
X206398Y300492D02*
X264469D01*
X205906Y300000D02*
X206398Y300492D01*
X203150Y269449D02*
Y275984D01*
X204232Y308169D02*
X264469D01*
X200551Y304488D02*
X204232Y308169D01*
X200000Y304488D02*
X200551D01*
X299449Y141890D02*
X299606Y141732D01*
X308169Y237008D02*
X313090D01*
X305906Y239272D02*
X308169Y237008D01*
X306299Y214469D02*
X310335D01*
X311811Y212992D01*
X312205D01*
X312992Y212205D01*
X312795Y184646D02*
X313189Y185039D01*
X308957Y184646D02*
X312795D01*
X306299Y187303D02*
X308957Y184646D01*
X330610Y162205D02*
X330709Y162106D01*
X322342Y162205D02*
X330610D01*
X309055Y158661D02*
X313091D01*
X306791Y160925D02*
X309055Y158661D01*
X305118Y160925D02*
X306791D01*
X226378Y193701D02*
X231496D01*
X222638Y189961D02*
X226378Y193701D01*
X222638Y188878D02*
Y189961D01*
X231496Y193701D02*
X233465Y191732D01*
X230118Y207972D02*
X230315Y208169D01*
X230118Y200098D02*
Y207972D01*
X222441Y208169D02*
X222638Y207972D01*
Y200098D02*
Y207972D01*
X189961Y158465D02*
X194488Y162992D01*
X189961Y157382D02*
Y158465D01*
X197441Y176870D02*
X197638Y177067D01*
X197441Y168602D02*
Y176870D01*
X189764Y177067D02*
X189961Y176870D01*
Y168602D02*
Y176870D01*
X222638Y221555D02*
Y222638D01*
X233858Y225984D02*
X235630Y224213D01*
X231791Y232776D02*
X233661Y230906D01*
X230118Y232776D02*
X231791D01*
X229921Y240453D02*
X230118Y240256D01*
Y232776D02*
Y240256D01*
X222441Y240453D02*
X222638Y240256D01*
Y232776D02*
Y240256D01*
X234449Y264370D02*
X239370D01*
X232579Y266240D02*
X234449Y264370D01*
X229724Y266240D02*
X232579D01*
X246752Y257677D02*
X248425Y259350D01*
X239370Y257677D02*
X246752D01*
X246752Y264370D02*
X248425Y262697D01*
X239370Y264370D02*
X246752D01*
X225591Y259449D02*
X232677D01*
X222244Y256102D02*
X225591Y259449D01*
X222244Y255020D02*
Y256102D01*
X232677Y259449D02*
X234449Y257677D01*
X239370D01*
X229724Y274803D02*
X229921Y275000D01*
X229724Y266240D02*
Y274803D01*
X222244Y274902D02*
X222441Y275098D01*
X222244Y266240D02*
Y274902D01*
X281732Y169291D02*
X281890Y169134D01*
X274803Y169291D02*
X281732D01*
X274508Y168996D02*
X274803Y169291D01*
X266732Y168996D02*
X274508D01*
X274803Y163878D02*
Y169291D01*
X272047Y157776D02*
X274803Y160531D01*
X266732Y157776D02*
X272047D01*
X247087Y157421D02*
X247146Y157480D01*
X247087Y151575D02*
Y157421D01*
X259252Y157776D02*
Y168996D01*
X250492Y151634D02*
X250551Y151575D01*
X250492Y151634D02*
Y157480D01*
X250787Y157776D01*
X259252D01*
X276220Y220472D02*
X276279Y220532D01*
Y227559D01*
X276181Y227658D02*
X276279Y227559D01*
X270079Y227658D02*
X276181D01*
X269823Y227795D02*
Y236221D01*
X184646Y194390D02*
X190551D01*
X180807D02*
X184646D01*
X180610Y194587D02*
X180807Y194390D01*
X175098Y194587D02*
X180610D01*
X200945Y200394D02*
X201181Y200157D01*
X194193Y200394D02*
X200945D01*
X180807Y197736D02*
X184646D01*
X180217Y197146D02*
X180807Y197736D01*
X175098Y197146D02*
X180217D01*
X145276Y191831D02*
X145472Y192027D01*
X157185Y194587D02*
X157185Y194587D01*
X138583Y194587D02*
X157185D01*
X175098Y228839D02*
X183268D01*
X183563Y229134D01*
X200551Y235039D02*
X200787Y234803D01*
X193799Y235039D02*
X200551D01*
X144095Y225689D02*
X144685Y226279D01*
X138189Y228839D02*
X157185D01*
X137795Y228445D02*
X138189Y228839D01*
X201024Y269449D02*
X203150D01*
X200787Y269685D02*
X201024Y269449D01*
X196555Y269685D02*
X200787D01*
X193110Y264469D02*
X193209Y264567D01*
X186221Y264469D02*
X193110D01*
X186024Y264272D02*
X186221Y264469D01*
X175098Y264272D02*
X186024D01*
X183169Y267815D02*
X186221D01*
X182185Y266831D02*
X183169Y267815D01*
X175098Y266831D02*
X182185D01*
X145276Y261516D02*
X145472Y261713D01*
X157185Y264272D02*
X157185Y264272D01*
X137402Y264272D02*
X157185D01*
X199843Y304331D02*
X200000Y304488D01*
X194587Y304331D02*
X199843D01*
X180807Y300492D02*
X184646D01*
X179035Y298721D02*
X180807Y300492D01*
X175098Y298721D02*
X179035D01*
X191142Y297146D02*
X191240Y297244D01*
X184646Y297146D02*
X191142D01*
X182579D02*
X184646D01*
X181595Y296161D02*
X182579Y297146D01*
X175098Y296161D02*
X181595D01*
X147244Y292618D02*
X150098D01*
X151083Y293602D01*
X139370Y296161D02*
X139370Y296161D01*
X157185D01*
D11*
X275996Y265354D02*
D03*
X286496D02*
D03*
D12*
X237106Y105512D02*
D03*
X233760D02*
D03*
X237106Y129921D02*
D03*
X233760D02*
D03*
X206791Y105512D02*
D03*
X203445D02*
D03*
X206791Y129921D02*
D03*
X203445D02*
D03*
X155217Y182283D02*
D03*
X151870D02*
D03*
X155610Y216535D02*
D03*
X152264D02*
D03*
X157185Y251969D02*
D03*
X153839D02*
D03*
X156791Y283071D02*
D03*
X153445D02*
D03*
X194587Y304331D02*
D03*
X191240D02*
D03*
X276279Y227559D02*
D03*
X279626D02*
D03*
X250492Y157480D02*
D03*
X247146D02*
D03*
X194193Y200394D02*
D03*
X190847D02*
D03*
Y194488D02*
D03*
X194193D02*
D03*
X193799Y235039D02*
D03*
X190453D02*
D03*
Y229134D02*
D03*
X193799D02*
D03*
X196555Y269685D02*
D03*
X193209D02*
D03*
Y264567D02*
D03*
X196555D02*
D03*
X191240Y297244D02*
D03*
X194587D02*
D03*
D13*
X232480Y111811D02*
D03*
X238386D02*
D03*
X232480Y123228D02*
D03*
X238386D02*
D03*
X202165D02*
D03*
X208071D02*
D03*
X202165Y111811D02*
D03*
X208071D02*
D03*
D14*
X123031Y280807D02*
D03*
X120472D02*
D03*
X117913D02*
D03*
Y271949D02*
D03*
X120472D02*
D03*
X123031D02*
D03*
Y212697D02*
D03*
X120472D02*
D03*
X117913D02*
D03*
Y203839D02*
D03*
X120472D02*
D03*
X123031D02*
D03*
Y184744D02*
D03*
X120472D02*
D03*
X117913D02*
D03*
Y175886D02*
D03*
X120472D02*
D03*
X123031D02*
D03*
D15*
X136614Y170098D02*
D03*
Y165098D02*
D03*
Y160098D02*
D03*
Y155098D02*
D03*
X157874Y170098D02*
D03*
Y165098D02*
D03*
Y160098D02*
D03*
Y155098D02*
D03*
D16*
X318898Y115157D02*
D03*
Y118898D02*
D03*
Y122638D02*
D03*
X308661D02*
D03*
Y115157D02*
D03*
X318898Y134449D02*
D03*
Y138189D02*
D03*
Y141929D02*
D03*
X308661D02*
D03*
Y134449D02*
D03*
D17*
X117224Y160098D02*
D03*
X124508D02*
D03*
D18*
X140532Y119685D02*
D03*
X145531D02*
D03*
X150531D02*
D03*
X155532D02*
D03*
X140532Y140945D02*
D03*
X145531D02*
D03*
X150531D02*
D03*
X155532D02*
D03*
X274823Y257480D02*
D03*
X269823D02*
D03*
X264823D02*
D03*
X259823D02*
D03*
X274823Y236221D02*
D03*
X269823D02*
D03*
X264823D02*
D03*
X259823D02*
D03*
D19*
X322342Y240551D02*
D03*
X313090Y237008D02*
D03*
Y244094D02*
D03*
X322244Y215748D02*
D03*
X312992Y212205D02*
D03*
Y219291D02*
D03*
X322441Y188583D02*
D03*
X313189Y185039D02*
D03*
Y192126D02*
D03*
X322342Y162205D02*
D03*
X313091Y158661D02*
D03*
Y165748D02*
D03*
D20*
X293012Y277461D02*
D03*
Y280020D02*
D03*
Y282579D02*
D03*
Y285138D02*
D03*
Y287697D02*
D03*
Y290256D02*
D03*
Y292815D02*
D03*
Y295374D02*
D03*
Y297933D02*
D03*
Y300492D02*
D03*
Y303051D02*
D03*
Y305610D02*
D03*
Y308169D02*
D03*
Y310728D02*
D03*
X264469Y277461D02*
D03*
Y280020D02*
D03*
Y282579D02*
D03*
Y285138D02*
D03*
Y287697D02*
D03*
Y290256D02*
D03*
Y292815D02*
D03*
Y295374D02*
D03*
Y297933D02*
D03*
Y300492D02*
D03*
Y303051D02*
D03*
Y305610D02*
D03*
Y308169D02*
D03*
Y310728D02*
D03*
D21*
X157185Y231398D02*
D03*
Y228839D02*
D03*
Y226279D02*
D03*
Y223721D02*
D03*
X175098Y231398D02*
D03*
Y228839D02*
D03*
Y226279D02*
D03*
Y223721D02*
D03*
X157185Y197146D02*
D03*
Y194587D02*
D03*
Y192027D02*
D03*
Y189469D02*
D03*
X175098Y197146D02*
D03*
Y194587D02*
D03*
Y192027D02*
D03*
Y189469D02*
D03*
X157185Y298721D02*
D03*
Y296161D02*
D03*
Y293602D02*
D03*
Y291043D02*
D03*
X175098Y298721D02*
D03*
Y296161D02*
D03*
Y293602D02*
D03*
Y291043D02*
D03*
X157185Y266831D02*
D03*
Y264272D02*
D03*
Y261713D02*
D03*
Y259154D02*
D03*
X175098Y266831D02*
D03*
Y264272D02*
D03*
Y261713D02*
D03*
Y259154D02*
D03*
D22*
X330709Y243799D02*
D03*
Y240453D02*
D03*
X305906Y242618D02*
D03*
Y239272D02*
D03*
X330709Y219390D02*
D03*
Y216043D02*
D03*
X306299Y217815D02*
D03*
Y214469D02*
D03*
X330709Y192224D02*
D03*
Y188878D02*
D03*
X306299Y190650D02*
D03*
Y187303D02*
D03*
X330709Y165453D02*
D03*
Y162106D02*
D03*
X305118Y164272D02*
D03*
Y160925D02*
D03*
X301969Y311909D02*
D03*
Y308563D02*
D03*
X270079Y224311D02*
D03*
Y227658D02*
D03*
X274803Y169291D02*
D03*
Y172638D02*
D03*
Y160531D02*
D03*
Y163878D02*
D03*
X189764Y180413D02*
D03*
Y177067D02*
D03*
X197638Y180413D02*
D03*
Y177067D02*
D03*
X215748Y165847D02*
D03*
Y162500D02*
D03*
X230315Y211516D02*
D03*
Y208169D02*
D03*
X222441Y211516D02*
D03*
Y208169D02*
D03*
X248425Y196555D02*
D03*
Y193209D02*
D03*
X222441Y243799D02*
D03*
Y240453D02*
D03*
X229921Y243799D02*
D03*
Y240453D02*
D03*
X248425Y229626D02*
D03*
Y226279D02*
D03*
X229921Y278346D02*
D03*
Y275000D02*
D03*
X222441Y278445D02*
D03*
Y275098D02*
D03*
X248425Y262697D02*
D03*
Y259350D02*
D03*
X184646Y197736D02*
D03*
Y194390D02*
D03*
X145276Y191831D02*
D03*
Y188484D02*
D03*
X138583Y194587D02*
D03*
Y191240D02*
D03*
X183858Y232382D02*
D03*
Y229035D02*
D03*
X137795Y228445D02*
D03*
Y225098D02*
D03*
X144095Y225689D02*
D03*
Y222342D02*
D03*
X186221Y267815D02*
D03*
Y264469D02*
D03*
X145276Y261516D02*
D03*
Y258169D02*
D03*
X137402Y264272D02*
D03*
Y260925D02*
D03*
X184646Y300492D02*
D03*
Y297146D02*
D03*
X147244Y292618D02*
D03*
Y289272D02*
D03*
X139370Y296161D02*
D03*
Y292815D02*
D03*
D23*
X293701Y122598D02*
D03*
Y119134D02*
D03*
X299606Y122598D02*
D03*
Y119134D02*
D03*
X336221Y122598D02*
D03*
Y119134D02*
D03*
X329134Y122598D02*
D03*
Y119134D02*
D03*
X293701Y141890D02*
D03*
Y138425D02*
D03*
X299606Y141732D02*
D03*
Y138268D02*
D03*
X336221Y141890D02*
D03*
Y138425D02*
D03*
X329134Y141890D02*
D03*
Y138425D02*
D03*
X316929Y284882D02*
D03*
Y288347D02*
D03*
Y303701D02*
D03*
Y300236D02*
D03*
X281890Y169134D02*
D03*
Y172598D02*
D03*
X285433Y257638D02*
D03*
Y254173D02*
D03*
X201181Y200157D02*
D03*
Y196693D02*
D03*
X175197Y181260D02*
D03*
Y177795D02*
D03*
X157087Y205748D02*
D03*
Y209213D02*
D03*
X200787Y234803D02*
D03*
Y231339D02*
D03*
X157087Y239843D02*
D03*
Y243307D02*
D03*
X175197Y215905D02*
D03*
Y212441D02*
D03*
X203150Y269449D02*
D03*
Y265984D02*
D03*
X157087Y273858D02*
D03*
Y277323D02*
D03*
X175197Y252126D02*
D03*
Y248661D02*
D03*
X200000Y304488D02*
D03*
Y301024D02*
D03*
X157087Y307480D02*
D03*
Y310945D02*
D03*
X175197Y284016D02*
D03*
Y280551D02*
D03*
D24*
X338583Y312402D02*
D03*
Y275000D02*
D03*
D25*
X255276Y315748D02*
D03*
X251811D02*
D03*
X276220Y220472D02*
D03*
X279685D02*
D03*
X247087Y151575D02*
D03*
X250551D02*
D03*
X293150Y319685D02*
D03*
X296614D02*
D03*
D26*
X266732Y157776D02*
D03*
X259252D02*
D03*
Y168996D02*
D03*
X262992D02*
D03*
X266732D02*
D03*
X197441Y157382D02*
D03*
X189961D02*
D03*
Y168602D02*
D03*
X193701D02*
D03*
X197441D02*
D03*
X230118Y188878D02*
D03*
X222638D02*
D03*
Y200098D02*
D03*
X226378D02*
D03*
X230118D02*
D03*
Y221555D02*
D03*
X222638D02*
D03*
Y232776D02*
D03*
X226378D02*
D03*
X230118D02*
D03*
X229724Y255020D02*
D03*
X222244D02*
D03*
Y266240D02*
D03*
X225984D02*
D03*
X229724D02*
D03*
D27*
X206693Y160827D02*
D03*
Y167520D02*
D03*
X239370Y191732D02*
D03*
Y198425D02*
D03*
Y224213D02*
D03*
Y230906D02*
D03*
Y257677D02*
D03*
Y264370D02*
D03*
D28*
X103543Y192992D02*
X110236Y186299D01*
Y174803D02*
Y186299D01*
Y174803D02*
X113386Y171653D01*
X267323Y268898D02*
X272453D01*
X275996Y265354D01*
X286496D02*
X289370D01*
X275996D02*
X286496D01*
X271260Y145669D02*
X277165Y151575D01*
X294528Y122638D02*
X308661D01*
X336024Y312992D02*
X338583Y310433D01*
X96457Y147244D02*
Y153150D01*
X103405Y160098D01*
X117224D01*
X352362Y129528D02*
Y151575D01*
X345433Y122598D02*
X352362Y129528D01*
X264331Y141890D02*
X293701D01*
X263779Y141339D02*
X264331Y141890D01*
X293701Y122598D02*
Y127559D01*
X336221Y122598D02*
X345433D01*
X336221Y143071D02*
Y151575D01*
X330709Y243799D02*
X330807Y243701D01*
X336221D01*
X330709Y219390D02*
X330807Y219291D01*
X336221D01*
X330709Y192224D02*
X330807Y192126D01*
X336221D01*
X330709Y165453D02*
X330807Y165354D01*
X336221D01*
Y151575D02*
X352362D01*
X277165D02*
X336221D01*
X162579Y170098D02*
X164961Y167717D01*
X157874Y170098D02*
X162579D01*
X164961Y145669D02*
Y167717D01*
X155532Y140945D02*
X160236D01*
X164961Y145669D01*
X271260D01*
X352362Y151575D02*
X361181Y160394D01*
X370472D01*
X265059Y219291D02*
X270079Y224311D01*
X263779Y219291D02*
X265059D01*
X226772Y218209D02*
X230118Y221555D01*
X226772Y217323D02*
Y218209D01*
X93543Y192992D02*
X103543D01*
X113386Y171653D02*
X120472D01*
X93543Y212992D02*
X103543D01*
X103307Y202992D02*
X103543D01*
X93543D02*
X103307D01*
X329134Y141890D02*
X336221D01*
X328740D02*
X329134D01*
X177165Y153543D02*
X197244D01*
X124508Y160098D02*
X136614D01*
X144095D01*
X157874D02*
Y165098D01*
X255118Y257480D02*
X259823D01*
X253543Y255906D02*
X255118Y257480D01*
X253543Y253150D02*
Y255906D01*
X144095Y160098D02*
X157874D01*
X144095Y153150D02*
Y160098D01*
X136614Y165098D02*
X157874D01*
X140532Y149587D02*
X144095Y153150D01*
X140532Y140945D02*
Y149587D01*
X145531Y140945D02*
Y146319D01*
X154311Y155098D01*
X157874D01*
X293996Y164272D02*
X305118D01*
X293701Y164567D02*
X293996Y164272D01*
X312205Y165748D02*
X313091D01*
X310728Y164272D02*
X312205Y165748D01*
X305118Y164272D02*
X310728D01*
X311713Y190650D02*
X313189Y192126D01*
X306299Y190650D02*
X311713D01*
X306201Y190551D02*
X306299Y190650D01*
X293701Y190551D02*
X306201D01*
X311516Y217815D02*
X312992Y219291D01*
X306299Y217815D02*
X311516D01*
X305610Y218504D02*
X306299Y217815D01*
X293701Y218504D02*
X305610D01*
X311614Y242618D02*
X313090Y244094D01*
X305906Y242618D02*
X311614D01*
X294390D02*
X305906D01*
X293701Y243307D02*
X294390Y242618D01*
X316929Y284882D02*
X326811Y275000D01*
X338583D01*
X326220Y312992D02*
X336024D01*
X316929Y303701D02*
X326220Y312992D01*
X293150Y315748D02*
Y319685D01*
Y311417D02*
Y315748D01*
X291339Y321496D02*
X293150Y319685D01*
X291339Y321496D02*
Y325984D01*
X266732Y154134D02*
Y157776D01*
X263779Y151181D02*
X266732Y154134D01*
X255276Y315748D02*
X255512Y315512D01*
Y311417D02*
Y315512D01*
X226772Y141339D02*
X263779D01*
X164567Y307480D02*
X165354Y306693D01*
X157087Y307480D02*
X164567D01*
X165354Y283858D02*
X165512Y284016D01*
X175197D01*
X164724Y273858D02*
X165354Y273228D01*
X157087Y273858D02*
X164724D01*
X165354Y252756D02*
X165984Y252126D01*
X175197D01*
X164882Y239843D02*
X165354Y239370D01*
X157087Y239843D02*
X164882D01*
X165354Y216535D02*
X165984Y215905D01*
X175197D01*
X165118Y205748D02*
X165354Y205512D01*
X157087Y205748D02*
X165118D01*
X165512Y181260D02*
X175197D01*
X197244Y153543D02*
X226772D01*
X197441Y153740D02*
Y157382D01*
X197244Y153543D02*
X197441Y153740D01*
X230118Y187205D02*
Y188878D01*
X226772Y183858D02*
X230118Y187205D01*
X229724Y254134D02*
Y255020D01*
X226772Y251181D02*
X229724Y254134D01*
X264469Y311417D02*
Y312697D01*
X261417Y315748D02*
X264469Y312697D01*
X255276Y315748D02*
X261417D01*
X157087Y197736D02*
X157185Y197638D01*
X157087Y197736D02*
Y205748D01*
X175197Y181260D02*
Y188484D01*
X157087Y231717D02*
Y239843D01*
X175197Y215905D02*
Y222736D01*
X157087Y299213D02*
Y307480D01*
X175098Y284114D02*
X175197Y284016D01*
X175098Y284114D02*
Y290600D01*
Y252224D02*
Y258711D01*
Y252224D02*
X175197Y252126D01*
X157087Y273858D02*
X157185Y273760D01*
Y267126D02*
Y273760D01*
X329134Y122598D02*
X336221D01*
X329095Y122638D02*
X329134Y122598D01*
X318898Y122638D02*
X329095D01*
X299803Y141929D02*
X308661D01*
X299606Y141732D02*
X299803Y141929D01*
X318898D02*
X328386D01*
X293701Y141890D02*
X299449D01*
D29*
X138976Y181102D02*
X145276D01*
X136221Y183858D02*
X138976Y181102D01*
X136221Y183858D02*
Y188878D01*
X138583Y191240D01*
X137402Y215354D02*
X145276D01*
X136221Y216535D02*
X137402Y215354D01*
X136221Y216535D02*
Y223524D01*
X137795Y225098D01*
X168110Y240945D02*
X209842D01*
X161024Y248031D02*
X168110Y240945D01*
X148031Y248031D02*
X161024D01*
X145276Y250787D02*
X148031Y248031D01*
X142520Y283858D02*
X145276D01*
X139370Y287008D02*
X142520Y283858D01*
X139370Y287008D02*
Y292815D01*
X145276Y283858D02*
X147244Y285827D01*
Y289272D01*
X145276Y215354D02*
Y217717D01*
X144095Y218898D02*
X145276Y217717D01*
X144095Y218898D02*
Y222342D01*
X145276Y181102D02*
Y188484D01*
X142520Y250787D02*
X145276D01*
Y258169D01*
X137402Y255906D02*
X142520Y250787D01*
X137402Y255906D02*
Y260925D01*
X209842Y240945D02*
X212992Y237795D01*
X216535D01*
X234252D02*
X246850D01*
X248425Y236221D01*
X259823D01*
X264823D01*
D30*
X96457Y146614D02*
D03*
Y136614D02*
D03*
X93543Y182992D02*
D03*
Y192992D02*
D03*
Y202992D02*
D03*
Y212992D02*
D03*
Y222992D02*
D03*
Y232992D02*
D03*
Y242992D02*
D03*
Y252992D02*
D03*
X103543Y192992D02*
D03*
Y202992D02*
D03*
Y212992D02*
D03*
Y222992D02*
D03*
Y232992D02*
D03*
Y242992D02*
D03*
Y182992D02*
D03*
Y252992D02*
D03*
D31*
X370472Y240394D02*
D03*
D32*
Y230394D02*
D03*
Y220394D02*
D03*
Y210394D02*
D03*
Y200394D02*
D03*
Y190394D02*
D03*
Y180394D02*
D03*
Y170394D02*
D03*
Y160394D02*
D03*
Y150394D02*
D03*
D33*
X125197Y289370D02*
D03*
X114173Y179921D02*
D03*
X286614Y156299D02*
D03*
X283071Y312205D02*
D03*
X285039Y270079D02*
D03*
X212992Y126772D02*
D03*
X285039Y283071D02*
D03*
Y291732D02*
D03*
X345669Y194882D02*
D03*
X353543Y162205D02*
D03*
X224803Y109449D02*
D03*
X224410Y123228D02*
D03*
X217323Y129921D02*
D03*
X242126D02*
D03*
X246850Y108661D02*
D03*
X375197Y194882D02*
D03*
X238583Y137008D02*
D03*
X233465Y133858D02*
D03*
X281890Y146850D02*
D03*
X272441Y153150D02*
D03*
X293701Y127559D02*
D03*
X161024Y255906D02*
D03*
X151969Y277165D02*
D03*
X203937Y227953D02*
D03*
X267323Y268898D02*
D03*
X272047Y247638D02*
D03*
X269291Y174016D02*
D03*
X186614Y162598D02*
D03*
X179134Y185039D02*
D03*
X186221Y171653D02*
D03*
X161417Y185827D02*
D03*
X151969Y209055D02*
D03*
X160630Y219685D02*
D03*
X118898Y225590D02*
D03*
X119685Y189370D02*
D03*
X150787Y243307D02*
D03*
X185039Y254331D02*
D03*
X180315D02*
D03*
X336221Y165354D02*
D03*
Y192126D02*
D03*
Y219291D02*
D03*
Y243701D02*
D03*
Y151575D02*
D03*
X171653Y167323D02*
D03*
X263779Y219291D02*
D03*
X226772Y217323D02*
D03*
X120472Y171653D02*
D03*
X127165Y184646D02*
D03*
X129134Y174803D02*
D03*
X203150D02*
D03*
X118110Y198031D02*
D03*
X140157Y185827D02*
D03*
X125591Y208661D02*
D03*
X140551Y219291D02*
D03*
X120472Y267323D02*
D03*
X141437Y261516D02*
D03*
X125984Y284252D02*
D03*
X142520Y289370D02*
D03*
X300394Y285039D02*
D03*
X297638Y173622D02*
D03*
X238583Y170079D02*
D03*
X233465Y175591D02*
D03*
X339665Y188878D02*
D03*
X348425Y204567D02*
D03*
X353543Y203543D02*
D03*
X177165Y153543D02*
D03*
X256890Y293701D02*
D03*
X257087Y303937D02*
D03*
X293701Y243307D02*
D03*
Y218504D02*
D03*
Y190551D02*
D03*
Y164567D02*
D03*
X285827Y214567D02*
D03*
X279921Y160630D02*
D03*
X283465Y187402D02*
D03*
X289370Y238583D02*
D03*
X272047Y277559D02*
D03*
X272441Y263386D02*
D03*
X282677Y299213D02*
D03*
X282283Y303937D02*
D03*
X285039Y307087D02*
D03*
X285433Y296850D02*
D03*
X299606Y289764D02*
D03*
X309291Y293858D02*
D03*
X291339Y325984D02*
D03*
X145276Y283858D02*
D03*
Y215354D02*
D03*
Y181102D02*
D03*
Y250787D02*
D03*
X216535Y237795D02*
D03*
X234252D02*
D03*
X263779Y151181D02*
D03*
X255512Y311417D02*
D03*
X253543Y253150D02*
D03*
X256890Y277756D02*
D03*
X257874Y265748D02*
D03*
X263779Y141339D02*
D03*
X165512Y181260D02*
D03*
X165354Y205512D02*
D03*
Y216535D02*
D03*
Y239370D02*
D03*
Y252756D02*
D03*
Y273228D02*
D03*
Y283858D02*
D03*
Y306693D02*
D03*
X226772Y141339D02*
D03*
Y153543D02*
D03*
Y183858D02*
D03*
Y251181D02*
D03*
X253937Y180709D02*
D03*
X197638Y225984D02*
D03*
Y215748D02*
D03*
X251575Y214961D02*
D03*
X253543Y246850D02*
D03*
X198819Y260630D02*
D03*
Y249606D02*
D03*
X200000Y296063D02*
D03*
Y285827D02*
D03*
X196457Y292913D02*
D03*
Y278740D02*
D03*
X187795Y292913D02*
D03*
Y308268D02*
D03*
X192913Y290158D02*
D03*
X195669Y255118D02*
D03*
X192913Y244094D02*
D03*
X188583Y273622D02*
D03*
X192126Y219685D02*
D03*
X188976Y258268D02*
D03*
X187008Y211811D02*
D03*
X185827Y237795D02*
D03*
X204331Y188976D02*
D03*
X202362Y222441D02*
D03*
X187008Y185039D02*
D03*
X186221Y202362D02*
D03*
X181496Y157480D02*
D03*
X180709Y191339D02*
D03*
X209055Y288583D02*
D03*
X205512Y204488D02*
D03*
X206299Y296063D02*
D03*
X203543Y237795D02*
D03*
X205906Y300000D02*
D03*
X203150Y275984D02*
D03*
M02*
