G04 Layer_Physical_Order=2*
G04 Layer_Color=16711680*
%FSLAX25Y25*%
%MOIN*%
G70*
G01*
G75*
%ADD10C,0.01000*%
%ADD28C,0.01968*%
%ADD29C,0.01575*%
%ADD30C,0.06299*%
%ADD31R,0.06000X0.06000*%
%ADD32C,0.06000*%
%ADD33C,0.02362*%
G36*
X281299Y318307D02*
X281293Y313734D01*
X276772D01*
X276186Y313618D01*
X275690Y313286D01*
X262698Y300294D01*
X262367Y299798D01*
X262250Y299213D01*
Y249606D01*
X262367Y249021D01*
X262698Y248525D01*
X272880Y238343D01*
Y156693D01*
X272996Y156108D01*
X273255Y155721D01*
X273088Y155382D01*
X272970Y155268D01*
X272941Y155274D01*
Y153650D01*
X274565D01*
X274561Y153671D01*
X275022Y153918D01*
X276478Y152462D01*
X276974Y152130D01*
X277559Y152014D01*
X283858D01*
X284444Y152130D01*
X284940Y152462D01*
X286563Y154086D01*
X286614Y154075D01*
X287465Y154245D01*
X288083Y154657D01*
X288583Y154488D01*
Y148819D01*
X282283Y142520D01*
Y142126D01*
X275590D01*
X268898Y148819D01*
X265803D01*
Y150283D01*
X265834Y150330D01*
X266003Y151181D01*
X265834Y152032D01*
X265803Y152079D01*
Y218393D01*
X265834Y218440D01*
X266003Y219291D01*
X265834Y220142D01*
X265803Y220189D01*
Y242913D01*
X265649Y243688D01*
X265210Y244344D01*
X255609Y253945D01*
X255598Y254001D01*
X255566Y254048D01*
Y264376D01*
X256066Y264527D01*
X256301Y264176D01*
X257023Y263693D01*
X257874Y263524D01*
X258725Y263693D01*
X259447Y264176D01*
X259929Y264897D01*
X260098Y265748D01*
X259929Y266599D01*
X259447Y267320D01*
X258725Y267803D01*
X258419Y267863D01*
Y276155D01*
X258462Y276183D01*
X258944Y276905D01*
X259114Y277756D01*
X258944Y278607D01*
X258462Y279328D01*
X258419Y279357D01*
Y292099D01*
X258462Y292128D01*
X258944Y292850D01*
X259114Y293701D01*
X258944Y294552D01*
X258462Y295273D01*
X258419Y295302D01*
Y302204D01*
X258659Y302364D01*
X259141Y303086D01*
X259310Y303937D01*
X259141Y304788D01*
X258659Y305509D01*
X257938Y305992D01*
X257087Y306161D01*
X256236Y305992D01*
X256007Y305839D01*
X255566Y306075D01*
Y307823D01*
X256942Y309199D01*
X257381Y309856D01*
X257504Y310472D01*
X257566Y310566D01*
X257736Y311417D01*
X257566Y312268D01*
X257084Y312990D01*
X256363Y313472D01*
X255512Y313641D01*
X254661Y313472D01*
X253939Y312990D01*
X253457Y312268D01*
X253288Y311417D01*
X253313Y311292D01*
X252113Y310092D01*
X251674Y309436D01*
X251520Y308661D01*
Y254048D01*
X251489Y254001D01*
X251320Y253150D01*
X251489Y252299D01*
X251971Y251577D01*
X252692Y251095D01*
X252748Y251084D01*
X254423Y249409D01*
X254176Y248948D01*
X253543Y249074D01*
X252692Y248905D01*
X251971Y248423D01*
X251489Y247701D01*
X251320Y246850D01*
X251489Y245999D01*
X251971Y245278D01*
X252014Y245249D01*
Y217563D01*
X251626Y217174D01*
X251575Y217184D01*
X250724Y217015D01*
X250002Y216533D01*
X249520Y215812D01*
X249351Y214961D01*
X249520Y214110D01*
X250002Y213388D01*
X250724Y212906D01*
X251575Y212737D01*
X252426Y212906D01*
X253147Y213388D01*
X253482Y213890D01*
X253982Y213738D01*
Y182970D01*
X253937Y182932D01*
X253086Y182763D01*
X252364Y182281D01*
X251883Y181560D01*
X251713Y180709D01*
X251883Y179858D01*
X252364Y179136D01*
X253086Y178654D01*
X253937Y178485D01*
X254788Y178654D01*
X255509Y179136D01*
X255992Y179858D01*
X256161Y180709D01*
X256151Y180760D01*
X256593Y181202D01*
X256925Y181698D01*
X257041Y182283D01*
Y214961D01*
X256925Y215546D01*
X256593Y216042D01*
X255073Y217563D01*
Y245249D01*
X255116Y245278D01*
X255598Y245999D01*
X255767Y246850D01*
X255641Y247483D01*
X256102Y247730D01*
X261756Y242075D01*
Y220189D01*
X261725Y220142D01*
X261556Y219291D01*
X261725Y218440D01*
X261756Y218393D01*
Y152079D01*
X261725Y152032D01*
X261556Y151181D01*
X261725Y150330D01*
X261756Y150283D01*
Y148819D01*
X240112Y148819D01*
Y168477D01*
X240155Y168506D01*
X240637Y169228D01*
X240807Y170079D01*
X240637Y170930D01*
X240155Y171651D01*
X239434Y172133D01*
X238583Y172303D01*
X237732Y172133D01*
X237010Y171651D01*
X236528Y170930D01*
X236359Y170079D01*
X236528Y169228D01*
X237010Y168506D01*
X237053Y168477D01*
Y148819D01*
X234994D01*
Y173989D01*
X235037Y174018D01*
X235519Y174740D01*
X235688Y175591D01*
X235519Y176442D01*
X235037Y177163D01*
X234316Y177645D01*
X233465Y177814D01*
X232613Y177645D01*
X231892Y177163D01*
X231410Y176442D01*
X231241Y175591D01*
X231410Y174740D01*
X231892Y174018D01*
X231935Y173989D01*
Y148819D01*
X228795D01*
Y152645D01*
X228826Y152692D01*
X228995Y153543D01*
X228826Y154394D01*
X228795Y154441D01*
Y182960D01*
X228826Y183007D01*
X228995Y183858D01*
X228826Y184709D01*
X228795Y184756D01*
Y216425D01*
X228826Y216472D01*
X228995Y217323D01*
X228826Y218174D01*
X228344Y218895D01*
X227623Y219377D01*
X226772Y219547D01*
X225921Y219377D01*
X225874Y219346D01*
X224460D01*
X214621Y229185D01*
Y235902D01*
X215122Y236117D01*
X215684Y235741D01*
X216535Y235572D01*
X217387Y235741D01*
X217734Y235973D01*
X233053D01*
X233401Y235741D01*
X234252Y235572D01*
X235103Y235741D01*
X235824Y236223D01*
X236307Y236944D01*
X236476Y237795D01*
X236307Y238646D01*
X235824Y239368D01*
X235103Y239850D01*
X234252Y240019D01*
X233401Y239850D01*
X233053Y239618D01*
X217734D01*
X217387Y239850D01*
X216535Y240019D01*
X215684Y239850D01*
X215122Y239474D01*
X214621Y239688D01*
Y245225D01*
X218554Y249158D01*
X225874D01*
X225921Y249127D01*
X226772Y248957D01*
X227623Y249127D01*
X228344Y249609D01*
X228826Y250330D01*
X228995Y251181D01*
X228826Y252032D01*
X228344Y252754D01*
X227623Y253236D01*
X226772Y253405D01*
X225921Y253236D01*
X225874Y253204D01*
X217717D01*
X216942Y253050D01*
X216286Y252612D01*
X211168Y247494D01*
X211085Y247369D01*
X210584Y247520D01*
Y286981D01*
X210628Y287010D01*
X211110Y287732D01*
X211279Y288583D01*
X211110Y289434D01*
X210628Y290155D01*
X209906Y290637D01*
X209055Y290807D01*
X208204Y290637D01*
X207935Y290457D01*
X207435Y290725D01*
Y294199D01*
X207872Y294491D01*
X208354Y295212D01*
X208523Y296063D01*
X208354Y296914D01*
X207872Y297636D01*
X207532Y297862D01*
X207478Y298428D01*
X207960Y299149D01*
X208129Y300000D01*
X207960Y300851D01*
X207478Y301572D01*
X206756Y302055D01*
X205906Y302224D01*
X205054Y302055D01*
X204333Y301572D01*
X203851Y300851D01*
X203764Y300415D01*
X202068Y298719D01*
X201737Y298223D01*
X201720Y298138D01*
X201164Y297908D01*
X200851Y298117D01*
X200000Y298287D01*
X199149Y298117D01*
X198427Y297636D01*
X197945Y296914D01*
X197776Y296063D01*
X197945Y295212D01*
X198029Y295088D01*
X197668Y294727D01*
X197308Y294968D01*
X196457Y295137D01*
X195606Y294968D01*
X194884Y294486D01*
X194402Y293764D01*
X194233Y292913D01*
X194328Y292437D01*
X193878Y292136D01*
X193764Y292212D01*
X192913Y292381D01*
X192062Y292212D01*
X191341Y291730D01*
X190859Y291008D01*
X190690Y290158D01*
X190859Y289306D01*
X191341Y288585D01*
X191384Y288556D01*
Y275590D01*
X191500Y275005D01*
X191832Y274509D01*
X192959Y273382D01*
Y272116D01*
X192459Y271909D01*
X190796Y273571D01*
X190806Y273622D01*
X190637Y274473D01*
X190155Y275195D01*
X189434Y275677D01*
X188583Y275846D01*
X187732Y275677D01*
X187010Y275195D01*
X186528Y274473D01*
X186359Y273622D01*
X186528Y272771D01*
X187010Y272050D01*
X187732Y271568D01*
X188583Y271398D01*
X188634Y271408D01*
X190203Y269839D01*
Y260627D01*
X189703Y260347D01*
X188976Y260492D01*
X188125Y260322D01*
X187404Y259840D01*
X186922Y259119D01*
X186752Y258268D01*
X186922Y257417D01*
X187404Y256695D01*
X187447Y256666D01*
Y255553D01*
X186947Y255402D01*
X186612Y255903D01*
X185890Y256385D01*
X185539Y256455D01*
Y254331D01*
Y252206D01*
X185890Y252276D01*
X186612Y252758D01*
X186947Y253260D01*
X187447Y253108D01*
Y239937D01*
X186947Y239670D01*
X186678Y239850D01*
X185827Y240019D01*
X184976Y239850D01*
X184254Y239368D01*
X183772Y238646D01*
X183603Y237795D01*
X183772Y236944D01*
X184254Y236223D01*
X184297Y236194D01*
Y212992D01*
X184414Y212407D01*
X184745Y211911D01*
X184794Y211862D01*
X184784Y211811D01*
X184953Y210960D01*
X185435Y210239D01*
X186157Y209756D01*
X187008Y209587D01*
X187859Y209756D01*
X188580Y210239D01*
X189062Y210960D01*
X189232Y211811D01*
X189062Y212662D01*
X188580Y213384D01*
X187859Y213866D01*
X187356Y213966D01*
Y221266D01*
X187856Y221417D01*
X187895Y221359D01*
X189985Y219270D01*
X190071Y218834D01*
X190553Y218113D01*
X191275Y217631D01*
X192126Y217461D01*
X192977Y217631D01*
X193699Y218113D01*
X194181Y218834D01*
X194350Y219685D01*
X194181Y220536D01*
X193699Y221257D01*
X192977Y221740D01*
X192126Y221909D01*
X191747Y221833D01*
X190506Y223074D01*
Y242872D01*
X191006Y243024D01*
X191341Y242522D01*
X192062Y242040D01*
X192913Y241871D01*
X193764Y242040D01*
X194486Y242522D01*
X194968Y243244D01*
X195137Y244094D01*
X194968Y244946D01*
X194486Y245667D01*
X193764Y246149D01*
X193262Y246249D01*
Y253895D01*
X193762Y254047D01*
X194097Y253546D01*
X194818Y253064D01*
X195669Y252894D01*
X196520Y253064D01*
X196790Y253243D01*
X197290Y252976D01*
Y251208D01*
X197246Y251179D01*
X196764Y250457D01*
X196595Y249606D01*
X196764Y248755D01*
X197246Y248034D01*
X197968Y247552D01*
X198819Y247382D01*
X199670Y247552D01*
X200391Y248034D01*
X200873Y248755D01*
X201043Y249606D01*
X200873Y250457D01*
X200391Y251179D01*
X200348Y251208D01*
Y259029D01*
X200391Y259057D01*
X200873Y259779D01*
X201043Y260630D01*
X200873Y261481D01*
X200391Y262202D01*
X199670Y262684D01*
X198819Y262854D01*
X197968Y262684D01*
X197246Y262202D01*
X196764Y261481D01*
X196595Y260630D01*
X196764Y259779D01*
X197246Y259057D01*
X197290Y259029D01*
Y257260D01*
X196790Y256993D01*
X196520Y257173D01*
X196018Y257273D01*
Y274016D01*
X195901Y274601D01*
X195570Y275097D01*
X194443Y276224D01*
Y276997D01*
X194943Y277129D01*
X195606Y276686D01*
X196457Y276516D01*
X197308Y276686D01*
X198029Y277168D01*
X198511Y277889D01*
X198680Y278740D01*
X198511Y279591D01*
X198029Y280313D01*
X197986Y280341D01*
Y284083D01*
X198486Y284215D01*
X199149Y283772D01*
X200000Y283603D01*
X200851Y283772D01*
X201120Y283952D01*
X201620Y283685D01*
Y277586D01*
X201577Y277557D01*
X201095Y276835D01*
X200926Y275984D01*
X201095Y275133D01*
X201577Y274412D01*
X202299Y273930D01*
X203150Y273760D01*
X203876Y273905D01*
X204376Y273625D01*
Y240791D01*
X203594Y240009D01*
X203543Y240019D01*
X202692Y239850D01*
X201971Y239368D01*
X201489Y238646D01*
X201320Y237795D01*
X201489Y236944D01*
X201971Y236223D01*
X202692Y235741D01*
X203543Y235572D01*
X204394Y235741D01*
X205116Y236223D01*
X205598Y236944D01*
X205767Y237795D01*
X205757Y237846D01*
X206987Y239076D01*
X207026Y239134D01*
X207526Y238982D01*
Y208665D01*
X205563Y206702D01*
X205512Y206712D01*
X204661Y206543D01*
X204392Y206363D01*
X203892Y206630D01*
Y220840D01*
X203935Y220868D01*
X204417Y221590D01*
X204586Y222441D01*
X204417Y223292D01*
X203935Y224013D01*
X203213Y224496D01*
X202362Y224665D01*
X201511Y224496D01*
X200790Y224013D01*
X200308Y223292D01*
X200138Y222441D01*
X200308Y221590D01*
X200790Y220868D01*
X200833Y220840D01*
Y190945D01*
X200949Y190360D01*
X201281Y189863D01*
X202117Y189027D01*
X202107Y188976D01*
X202276Y188125D01*
X202758Y187404D01*
X203480Y186922D01*
X204331Y186752D01*
X205182Y186922D01*
X205903Y187404D01*
X206385Y188125D01*
X206555Y188976D01*
X206385Y189827D01*
X205903Y190549D01*
X205182Y191031D01*
X204331Y191200D01*
X204280Y191190D01*
X203892Y191578D01*
Y202346D01*
X204392Y202613D01*
X204661Y202434D01*
X205512Y202264D01*
X206363Y202434D01*
X207084Y202916D01*
X207566Y203637D01*
X207736Y204488D01*
X207726Y204539D01*
X210137Y206950D01*
X210468Y207446D01*
X210584Y208032D01*
Y226889D01*
X211085Y227041D01*
X211168Y226916D01*
X222192Y215892D01*
X222848Y215454D01*
X223622Y215300D01*
X224748D01*
Y184756D01*
X224717Y184709D01*
X224548Y183858D01*
X224717Y183007D01*
X224748Y182960D01*
Y154441D01*
X224717Y154394D01*
X224548Y153543D01*
X224717Y152692D01*
X224748Y152645D01*
Y148819D01*
X195669Y148819D01*
X183813Y160675D01*
Y170431D01*
X184313Y170583D01*
X184648Y170081D01*
X185370Y169599D01*
X186221Y169430D01*
X187072Y169599D01*
X187793Y170081D01*
X188275Y170802D01*
X188444Y171653D01*
X188275Y172505D01*
X188029Y172873D01*
X188429Y173274D01*
X201548D01*
X201577Y173231D01*
X202299Y172749D01*
X203150Y172579D01*
X204001Y172749D01*
X204722Y173231D01*
X205204Y173952D01*
X205373Y174803D01*
X205204Y175654D01*
X204722Y176376D01*
X204001Y176858D01*
X203150Y177027D01*
X202299Y176858D01*
X201577Y176376D01*
X201548Y176332D01*
X187795D01*
X187210Y176216D01*
X186714Y175885D01*
X185139Y174310D01*
X184808Y173814D01*
X184697Y173259D01*
X184648Y173226D01*
X184313Y172724D01*
X183813Y172876D01*
Y189764D01*
X183696Y190349D01*
X183365Y190845D01*
X182922Y191288D01*
X182932Y191339D01*
X182763Y192190D01*
X182281Y192911D01*
X181560Y193393D01*
X180709Y193562D01*
X179858Y193393D01*
X179136Y192911D01*
X178654Y192190D01*
X178485Y191339D01*
X178654Y190488D01*
X179136Y189766D01*
X179858Y189284D01*
X180709Y189115D01*
X180754Y189077D01*
Y187181D01*
X180254Y186914D01*
X179985Y187094D01*
X179634Y187164D01*
Y185039D01*
Y182915D01*
X179985Y182985D01*
X180254Y183165D01*
X180754Y182897D01*
Y164387D01*
X180292Y164196D01*
X171260Y173228D01*
X167535D01*
Y180362D01*
X167566Y180409D01*
X167736Y181260D01*
X167566Y182111D01*
X167535Y182158D01*
Y205294D01*
X167578Y205512D01*
X167409Y206363D01*
X167377Y206410D01*
Y215637D01*
X167409Y215684D01*
X167578Y216535D01*
X167409Y217387D01*
X167377Y217434D01*
Y238472D01*
X167409Y238519D01*
X167578Y239370D01*
X167409Y240221D01*
X167377Y240268D01*
Y251858D01*
X167409Y251905D01*
X167578Y252756D01*
X167409Y253607D01*
X167377Y253654D01*
Y272330D01*
X167409Y272377D01*
X167578Y273228D01*
X167409Y274079D01*
X167377Y274126D01*
Y282960D01*
X167409Y283007D01*
X167578Y283858D01*
X167409Y284709D01*
X167377Y284756D01*
Y305795D01*
X167409Y305842D01*
X167578Y306693D01*
X167409Y307544D01*
X166927Y308265D01*
X166205Y308748D01*
X165354Y308917D01*
X164503Y308748D01*
X163782Y308265D01*
X163300Y307544D01*
X163130Y306693D01*
X163300Y305842D01*
X163331Y305795D01*
Y284756D01*
X163300Y284709D01*
X163130Y283858D01*
X163300Y283007D01*
X163331Y282960D01*
Y274126D01*
X163300Y274079D01*
X163130Y273228D01*
X163300Y272377D01*
X163331Y272330D01*
Y257278D01*
X162831Y257126D01*
X162596Y257478D01*
X161875Y257960D01*
X161524Y258030D01*
Y255906D01*
Y253781D01*
X161875Y253851D01*
X162596Y254333D01*
X162831Y254685D01*
X163331Y254533D01*
Y253654D01*
X163300Y253607D01*
X163130Y252756D01*
X163300Y251905D01*
X163331Y251858D01*
Y240268D01*
X163300Y240221D01*
X163130Y239370D01*
X163300Y238519D01*
X163331Y238472D01*
Y219848D01*
X162831Y219798D01*
X162783Y220040D01*
X162685Y220536D01*
X162202Y221257D01*
X161481Y221740D01*
X161130Y221809D01*
Y219685D01*
Y217561D01*
X161481Y217631D01*
X162202Y218113D01*
X162685Y218834D01*
X162783Y219330D01*
X162831Y219572D01*
X163331Y219523D01*
Y217434D01*
X163300Y217387D01*
X163130Y216535D01*
X163300Y215684D01*
X163331Y215637D01*
Y206410D01*
X163300Y206363D01*
X163130Y205512D01*
X163300Y204661D01*
X163489Y204378D01*
Y187553D01*
X162990Y187399D01*
X162268Y187881D01*
X161917Y187951D01*
Y185827D01*
Y183702D01*
X162268Y183772D01*
X162990Y184254D01*
X163489Y184101D01*
Y182158D01*
X163457Y182111D01*
X163288Y181260D01*
X163457Y180409D01*
X163489Y180362D01*
Y173228D01*
X131306Y173228D01*
X131039Y173728D01*
X131188Y173952D01*
X131358Y174803D01*
X131188Y175654D01*
X130706Y176376D01*
X129985Y176858D01*
X129134Y177027D01*
X129083Y177017D01*
X128695Y177405D01*
Y183044D01*
X128738Y183073D01*
X129220Y183795D01*
X129389Y184646D01*
X129220Y185497D01*
X128738Y186218D01*
X128016Y186700D01*
X127165Y186870D01*
X126314Y186700D01*
X125593Y186218D01*
X125111Y185497D01*
X124942Y184646D01*
X125111Y183795D01*
X125593Y183073D01*
X125636Y183044D01*
Y176772D01*
X125752Y176186D01*
X126084Y175690D01*
X126920Y174854D01*
X126910Y174803D01*
X127079Y173952D01*
X127229Y173728D01*
X126962Y173228D01*
X122041D01*
X121324Y173708D01*
X120472Y173877D01*
X119621Y173708D01*
X118903Y173228D01*
X95276Y173228D01*
X87795Y180709D01*
X87795Y298031D01*
X114173Y324410D01*
X275197D01*
X281299Y318307D01*
D02*
G37*
G36*
X281288Y310321D02*
X281285Y308616D01*
X280315D01*
X279730Y308500D01*
X279234Y308168D01*
X276084Y305018D01*
X275752Y304522D01*
X275636Y303937D01*
Y263386D01*
X275752Y262801D01*
X276084Y262304D01*
X278392Y259996D01*
Y162231D01*
X278349Y162202D01*
X277867Y161481D01*
X277697Y160630D01*
X277867Y159779D01*
X278349Y159057D01*
X279070Y158575D01*
X279921Y158406D01*
X280772Y158575D01*
X281494Y159057D01*
X281976Y159779D01*
X282145Y160630D01*
X281976Y161481D01*
X281494Y162202D01*
X281451Y162231D01*
Y182463D01*
X281913Y182654D01*
X288583Y175984D01*
Y158110D01*
X288083Y157941D01*
X287465Y158354D01*
X286614Y158523D01*
X285763Y158354D01*
X285042Y157872D01*
X284560Y157150D01*
X284390Y156299D01*
X284401Y156248D01*
X283225Y155073D01*
X278192D01*
X275939Y157326D01*
Y238976D01*
X275822Y239562D01*
X275491Y240058D01*
X265309Y250240D01*
Y267154D01*
X265809Y267286D01*
X266472Y266843D01*
X266823Y266773D01*
Y268898D01*
Y271022D01*
X266472Y270952D01*
X265809Y270509D01*
X265309Y270641D01*
Y298579D01*
X277405Y310675D01*
X280934D01*
X281288Y310321D01*
D02*
G37*
G36*
X237795Y126772D02*
X241732Y127165D01*
X243701Y125197D01*
Y107874D01*
X241339Y105512D01*
X221654D01*
X220472Y106693D01*
X220472Y124803D01*
X223228Y127559D01*
X237008D01*
X237795Y126772D01*
D02*
G37*
%LPC*%
G36*
X93043Y187112D02*
X92460Y187035D01*
X91451Y186617D01*
X90584Y185952D01*
X89919Y185085D01*
X89500Y184075D01*
X89424Y183492D01*
X93043D01*
Y187112D01*
D02*
G37*
G36*
X178634Y184539D02*
X177009D01*
X177079Y184188D01*
X177561Y183467D01*
X178283Y182985D01*
X178634Y182915D01*
Y184539D01*
D02*
G37*
G36*
X103043Y187112D02*
X102460Y187035D01*
X101451Y186617D01*
X100584Y185952D01*
X99919Y185085D01*
X99501Y184075D01*
X99424Y183492D01*
X103043D01*
Y187112D01*
D02*
G37*
G36*
X104043Y187112D02*
Y183492D01*
X107663D01*
X107586Y184075D01*
X107168Y185085D01*
X106503Y185952D01*
X105636Y186617D01*
X104627Y187035D01*
X104043Y187112D01*
D02*
G37*
G36*
X94043D02*
Y183492D01*
X97663D01*
X97586Y184075D01*
X97168Y185085D01*
X96503Y185952D01*
X95636Y186617D01*
X94627Y187035D01*
X94043Y187112D01*
D02*
G37*
G36*
X97663Y182492D02*
X94043D01*
Y178873D01*
X94627Y178949D01*
X95636Y179367D01*
X96503Y180033D01*
X97168Y180899D01*
X97586Y181909D01*
X97663Y182492D01*
D02*
G37*
G36*
X103043D02*
X99424D01*
X99501Y181909D01*
X99919Y180899D01*
X100584Y180033D01*
X101451Y179367D01*
X102460Y178949D01*
X103043Y178873D01*
Y182492D01*
D02*
G37*
G36*
X93043D02*
X89424D01*
X89500Y181909D01*
X89919Y180899D01*
X90584Y180033D01*
X91451Y179367D01*
X92460Y178949D01*
X93043Y178873D01*
Y182492D01*
D02*
G37*
G36*
X107663D02*
X104043D01*
Y178873D01*
X104627Y178949D01*
X105636Y179367D01*
X106503Y180033D01*
X107168Y180899D01*
X107586Y181909D01*
X107663Y182492D01*
D02*
G37*
G36*
X186221Y204586D02*
X185370Y204417D01*
X184648Y203935D01*
X184166Y203213D01*
X183997Y202362D01*
X184166Y201511D01*
X184648Y200790D01*
X184691Y200761D01*
Y185827D01*
X184808Y185241D01*
X184820Y185222D01*
X184784Y185039D01*
X184953Y184188D01*
X185435Y183467D01*
X186157Y182985D01*
X187008Y182816D01*
X187859Y182985D01*
X188580Y183467D01*
X189062Y184188D01*
X189232Y185039D01*
X189062Y185890D01*
X188580Y186612D01*
X187859Y187094D01*
X187750Y187116D01*
Y200761D01*
X187793Y200790D01*
X188275Y201511D01*
X188444Y202362D01*
X188275Y203213D01*
X187793Y203935D01*
X187072Y204417D01*
X186221Y204586D01*
D02*
G37*
G36*
X114673Y182046D02*
Y180421D01*
X116298D01*
X116228Y180772D01*
X115746Y181494D01*
X115024Y181976D01*
X114673Y182046D01*
D02*
G37*
G36*
X113673D02*
X113322Y181976D01*
X112601Y181494D01*
X112119Y180772D01*
X112049Y180421D01*
X113673D01*
Y182046D01*
D02*
G37*
G36*
X119185Y191495D02*
X118834Y191425D01*
X118113Y190943D01*
X117631Y190221D01*
X117561Y189870D01*
X119185D01*
Y191495D01*
D02*
G37*
G36*
X103543Y197178D02*
X102460Y197035D01*
X101451Y196617D01*
X100584Y195952D01*
X99919Y195085D01*
X99501Y194075D01*
X99358Y192992D01*
X99501Y191909D01*
X99919Y190899D01*
X100584Y190033D01*
X101451Y189367D01*
X102460Y188949D01*
X103543Y188807D01*
X104627Y188949D01*
X105636Y189367D01*
X106503Y190033D01*
X107168Y190899D01*
X107586Y191909D01*
X107729Y192992D01*
X107586Y194075D01*
X107168Y195085D01*
X106503Y195952D01*
X105636Y196617D01*
X104627Y197035D01*
X103543Y197178D01*
D02*
G37*
G36*
X93543D02*
X92460Y197035D01*
X91451Y196617D01*
X90584Y195952D01*
X89919Y195085D01*
X89500Y194075D01*
X89358Y192992D01*
X89500Y191909D01*
X89919Y190899D01*
X90584Y190033D01*
X91451Y189367D01*
X92460Y188949D01*
X93543Y188807D01*
X94627Y188949D01*
X95636Y189367D01*
X96503Y190033D01*
X97168Y190899D01*
X97586Y191909D01*
X97729Y192992D01*
X97586Y194075D01*
X97168Y195085D01*
X96503Y195952D01*
X95636Y196617D01*
X94627Y197035D01*
X93543Y197178D01*
D02*
G37*
G36*
X103543Y207177D02*
X102460Y207035D01*
X101451Y206617D01*
X100584Y205952D01*
X99919Y205085D01*
X99501Y204075D01*
X99358Y202992D01*
X99501Y201909D01*
X99919Y200899D01*
X100584Y200033D01*
X101451Y199367D01*
X102460Y198949D01*
X103543Y198807D01*
X104627Y198949D01*
X105636Y199367D01*
X106503Y200033D01*
X107168Y200899D01*
X107586Y201909D01*
X107729Y202992D01*
X107586Y204075D01*
X107168Y205085D01*
X106503Y205952D01*
X105636Y206617D01*
X104627Y207035D01*
X103543Y207177D01*
D02*
G37*
G36*
X93543D02*
X92460Y207035D01*
X91451Y206617D01*
X90584Y205952D01*
X89919Y205085D01*
X89500Y204075D01*
X89358Y202992D01*
X89500Y201909D01*
X89919Y200899D01*
X90584Y200033D01*
X91451Y199367D01*
X92460Y198949D01*
X93543Y198807D01*
X94627Y198949D01*
X95636Y199367D01*
X96503Y200033D01*
X97168Y200899D01*
X97586Y201909D01*
X97729Y202992D01*
X97586Y204075D01*
X97168Y205085D01*
X96503Y205952D01*
X95636Y206617D01*
X94627Y207035D01*
X93543Y207177D01*
D02*
G37*
G36*
X120185Y191495D02*
Y189870D01*
X121809D01*
X121740Y190221D01*
X121257Y190943D01*
X120536Y191425D01*
X120185Y191495D01*
D02*
G37*
G36*
X178634Y187164D02*
X178283Y187094D01*
X177561Y186612D01*
X177079Y185890D01*
X177009Y185539D01*
X178634D01*
Y187164D01*
D02*
G37*
G36*
X160917Y185327D02*
X159293D01*
X159363Y184976D01*
X159845Y184254D01*
X160566Y183772D01*
X160917Y183702D01*
Y185327D01*
D02*
G37*
G36*
X118110Y200255D02*
X117259Y200086D01*
X116538Y199604D01*
X116056Y198882D01*
X115886Y198031D01*
X116056Y197180D01*
X116538Y196459D01*
X117259Y195977D01*
X118110Y195808D01*
X118161Y195818D01*
X119785Y194194D01*
X120281Y193863D01*
X120866Y193746D01*
X125351D01*
X134352Y184745D01*
X134848Y184414D01*
X135433Y184297D01*
X138556D01*
X138585Y184254D01*
X139306Y183772D01*
X140157Y183603D01*
X141008Y183772D01*
X141730Y184254D01*
X142212Y184976D01*
X142381Y185827D01*
X142212Y186678D01*
X141730Y187399D01*
X141008Y187881D01*
X140157Y188051D01*
X139306Y187881D01*
X138585Y187399D01*
X138556Y187356D01*
X136067D01*
X127066Y196357D01*
X126569Y196689D01*
X125984Y196805D01*
X121500D01*
X120324Y197981D01*
X120334Y198031D01*
X120165Y198882D01*
X119683Y199604D01*
X118961Y200086D01*
X118110Y200255D01*
D02*
G37*
G36*
X121809Y188870D02*
X120185D01*
Y187246D01*
X120536Y187315D01*
X121257Y187798D01*
X121740Y188519D01*
X121809Y188870D01*
D02*
G37*
G36*
X119185D02*
X117561D01*
X117631Y188519D01*
X118113Y187798D01*
X118834Y187315D01*
X119185Y187246D01*
Y188870D01*
D02*
G37*
G36*
X160917Y187951D02*
X160566Y187881D01*
X159845Y187399D01*
X159363Y186678D01*
X159293Y186327D01*
X160917D01*
Y187951D01*
D02*
G37*
G36*
X116298Y179421D02*
X114673D01*
Y177797D01*
X115024Y177867D01*
X115746Y178349D01*
X116228Y179070D01*
X116298Y179421D01*
D02*
G37*
G36*
X281390Y146350D02*
X279765D01*
X279835Y145999D01*
X280317Y145278D01*
X281039Y144796D01*
X281390Y144726D01*
Y146350D01*
D02*
G37*
G36*
X282390Y148975D02*
Y147350D01*
X284014D01*
X283944Y147701D01*
X283462Y148423D01*
X282741Y148905D01*
X282390Y148975D01*
D02*
G37*
G36*
X281390D02*
X281039Y148905D01*
X280317Y148423D01*
X279835Y147701D01*
X279765Y147350D01*
X281390D01*
Y148975D01*
D02*
G37*
G36*
X284014Y146350D02*
X282390D01*
Y144726D01*
X282741Y144796D01*
X283462Y145278D01*
X283944Y145999D01*
X284014Y146350D01*
D02*
G37*
G36*
X271416Y173516D02*
X269791D01*
Y171891D01*
X270142Y171961D01*
X270864Y172443D01*
X271346Y173165D01*
X271416Y173516D01*
D02*
G37*
G36*
X268791D02*
X267167D01*
X267237Y173165D01*
X267719Y172443D01*
X268440Y171961D01*
X268791Y171891D01*
Y173516D01*
D02*
G37*
G36*
X187114Y164723D02*
Y163098D01*
X188739D01*
X188669Y163450D01*
X188187Y164171D01*
X187465Y164653D01*
X187114Y164723D01*
D02*
G37*
G36*
X113673Y179421D02*
X112049D01*
X112119Y179070D01*
X112601Y178349D01*
X113322Y177867D01*
X113673Y177797D01*
Y179421D01*
D02*
G37*
G36*
X269791Y176140D02*
Y174516D01*
X271416D01*
X271346Y174867D01*
X270864Y175588D01*
X270142Y176070D01*
X269791Y176140D01*
D02*
G37*
G36*
X268791D02*
X268440Y176070D01*
X267719Y175588D01*
X267237Y174867D01*
X267167Y174516D01*
X268791D01*
Y176140D01*
D02*
G37*
G36*
X271941Y155274D02*
X271590Y155204D01*
X270868Y154722D01*
X270386Y154001D01*
X270317Y153650D01*
X271941D01*
Y155274D01*
D02*
G37*
G36*
X274565Y152650D02*
X272941D01*
Y151025D01*
X273292Y151095D01*
X274013Y151577D01*
X274496Y152299D01*
X274565Y152650D01*
D02*
G37*
G36*
X271941D02*
X270317D01*
X270386Y152299D01*
X270868Y151577D01*
X271590Y151095D01*
X271941Y151025D01*
Y152650D01*
D02*
G37*
G36*
X186114Y164723D02*
X185763Y164653D01*
X185042Y164171D01*
X184560Y163450D01*
X184490Y163098D01*
X186114D01*
Y164723D01*
D02*
G37*
G36*
X188739Y162098D02*
X187114D01*
Y160474D01*
X187465Y160544D01*
X188187Y161026D01*
X188669Y161747D01*
X188739Y162098D01*
D02*
G37*
G36*
X186114D02*
X184490D01*
X184560Y161747D01*
X185042Y161026D01*
X185763Y160544D01*
X186114Y160474D01*
Y162098D01*
D02*
G37*
G36*
X151469Y208555D02*
X149844D01*
X149914Y208204D01*
X150396Y207483D01*
X151118Y207001D01*
X151469Y206931D01*
Y208555D01*
D02*
G37*
G36*
X160524Y255405D02*
X158899D01*
X158969Y255054D01*
X159451Y254333D01*
X160173Y253851D01*
X160524Y253781D01*
Y255405D01*
D02*
G37*
G36*
X179815Y253831D02*
X178191D01*
X178260Y253480D01*
X178743Y252758D01*
X179464Y252276D01*
X179815Y252206D01*
Y253831D01*
D02*
G37*
G36*
X103543Y257177D02*
X102460Y257035D01*
X101451Y256617D01*
X100584Y255952D01*
X99919Y255085D01*
X99501Y254075D01*
X99358Y252992D01*
X99501Y251909D01*
X99919Y250899D01*
X100584Y250033D01*
X101451Y249367D01*
X102460Y248949D01*
X103543Y248807D01*
X104627Y248949D01*
X105636Y249367D01*
X106503Y250033D01*
X107168Y250899D01*
X107586Y251909D01*
X107729Y252992D01*
X107586Y254075D01*
X107168Y255085D01*
X106503Y255952D01*
X105636Y256617D01*
X104627Y257035D01*
X103543Y257177D01*
D02*
G37*
G36*
X160524Y258030D02*
X160173Y257960D01*
X159451Y257478D01*
X158969Y256756D01*
X158899Y256405D01*
X160524D01*
Y258030D01*
D02*
G37*
G36*
X184539Y256455D02*
X184188Y256385D01*
X183467Y255903D01*
X182985Y255182D01*
X182932Y254917D01*
X182422D01*
X182369Y255182D01*
X181887Y255903D01*
X181166Y256385D01*
X180815Y256455D01*
Y254331D01*
Y252206D01*
X181166Y252276D01*
X181887Y252758D01*
X182369Y253480D01*
X182422Y253745D01*
X182932D01*
X182985Y253480D01*
X183467Y252758D01*
X184188Y252276D01*
X184539Y252206D01*
Y254331D01*
Y256455D01*
D02*
G37*
G36*
X179815D02*
X179464Y256385D01*
X178743Y255903D01*
X178260Y255182D01*
X178191Y254831D01*
X179815D01*
Y256455D01*
D02*
G37*
G36*
X151287Y245431D02*
Y243807D01*
X152912D01*
X152842Y244158D01*
X152360Y244880D01*
X151638Y245362D01*
X151287Y245431D01*
D02*
G37*
G36*
X93543Y257177D02*
X92460Y257035D01*
X91451Y256617D01*
X90584Y255952D01*
X89919Y255085D01*
X89500Y254075D01*
X89358Y252992D01*
X89500Y251909D01*
X89919Y250899D01*
X90584Y250033D01*
X91451Y249367D01*
X92460Y248949D01*
X93543Y248807D01*
X94627Y248949D01*
X95636Y249367D01*
X96503Y250033D01*
X97168Y250899D01*
X97586Y251909D01*
X97729Y252992D01*
X97586Y254075D01*
X97168Y255085D01*
X96503Y255952D01*
X95636Y256617D01*
X94627Y257035D01*
X93543Y257177D01*
D02*
G37*
G36*
X142520Y291594D02*
X141669Y291425D01*
X140947Y290943D01*
X140918Y290899D01*
X131102D01*
X130517Y290783D01*
X130021Y290452D01*
X127378Y287809D01*
X126990Y288127D01*
X127251Y288519D01*
X127321Y288870D01*
X125697D01*
Y287246D01*
X126048Y287316D01*
X126439Y287577D01*
X126758Y287189D01*
X126035Y286466D01*
X125984Y286476D01*
X125133Y286307D01*
X124412Y285824D01*
X123930Y285103D01*
X123760Y284252D01*
X123930Y283401D01*
X124412Y282680D01*
X125133Y282197D01*
X125984Y282028D01*
X126835Y282197D01*
X127557Y282680D01*
X128039Y283401D01*
X128208Y284252D01*
X128198Y284303D01*
X131736Y287841D01*
X140918D01*
X140947Y287798D01*
X141669Y287316D01*
X142520Y287146D01*
X143371Y287316D01*
X144092Y287798D01*
X144574Y288519D01*
X144744Y289370D01*
X144574Y290221D01*
X144092Y290943D01*
X143371Y291425D01*
X142520Y291594D01*
D02*
G37*
G36*
X124697Y288870D02*
X123073D01*
X123142Y288519D01*
X123624Y287798D01*
X124346Y287316D01*
X124697Y287246D01*
Y288870D01*
D02*
G37*
G36*
X152469Y279290D02*
Y277665D01*
X154093D01*
X154023Y278016D01*
X153541Y278738D01*
X152820Y279220D01*
X152469Y279290D01*
D02*
G37*
G36*
X187795Y310492D02*
X186944Y310322D01*
X186223Y309840D01*
X185741Y309119D01*
X185572Y308268D01*
X185741Y307417D01*
X186223Y306695D01*
X186266Y306666D01*
Y294515D01*
X186223Y294486D01*
X185741Y293764D01*
X185572Y292913D01*
X185741Y292062D01*
X186223Y291341D01*
X186944Y290859D01*
X187795Y290690D01*
X188646Y290859D01*
X189368Y291341D01*
X189850Y292062D01*
X190019Y292913D01*
X189850Y293764D01*
X189368Y294486D01*
X189325Y294515D01*
Y306666D01*
X189368Y306695D01*
X189850Y307417D01*
X190019Y308268D01*
X189850Y309119D01*
X189368Y309840D01*
X188646Y310322D01*
X187795Y310492D01*
D02*
G37*
G36*
X125697Y291494D02*
Y289870D01*
X127321D01*
X127251Y290221D01*
X126769Y290943D01*
X126048Y291425D01*
X125697Y291494D01*
D02*
G37*
G36*
X124697D02*
X124346Y291425D01*
X123624Y290943D01*
X123142Y290221D01*
X123073Y289870D01*
X124697D01*
Y291494D01*
D02*
G37*
G36*
X145276Y286082D02*
X144425Y285913D01*
X143703Y285431D01*
X143221Y284709D01*
X143052Y283858D01*
X143221Y283007D01*
X143453Y282660D01*
Y263256D01*
X142953Y263126D01*
X142288Y263570D01*
X141437Y263740D01*
X140586Y263570D01*
X139865Y263088D01*
X139836Y263045D01*
X126913D01*
X122686Y267272D01*
X122696Y267323D01*
X122527Y268174D01*
X122045Y268895D01*
X121324Y269377D01*
X120472Y269547D01*
X119621Y269377D01*
X118900Y268895D01*
X118418Y268174D01*
X118249Y267323D01*
X118259Y267272D01*
X111517Y260530D01*
X111186Y260034D01*
X111069Y259449D01*
Y252681D01*
X105190Y246802D01*
X104627Y247035D01*
X103543Y247178D01*
X102460Y247035D01*
X101451Y246617D01*
X100584Y245952D01*
X99919Y245085D01*
X99501Y244075D01*
X99358Y242992D01*
X99501Y241909D01*
X99919Y240899D01*
X100584Y240033D01*
X101451Y239368D01*
X102460Y238949D01*
X103543Y238807D01*
X104627Y238949D01*
X105636Y239368D01*
X106503Y240033D01*
X107168Y240899D01*
X107586Y241909D01*
X107729Y242992D01*
X107586Y244075D01*
X107353Y244639D01*
X113680Y250966D01*
X114011Y251462D01*
X114128Y252047D01*
Y258815D01*
X120140Y264827D01*
X120805D01*
X125198Y260434D01*
X125694Y260103D01*
X126279Y259986D01*
X139836D01*
X139865Y259943D01*
X140586Y259461D01*
X141437Y259292D01*
X142288Y259461D01*
X142953Y259906D01*
X143453Y259776D01*
Y251986D01*
X143221Y251638D01*
X143052Y250787D01*
X143221Y249936D01*
X143453Y249589D01*
Y216553D01*
X143221Y216205D01*
X143052Y215354D01*
X143221Y214503D01*
X143453Y214156D01*
Y182301D01*
X143221Y181953D01*
X143052Y181102D01*
X143221Y180251D01*
X143703Y179530D01*
X144425Y179048D01*
X145276Y178878D01*
X146127Y179048D01*
X146848Y179530D01*
X147330Y180251D01*
X147499Y181102D01*
X147330Y181953D01*
X147098Y182301D01*
Y214156D01*
X147330Y214503D01*
X147499Y215354D01*
X147330Y216205D01*
X147098Y216553D01*
Y249589D01*
X147330Y249936D01*
X147499Y250787D01*
X147330Y251638D01*
X147098Y251986D01*
Y282660D01*
X147330Y283007D01*
X147499Y283858D01*
X147330Y284709D01*
X146848Y285431D01*
X146127Y285913D01*
X145276Y286082D01*
D02*
G37*
G36*
X151469Y279290D02*
X151118Y279220D01*
X150396Y278738D01*
X149914Y278016D01*
X149844Y277665D01*
X151469D01*
Y279290D01*
D02*
G37*
G36*
X154093Y276665D02*
X152469D01*
Y275041D01*
X152820Y275111D01*
X153541Y275593D01*
X154023Y276314D01*
X154093Y276665D01*
D02*
G37*
G36*
X151469D02*
X149844D01*
X149914Y276314D01*
X150396Y275593D01*
X151118Y275111D01*
X151469Y275041D01*
Y276665D01*
D02*
G37*
G36*
X93543Y227178D02*
X92460Y227035D01*
X91451Y226617D01*
X90584Y225952D01*
X89919Y225085D01*
X89500Y224075D01*
X89358Y222992D01*
X89500Y221909D01*
X89919Y220899D01*
X90584Y220033D01*
X91451Y219368D01*
X92460Y218949D01*
X93543Y218807D01*
X94627Y218949D01*
X95636Y219368D01*
X96503Y220033D01*
X97168Y220899D01*
X97586Y221909D01*
X97729Y222992D01*
X97586Y224075D01*
X97168Y225085D01*
X96503Y225952D01*
X95636Y226617D01*
X94627Y227035D01*
X93543Y227178D01*
D02*
G37*
G36*
X160130Y219185D02*
X158505D01*
X158575Y218834D01*
X159057Y218113D01*
X159779Y217631D01*
X160130Y217561D01*
Y219185D01*
D02*
G37*
G36*
X140551Y221515D02*
X139700Y221346D01*
X138979Y220864D01*
X138950Y220821D01*
X138583D01*
X137997Y220704D01*
X137501Y220373D01*
X127603Y210475D01*
X127163Y210234D01*
X126442Y210716D01*
X125591Y210885D01*
X124740Y210716D01*
X124018Y210234D01*
X123536Y209512D01*
X123367Y208661D01*
X123536Y207810D01*
X124018Y207089D01*
X124740Y206607D01*
X125591Y206438D01*
X126442Y206607D01*
X127163Y207089D01*
X127192Y207132D01*
X127953D01*
X128538Y207248D01*
X129034Y207580D01*
X139095Y217641D01*
X139700Y217237D01*
X140551Y217068D01*
X141402Y217237D01*
X142124Y217719D01*
X142606Y218440D01*
X142775Y219291D01*
X142606Y220142D01*
X142124Y220864D01*
X141402Y221346D01*
X140551Y221515D01*
D02*
G37*
G36*
X118398Y225091D02*
X116773D01*
X116843Y224740D01*
X117325Y224018D01*
X118047Y223536D01*
X118398Y223466D01*
Y225091D01*
D02*
G37*
G36*
X160130Y221809D02*
X159779Y221740D01*
X159057Y221257D01*
X158575Y220536D01*
X158505Y220185D01*
X160130D01*
Y221809D01*
D02*
G37*
G36*
X103543Y227178D02*
X102460Y227035D01*
X101451Y226617D01*
X100584Y225952D01*
X99919Y225085D01*
X99501Y224075D01*
X99358Y222992D01*
X99501Y221909D01*
X99919Y220899D01*
X100584Y220033D01*
X101451Y219368D01*
X102460Y218949D01*
X103543Y218807D01*
X104627Y218949D01*
X105636Y219368D01*
X106503Y220033D01*
X107168Y220899D01*
X107586Y221909D01*
X107729Y222992D01*
X107586Y224075D01*
X107168Y225085D01*
X106503Y225952D01*
X105636Y226617D01*
X104627Y227035D01*
X103543Y227178D01*
D02*
G37*
G36*
Y217178D02*
X102460Y217035D01*
X101451Y216617D01*
X100584Y215952D01*
X99919Y215085D01*
X99501Y214075D01*
X99358Y212992D01*
X99501Y211909D01*
X99919Y210899D01*
X100584Y210033D01*
X101451Y209367D01*
X102460Y208949D01*
X103543Y208807D01*
X104627Y208949D01*
X105636Y209367D01*
X106503Y210033D01*
X107168Y210899D01*
X107586Y211909D01*
X107729Y212992D01*
X107586Y214075D01*
X107168Y215085D01*
X106503Y215952D01*
X105636Y216617D01*
X104627Y217035D01*
X103543Y217178D01*
D02*
G37*
G36*
X93543D02*
X92460Y217035D01*
X91451Y216617D01*
X90584Y215952D01*
X89919Y215085D01*
X89500Y214075D01*
X89358Y212992D01*
X89500Y211909D01*
X89919Y210899D01*
X90584Y210033D01*
X91451Y209367D01*
X92460Y208949D01*
X93543Y208807D01*
X94627Y208949D01*
X95636Y209367D01*
X96503Y210033D01*
X97168Y210899D01*
X97586Y211909D01*
X97729Y212992D01*
X97586Y214075D01*
X97168Y215085D01*
X96503Y215952D01*
X95636Y216617D01*
X94627Y217035D01*
X93543Y217178D01*
D02*
G37*
G36*
X154093Y208555D02*
X152469D01*
Y206931D01*
X152820Y207001D01*
X153541Y207483D01*
X154023Y208204D01*
X154093Y208555D01*
D02*
G37*
G36*
X197638Y228208D02*
X196787Y228039D01*
X196065Y227557D01*
X195583Y226835D01*
X195414Y225984D01*
X195583Y225133D01*
X196065Y224412D01*
X196108Y224383D01*
Y217349D01*
X196065Y217320D01*
X195583Y216599D01*
X195414Y215748D01*
X195583Y214897D01*
X196065Y214176D01*
X196787Y213693D01*
X197638Y213524D01*
X198489Y213693D01*
X199210Y214176D01*
X199692Y214897D01*
X199862Y215748D01*
X199692Y216599D01*
X199210Y217320D01*
X199167Y217349D01*
Y224383D01*
X199210Y224412D01*
X199692Y225133D01*
X199862Y225984D01*
X199692Y226835D01*
X199210Y227557D01*
X198489Y228039D01*
X197638Y228208D01*
D02*
G37*
G36*
X152469Y211179D02*
Y209555D01*
X154093D01*
X154023Y209906D01*
X153541Y210628D01*
X152820Y211110D01*
X152469Y211179D01*
D02*
G37*
G36*
X151469D02*
X151118Y211110D01*
X150396Y210628D01*
X149914Y209906D01*
X149844Y209555D01*
X151469D01*
Y211179D01*
D02*
G37*
G36*
X121022Y225091D02*
X119398D01*
Y223466D01*
X119749Y223536D01*
X120470Y224018D01*
X120952Y224740D01*
X121022Y225091D01*
D02*
G37*
G36*
X93543Y247178D02*
X92460Y247035D01*
X91451Y246617D01*
X90584Y245952D01*
X89919Y245085D01*
X89500Y244075D01*
X89358Y242992D01*
X89500Y241909D01*
X89919Y240899D01*
X90584Y240033D01*
X91451Y239368D01*
X92460Y238949D01*
X93543Y238807D01*
X94627Y238949D01*
X95636Y239368D01*
X96503Y240033D01*
X97168Y240899D01*
X97586Y241909D01*
X97729Y242992D01*
X97586Y244075D01*
X97168Y245085D01*
X96503Y245952D01*
X95636Y246617D01*
X94627Y247035D01*
X93543Y247178D01*
D02*
G37*
G36*
X103543Y237177D02*
X102460Y237035D01*
X101451Y236617D01*
X100584Y235952D01*
X99919Y235085D01*
X99501Y234075D01*
X99358Y232992D01*
X99501Y231909D01*
X99919Y230899D01*
X100584Y230033D01*
X101451Y229367D01*
X102460Y228949D01*
X103543Y228807D01*
X104627Y228949D01*
X105636Y229367D01*
X106503Y230033D01*
X107168Y230899D01*
X107586Y231909D01*
X107729Y232992D01*
X107586Y234075D01*
X107168Y235085D01*
X106503Y235952D01*
X105636Y236617D01*
X104627Y237035D01*
X103543Y237177D01*
D02*
G37*
G36*
X93543D02*
X92460Y237035D01*
X91451Y236617D01*
X90584Y235952D01*
X89919Y235085D01*
X89500Y234075D01*
X89358Y232992D01*
X89500Y231909D01*
X89919Y230899D01*
X90584Y230033D01*
X91451Y229367D01*
X92460Y228949D01*
X93543Y228807D01*
X94627Y228949D01*
X95636Y229367D01*
X96503Y230033D01*
X97168Y230899D01*
X97586Y231909D01*
X97729Y232992D01*
X97586Y234075D01*
X97168Y235085D01*
X96503Y235952D01*
X95636Y236617D01*
X94627Y237035D01*
X93543Y237177D01*
D02*
G37*
G36*
X150287Y245431D02*
X149936Y245362D01*
X149215Y244880D01*
X148733Y244158D01*
X148663Y243807D01*
X150287D01*
Y245431D01*
D02*
G37*
G36*
X152912Y242807D02*
X151287D01*
Y241183D01*
X151638Y241252D01*
X152360Y241735D01*
X152842Y242456D01*
X152912Y242807D01*
D02*
G37*
G36*
X150287D02*
X148663D01*
X148733Y242456D01*
X149215Y241735D01*
X149936Y241252D01*
X150287Y241183D01*
Y242807D01*
D02*
G37*
G36*
X118398Y227715D02*
X118047Y227645D01*
X117325Y227163D01*
X116843Y226442D01*
X116773Y226091D01*
X118398D01*
Y227715D01*
D02*
G37*
G36*
X206061Y227453D02*
X204437D01*
Y225828D01*
X204788Y225898D01*
X205509Y226380D01*
X205992Y227102D01*
X206061Y227453D01*
D02*
G37*
G36*
X203437D02*
X201813D01*
X201883Y227102D01*
X202364Y226380D01*
X203086Y225898D01*
X203437Y225828D01*
Y227453D01*
D02*
G37*
G36*
X204437Y230077D02*
Y228453D01*
X206061D01*
X205992Y228804D01*
X205509Y229525D01*
X204788Y230007D01*
X204437Y230077D01*
D02*
G37*
G36*
X203437D02*
X203086Y230007D01*
X202364Y229525D01*
X201883Y228804D01*
X201813Y228453D01*
X203437D01*
Y230077D01*
D02*
G37*
G36*
X119398Y227715D02*
Y226091D01*
X121022D01*
X120952Y226442D01*
X120470Y227163D01*
X119749Y227645D01*
X119398Y227715D01*
D02*
G37*
G36*
X274172Y247138D02*
X272547D01*
Y245513D01*
X272898Y245583D01*
X273620Y246065D01*
X274102Y246787D01*
X274172Y247138D01*
D02*
G37*
G36*
X271547D02*
X269923D01*
X269993Y246787D01*
X270475Y246065D01*
X271196Y245583D01*
X271547Y245513D01*
Y247138D01*
D02*
G37*
G36*
X272547Y249762D02*
Y248138D01*
X274172D01*
X274102Y248489D01*
X273620Y249210D01*
X272898Y249692D01*
X272547Y249762D01*
D02*
G37*
G36*
X271547D02*
X271196Y249692D01*
X270475Y249210D01*
X269993Y248489D01*
X269923Y248138D01*
X271547D01*
Y249762D01*
D02*
G37*
G36*
X272047Y279783D02*
X271196Y279614D01*
X270475Y279132D01*
X269993Y278410D01*
X269823Y277559D01*
X269993Y276708D01*
X270475Y275987D01*
X270518Y275958D01*
Y264434D01*
X270386Y264237D01*
X270217Y263386D01*
X270386Y262535D01*
X270868Y261813D01*
X271590Y261331D01*
X272441Y261162D01*
X273292Y261331D01*
X273515Y261480D01*
X273518Y261481D01*
X274014Y261812D01*
X274346Y262308D01*
X274347Y262312D01*
X274496Y262535D01*
X274665Y263386D01*
X274496Y264237D01*
X274013Y264958D01*
X273577Y265250D01*
Y275958D01*
X273620Y275987D01*
X274102Y276708D01*
X274271Y277559D01*
X274102Y278410D01*
X273620Y279132D01*
X272898Y279614D01*
X272047Y279783D01*
D02*
G37*
G36*
X267823Y271022D02*
Y269398D01*
X269447D01*
X269377Y269749D01*
X268895Y270470D01*
X268174Y270952D01*
X267823Y271022D01*
D02*
G37*
G36*
X269447Y268398D02*
X267823D01*
Y266773D01*
X268174Y266843D01*
X268895Y267325D01*
X269377Y268047D01*
X269447Y268398D01*
D02*
G37*
G36*
X224909Y125353D02*
Y123728D01*
X226534D01*
X226464Y124079D01*
X225982Y124801D01*
X225260Y125283D01*
X224909Y125353D01*
D02*
G37*
G36*
X223909D02*
X223558Y125283D01*
X222837Y124801D01*
X222355Y124079D01*
X222285Y123728D01*
X223909D01*
Y125353D01*
D02*
G37*
G36*
X224303Y111573D02*
X223952Y111503D01*
X223231Y111021D01*
X222749Y110300D01*
X222679Y109949D01*
X224303D01*
Y111573D01*
D02*
G37*
G36*
X226927Y108949D02*
X225303D01*
Y107325D01*
X225654Y107394D01*
X226376Y107876D01*
X226858Y108598D01*
X226927Y108949D01*
D02*
G37*
G36*
X224303D02*
X222679D01*
X222749Y108598D01*
X223231Y107876D01*
X223952Y107394D01*
X224303Y107325D01*
Y108949D01*
D02*
G37*
G36*
X226534Y122728D02*
X224909D01*
Y121104D01*
X225260Y121174D01*
X225982Y121656D01*
X226464Y122377D01*
X226534Y122728D01*
D02*
G37*
G36*
X223909D02*
X222285D01*
X222355Y122377D01*
X222837Y121656D01*
X223558Y121174D01*
X223909Y121104D01*
Y122728D01*
D02*
G37*
G36*
X225303Y111573D02*
Y109949D01*
X226927D01*
X226858Y110300D01*
X226376Y111021D01*
X225654Y111503D01*
X225303Y111573D01*
D02*
G37*
%LPD*%
D10*
X112598Y252047D02*
Y259449D01*
X103543Y242992D02*
X112598Y252047D01*
Y259449D02*
X120472Y267323D01*
X283858Y153543D02*
X286614Y156299D01*
X277559Y153543D02*
X283858D01*
X274410Y156693D02*
X277559Y153543D01*
X274410Y156693D02*
Y238976D01*
X263779Y249606D02*
X274410Y238976D01*
X263779Y249606D02*
Y299213D01*
X276772Y312205D01*
X283071D01*
X285433Y296850D02*
X287402Y294882D01*
Y272441D02*
Y294882D01*
Y272441D02*
X289370Y270472D01*
X212992Y126772D02*
Y149213D01*
X213386Y149606D01*
X285039Y283071D02*
Y291732D01*
Y270079D02*
Y283071D01*
X289370Y238976D02*
Y270472D01*
X281890Y298425D02*
X282677Y299213D01*
X281890Y268504D02*
Y298425D01*
Y268504D02*
X285827Y264567D01*
X353543Y162205D02*
Y203543D01*
X343543Y204567D02*
X348425D01*
X339665Y200689D02*
X343543Y204567D01*
X339665Y188878D02*
Y200689D01*
X217323Y129921D02*
X220079D01*
X226772Y136614D01*
Y141339D01*
X242126Y129921D02*
X246850Y125197D01*
Y108661D02*
Y125197D01*
X375984Y195276D02*
X376772Y196063D01*
Y214094D01*
X370472Y220394D02*
X376772Y214094D01*
X238583Y137008D02*
Y170079D01*
X233465Y133858D02*
Y175591D01*
X279528Y264567D02*
X282677Y261417D01*
Y188583D02*
Y261417D01*
Y188583D02*
X283465Y187795D01*
X186221Y171653D02*
Y173228D01*
X187795Y174803D01*
X180709Y191339D02*
X182283Y189764D01*
Y158268D02*
Y189764D01*
X181496Y157480D02*
X182283Y158268D01*
X127165Y176772D02*
Y184646D01*
Y176772D02*
X129134Y174803D01*
X187795D02*
X203150D01*
X118110Y198031D02*
X120866Y195276D01*
X125984D01*
X135433Y185827D01*
X140157D01*
X138583Y219291D02*
X140551D01*
X127953Y208661D02*
X138583Y219291D01*
X125591Y208661D02*
X127953D01*
X120472Y267323D02*
X126279Y261516D01*
X141437D01*
X125984Y284252D02*
X131102Y289370D01*
X142520D01*
X297638Y282283D02*
X300394Y285039D01*
X297638Y173622D02*
Y282283D01*
X256890Y293701D02*
Y303740D01*
Y277756D02*
Y293701D01*
Y303740D02*
X257087Y303937D01*
X256890Y266732D02*
Y277756D01*
Y266732D02*
X257874Y265748D01*
X285827Y214567D02*
Y264567D01*
X272441Y263386D02*
X272933Y262894D01*
X272047Y263779D02*
X272441Y263386D01*
X272047Y263779D02*
Y277559D01*
X279921Y160630D02*
Y260630D01*
X277165Y263386D02*
X279921Y260630D01*
X277165Y263386D02*
Y303937D01*
X280315Y307087D01*
X285039D01*
X279528Y264567D02*
Y301181D01*
X282283Y303937D01*
Y303937D01*
X299606Y289764D02*
Y290158D01*
X303307Y293858D01*
X309291D01*
X253937Y180709D02*
X255512Y182283D01*
Y214961D01*
X253543Y216929D02*
X255512Y214961D01*
X197638Y215748D02*
Y225984D01*
X251575Y214961D02*
X253543Y216929D01*
Y246850D01*
X198819Y249606D02*
Y260630D01*
X200000Y285827D02*
Y296063D01*
X196457Y278740D02*
Y292913D01*
X187795D02*
Y308268D01*
X192913Y275590D02*
Y290158D01*
Y275590D02*
X194488Y274016D01*
Y256299D02*
X195669Y255118D01*
X194488Y256299D02*
Y274016D01*
X191732Y244882D02*
X192126Y244488D01*
X191732Y244882D02*
Y270472D01*
X188583Y273622D02*
X191732Y270472D01*
Y219685D02*
X192126D01*
X188976Y222441D02*
X191732Y219685D01*
X188976Y222441D02*
Y258268D01*
X185827Y212992D02*
X187008Y211811D01*
X185827Y212992D02*
Y237795D01*
X202362Y190945D02*
X204331Y188976D01*
X202362Y190945D02*
Y222441D01*
X186221Y185827D02*
X187008Y185039D01*
X186221Y185827D02*
Y202362D01*
X209055Y208032D02*
Y288583D01*
X205512Y204488D02*
X209055Y208032D01*
X205906Y240158D02*
Y295669D01*
X203150Y275984D02*
Y297638D01*
X205906Y295669D02*
X206299Y296063D01*
X203543Y237795D02*
X205906Y240158D01*
X205512Y300000D02*
X205906D01*
X203150Y297638D02*
X205512Y300000D01*
D28*
X171260Y167323D02*
X177165Y161417D01*
X345669Y155905D02*
Y194882D01*
Y155905D02*
X351181Y150394D01*
X370472D01*
X293701Y127559D02*
Y164567D01*
X336221Y165354D02*
Y192126D01*
Y151575D02*
Y165354D01*
Y192126D02*
Y219291D01*
Y243701D01*
X171260Y167323D02*
X171653D01*
X177165Y153543D02*
Y161417D01*
X165512Y167323D02*
X171260D01*
X165512D02*
Y181260D01*
X263779Y219291D02*
Y242913D01*
Y151181D02*
Y219291D01*
X120472Y171653D02*
X124803Y167323D01*
X165512D01*
X293701Y243307D02*
Y272047D01*
Y218504D02*
Y243307D01*
Y190551D02*
Y218504D01*
Y164567D02*
Y190551D01*
X291339Y274410D02*
Y325984D01*
Y274410D02*
X293701Y272047D01*
X223622Y217323D02*
X226772D01*
X212598Y228346D02*
X223622Y217323D01*
X212598Y228346D02*
Y246063D01*
X217717Y251181D01*
X226772D01*
X263779Y141339D02*
Y151181D01*
X255512Y310630D02*
Y311417D01*
X253543Y308661D02*
X255512Y310630D01*
X253543Y253150D02*
Y308661D01*
Y253150D02*
X263779Y242913D01*
X165512Y181260D02*
Y205354D01*
X165354Y205512D02*
X165512Y205354D01*
X165354Y205512D02*
Y216535D01*
Y239370D01*
Y252756D01*
Y273228D01*
Y283858D01*
Y306693D01*
X226772Y141339D02*
Y153543D01*
Y183858D01*
Y217323D01*
D29*
X145276Y215354D02*
Y250787D01*
Y181102D02*
Y215354D01*
Y250787D02*
Y283858D01*
X216535Y237795D02*
X234252D01*
D30*
X96457Y146614D02*
D03*
Y136614D02*
D03*
X93543Y182992D02*
D03*
Y192992D02*
D03*
Y202992D02*
D03*
Y212992D02*
D03*
Y222992D02*
D03*
Y232992D02*
D03*
Y242992D02*
D03*
Y252992D02*
D03*
X103543Y192992D02*
D03*
Y202992D02*
D03*
Y212992D02*
D03*
Y222992D02*
D03*
Y232992D02*
D03*
Y242992D02*
D03*
Y182992D02*
D03*
Y252992D02*
D03*
D31*
X370472Y240394D02*
D03*
D32*
Y230394D02*
D03*
Y220394D02*
D03*
Y210394D02*
D03*
Y200394D02*
D03*
Y190394D02*
D03*
Y180394D02*
D03*
Y170394D02*
D03*
Y160394D02*
D03*
Y150394D02*
D03*
D33*
X125197Y289370D02*
D03*
X114173Y179921D02*
D03*
X286614Y156299D02*
D03*
X283071Y312205D02*
D03*
X285039Y270079D02*
D03*
X212992Y126772D02*
D03*
X285039Y283071D02*
D03*
Y291732D02*
D03*
X345669Y194882D02*
D03*
X353543Y162205D02*
D03*
X224803Y109449D02*
D03*
X224410Y123228D02*
D03*
X217323Y129921D02*
D03*
X242126D02*
D03*
X246850Y108661D02*
D03*
X375197Y194882D02*
D03*
X238583Y137008D02*
D03*
X233465Y133858D02*
D03*
X281890Y146850D02*
D03*
X272441Y153150D02*
D03*
X293701Y127559D02*
D03*
X161024Y255906D02*
D03*
X151969Y277165D02*
D03*
X203937Y227953D02*
D03*
X267323Y268898D02*
D03*
X272047Y247638D02*
D03*
X269291Y174016D02*
D03*
X186614Y162598D02*
D03*
X179134Y185039D02*
D03*
X186221Y171653D02*
D03*
X161417Y185827D02*
D03*
X151969Y209055D02*
D03*
X160630Y219685D02*
D03*
X118898Y225590D02*
D03*
X119685Y189370D02*
D03*
X150787Y243307D02*
D03*
X185039Y254331D02*
D03*
X180315D02*
D03*
X336221Y165354D02*
D03*
Y192126D02*
D03*
Y219291D02*
D03*
Y243701D02*
D03*
Y151575D02*
D03*
X171653Y167323D02*
D03*
X263779Y219291D02*
D03*
X226772Y217323D02*
D03*
X120472Y171653D02*
D03*
X127165Y184646D02*
D03*
X129134Y174803D02*
D03*
X203150D02*
D03*
X118110Y198031D02*
D03*
X140157Y185827D02*
D03*
X125591Y208661D02*
D03*
X140551Y219291D02*
D03*
X120472Y267323D02*
D03*
X141437Y261516D02*
D03*
X125984Y284252D02*
D03*
X142520Y289370D02*
D03*
X300394Y285039D02*
D03*
X297638Y173622D02*
D03*
X238583Y170079D02*
D03*
X233465Y175591D02*
D03*
X339665Y188878D02*
D03*
X348425Y204567D02*
D03*
X353543Y203543D02*
D03*
X177165Y153543D02*
D03*
X256890Y293701D02*
D03*
X257087Y303937D02*
D03*
X293701Y243307D02*
D03*
Y218504D02*
D03*
Y190551D02*
D03*
Y164567D02*
D03*
X285827Y214567D02*
D03*
X279921Y160630D02*
D03*
X283465Y187402D02*
D03*
X289370Y238583D02*
D03*
X272047Y277559D02*
D03*
X272441Y263386D02*
D03*
X282677Y299213D02*
D03*
X282283Y303937D02*
D03*
X285039Y307087D02*
D03*
X285433Y296850D02*
D03*
X299606Y289764D02*
D03*
X309291Y293858D02*
D03*
X291339Y325984D02*
D03*
X145276Y283858D02*
D03*
Y215354D02*
D03*
Y181102D02*
D03*
Y250787D02*
D03*
X216535Y237795D02*
D03*
X234252D02*
D03*
X263779Y151181D02*
D03*
X255512Y311417D02*
D03*
X253543Y253150D02*
D03*
X256890Y277756D02*
D03*
X257874Y265748D02*
D03*
X263779Y141339D02*
D03*
X165512Y181260D02*
D03*
X165354Y205512D02*
D03*
Y216535D02*
D03*
Y239370D02*
D03*
Y252756D02*
D03*
Y273228D02*
D03*
Y283858D02*
D03*
Y306693D02*
D03*
X226772Y141339D02*
D03*
Y153543D02*
D03*
Y183858D02*
D03*
Y251181D02*
D03*
X253937Y180709D02*
D03*
X197638Y225984D02*
D03*
Y215748D02*
D03*
X251575Y214961D02*
D03*
X253543Y246850D02*
D03*
X198819Y260630D02*
D03*
Y249606D02*
D03*
X200000Y296063D02*
D03*
Y285827D02*
D03*
X196457Y292913D02*
D03*
Y278740D02*
D03*
X187795Y292913D02*
D03*
Y308268D02*
D03*
X192913Y290158D02*
D03*
X195669Y255118D02*
D03*
X192913Y244094D02*
D03*
X188583Y273622D02*
D03*
X192126Y219685D02*
D03*
X188976Y258268D02*
D03*
X187008Y211811D02*
D03*
X185827Y237795D02*
D03*
X204331Y188976D02*
D03*
X202362Y222441D02*
D03*
X187008Y185039D02*
D03*
X186221Y202362D02*
D03*
X181496Y157480D02*
D03*
X180709Y191339D02*
D03*
X209055Y288583D02*
D03*
X205512Y204488D02*
D03*
X206299Y296063D02*
D03*
X203543Y237795D02*
D03*
X205906Y300000D02*
D03*
X203150Y275984D02*
D03*
M02*
