G04 Layer_Color=16711935*
%FSLAX25Y25*%
%MOIN*%
G70*
G01*
G75*
%ADD39C,0.00394*%
D39*
X153347Y156496D02*
G03*
X153347Y156496I-1969J0D01*
G01*
X156102Y134449D02*
G03*
X156102Y134449I-1969J0D01*
G01*
X273228Y311221D02*
G03*
X273228Y311221I-1969J0D01*
G01*
X263189Y242717D02*
G03*
X263189Y242717I-1969J0D01*
G01*
X165354Y230315D02*
G03*
X165354Y230315I-1969J0D01*
G01*
X165354Y196063D02*
G03*
X165354Y196063I-1969J0D01*
G01*
X165354Y297638D02*
G03*
X165354Y297638I-1969J0D01*
G01*
Y265748D02*
G03*
X165354Y265748I-1969J0D01*
G01*
X237500Y104429D02*
Y106595D01*
X233366Y104429D02*
Y106595D01*
Y104429D02*
X237500D01*
X233366Y106595D02*
X237500D01*
Y128839D02*
Y131004D01*
X233366Y128839D02*
Y131004D01*
Y128839D02*
X237500D01*
X233366Y131004D02*
X237500D01*
X207185Y104429D02*
Y106595D01*
X203051Y104429D02*
Y106595D01*
Y104429D02*
X207185D01*
X203051Y106595D02*
X207185D01*
Y128839D02*
Y131004D01*
X203051Y128839D02*
Y131004D01*
Y128839D02*
X207185D01*
X203051Y131004D02*
X207185D01*
X151476Y181201D02*
X155610D01*
X151476Y183366D02*
X155610D01*
Y181201D02*
Y183366D01*
X151476Y181201D02*
Y183366D01*
X151870Y215453D02*
X156004D01*
X151870Y217618D02*
X156004D01*
Y215453D02*
Y217618D01*
X151870Y215453D02*
Y217618D01*
X153445Y250886D02*
X157579D01*
X153445Y253051D02*
X157579D01*
Y250886D02*
Y253051D01*
X153445Y250886D02*
Y253051D01*
X153051Y281988D02*
X157185D01*
X153051Y284154D02*
X157185D01*
Y281988D02*
Y284154D01*
X153051Y281988D02*
Y284154D01*
X116240Y279134D02*
X124705D01*
X116240Y273622D02*
X124705D01*
Y279134D01*
X116240Y273622D02*
Y279134D01*
Y211024D02*
X124705D01*
X116240Y205512D02*
X124705D01*
Y211024D01*
X116240Y205512D02*
Y211024D01*
Y183071D02*
X124705D01*
X116240Y177559D02*
X124705D01*
Y183071D01*
X116240Y177559D02*
Y183071D01*
X139567Y172244D02*
X154921D01*
X139567Y152953D02*
X154921D01*
X139567D02*
Y172244D01*
X154921Y152953D02*
Y172244D01*
X316732Y112992D02*
Y124803D01*
X310827Y112992D02*
Y124803D01*
Y112992D02*
X316732D01*
X310827Y124803D02*
X316732D01*
Y132283D02*
Y144095D01*
X310827Y132283D02*
Y144095D01*
Y132283D02*
X316732D01*
X310827Y144095D02*
X316732D01*
X116732Y157343D02*
Y162854D01*
X125000Y157343D02*
Y162854D01*
X116732D02*
X125000D01*
X116732Y157343D02*
X125000D01*
X138386Y122638D02*
Y137992D01*
X157677Y122638D02*
Y137992D01*
X138386Y122638D02*
X157677D01*
X138386Y137992D02*
X157677D01*
X314961Y234646D02*
X320472D01*
X314961Y246457D02*
X320472D01*
Y234646D02*
Y246457D01*
X314961Y234646D02*
Y246457D01*
X314862Y209842D02*
X320374D01*
X314862Y221654D02*
X320374D01*
Y209842D02*
Y221654D01*
X314862Y209842D02*
Y221654D01*
X267717Y273425D02*
X289764D01*
X267717Y314764D02*
X289764D01*
Y273425D02*
Y314764D01*
X267717Y273425D02*
Y314764D01*
X276969Y239173D02*
Y254528D01*
X257677Y239173D02*
Y254528D01*
X276969D01*
X257677Y239173D02*
X276969D01*
X190847Y303248D02*
X194980D01*
X190847Y305413D02*
X194980D01*
Y303248D02*
Y305413D01*
X190847Y303248D02*
Y305413D01*
X159843Y221260D02*
Y233858D01*
X172441Y221260D02*
Y233858D01*
X159843D02*
X172441D01*
X159843Y221260D02*
X172441D01*
X159843Y187008D02*
Y199606D01*
X172441Y187008D02*
Y199606D01*
X159843D02*
X172441D01*
X159843Y187008D02*
X172441D01*
X159843Y288583D02*
Y301181D01*
X172441Y288583D02*
Y301181D01*
X159843D02*
X172441D01*
X159843Y288583D02*
X172441D01*
X159843Y256693D02*
Y269291D01*
X172441Y256693D02*
Y269291D01*
X159843D02*
X172441D01*
X159843Y256693D02*
X172441D01*
X331791Y240059D02*
Y244193D01*
X329626Y240059D02*
Y244193D01*
X331791D01*
X329626Y240059D02*
X331791D01*
X306988Y238878D02*
Y243012D01*
X304823Y238878D02*
Y243012D01*
X306988D01*
X304823Y238878D02*
X306988D01*
X331791Y215650D02*
Y219783D01*
X329626Y215650D02*
Y219783D01*
X331791D01*
X329626Y215650D02*
X331791D01*
X307382Y214075D02*
Y218209D01*
X305217Y214075D02*
Y218209D01*
X307382D01*
X305217Y214075D02*
X307382D01*
X331791Y188484D02*
Y192618D01*
X329626Y188484D02*
Y192618D01*
X331791D01*
X329626Y188484D02*
X331791D01*
X315059Y182677D02*
X320571D01*
X315059Y194488D02*
X320571D01*
Y182677D02*
Y194488D01*
X315059Y182677D02*
Y194488D01*
X307382Y186909D02*
Y191043D01*
X305217Y186909D02*
Y191043D01*
X307382D01*
X305217Y186909D02*
X307382D01*
X331791Y161713D02*
Y165846D01*
X329626Y161713D02*
Y165846D01*
X331791D01*
X329626Y161713D02*
X331791D01*
X306201Y160531D02*
Y164665D01*
X304035Y160531D02*
Y164665D01*
X306201D01*
X304035Y160531D02*
X306201D01*
X314961Y156299D02*
X320472D01*
X314961Y168110D02*
X320472D01*
Y156299D02*
Y168110D01*
X314961Y156299D02*
Y168110D01*
X294783Y118799D02*
Y122933D01*
X292618Y118799D02*
Y122933D01*
X294783D01*
X292618Y118799D02*
X294783D01*
X300689D02*
Y122933D01*
X298524Y118799D02*
Y122933D01*
X300689D01*
X298524Y118799D02*
X300689D01*
X337303Y118799D02*
Y122933D01*
X335138Y118799D02*
Y122933D01*
X337303D01*
X335138Y118799D02*
X337303D01*
X330217D02*
Y122933D01*
X328051Y118799D02*
Y122933D01*
X330217D01*
X328051Y118799D02*
X330217D01*
X294783Y138091D02*
Y142224D01*
X292618Y138091D02*
Y142224D01*
X294783D01*
X292618Y138091D02*
X294783D01*
X300689Y137933D02*
Y142067D01*
X298524Y137933D02*
Y142067D01*
X300689D01*
X298524Y137933D02*
X300689D01*
X337303Y138091D02*
Y142224D01*
X335138Y138091D02*
Y142224D01*
X337303D01*
X335138Y138091D02*
X337303D01*
X330217D02*
Y142224D01*
X328051Y138091D02*
Y142224D01*
X330217D01*
X328051Y138091D02*
X330217D01*
X315846Y284547D02*
Y288681D01*
X318012Y284547D02*
Y288681D01*
X315846Y284547D02*
X318012D01*
X315846Y288681D02*
X318012D01*
X318012Y299902D02*
Y304035D01*
X315846Y299902D02*
Y304035D01*
X318012D01*
X315846Y299902D02*
X318012D01*
X303051Y308169D02*
Y312303D01*
X300886Y308169D02*
Y312303D01*
X303051D01*
X300886Y308169D02*
X303051D01*
X251476Y314665D02*
X255610D01*
X251476Y316831D02*
X255610D01*
Y314665D02*
Y316831D01*
X251476Y314665D02*
Y316831D01*
X275886Y221555D02*
X280020D01*
X275886Y219390D02*
X280020D01*
X275886D02*
Y221555D01*
X280020Y219390D02*
Y221555D01*
X275886Y228642D02*
X280020D01*
X275886Y226476D02*
X280020D01*
X275886D02*
Y228642D01*
X280020Y226476D02*
Y228642D01*
X268996Y223917D02*
Y228051D01*
X271161Y223917D02*
Y228051D01*
X268996Y223917D02*
X271161D01*
X268996Y228051D02*
X271161D01*
X246752Y156398D02*
X250886D01*
X246752Y158563D02*
X250886D01*
Y156398D02*
Y158563D01*
X246752Y156398D02*
Y158563D01*
Y152657D02*
X250886D01*
X246752Y150492D02*
X250886D01*
X246752D02*
Y152657D01*
X250886Y150492D02*
Y152657D01*
X280807Y168799D02*
Y172933D01*
X282972Y168799D02*
Y172933D01*
X280807Y168799D02*
X282972D01*
X280807Y172933D02*
X282972D01*
X273721Y168898D02*
Y173031D01*
X275886Y168898D02*
Y173031D01*
X273721Y168898D02*
X275886D01*
X273721Y173031D02*
X275886D01*
X273721Y160138D02*
Y164272D01*
X275886Y160138D02*
Y164272D01*
X273721Y160138D02*
X275886D01*
X273721Y164272D02*
X275886D01*
X256890Y159843D02*
Y166929D01*
X269094Y159843D02*
Y166929D01*
X256890Y159843D02*
X269094D01*
X256890Y166929D02*
X269094D01*
X286516Y253839D02*
Y257972D01*
X284350Y253839D02*
Y257972D01*
X286516D01*
X284350Y253839D02*
X286516D01*
X190847Y176673D02*
Y180807D01*
X188681Y176673D02*
Y180807D01*
X190847D01*
X188681Y176673D02*
X190847D01*
X198721D02*
Y180807D01*
X196555Y176673D02*
Y180807D01*
X198721D01*
X196555Y176673D02*
X198721D01*
X216831Y162106D02*
Y166240D01*
X214665Y162106D02*
Y166240D01*
X216831D01*
X214665Y162106D02*
X216831D01*
X204213Y160039D02*
X209173D01*
X204213Y168307D02*
X209173D01*
X204213Y160039D02*
Y168307D01*
X209173Y160039D02*
Y168307D01*
X187598Y159449D02*
Y166535D01*
X199803Y159449D02*
Y166535D01*
X187598Y159449D02*
X199803D01*
X187598Y166535D02*
X199803D01*
X231398Y207776D02*
Y211910D01*
X229232Y207776D02*
Y211910D01*
X231398D01*
X229232Y207776D02*
X231398D01*
X223524D02*
Y211910D01*
X221358Y207776D02*
Y211910D01*
X223524D01*
X221358Y207776D02*
X223524D01*
X220276Y190945D02*
Y198031D01*
X232480Y190945D02*
Y198031D01*
X220276Y190945D02*
X232480D01*
X220276Y198031D02*
X232480D01*
X249508Y192815D02*
Y196949D01*
X247342Y192815D02*
Y196949D01*
X249508D01*
X247342Y192815D02*
X249508D01*
X236890Y190945D02*
X241850D01*
X236890Y199213D02*
X241850D01*
X236890Y190945D02*
Y199213D01*
X241850Y190945D02*
Y199213D01*
X223524Y240059D02*
Y244193D01*
X221358Y240059D02*
Y244193D01*
X223524D01*
X221358Y240059D02*
X223524D01*
X231004Y240059D02*
Y244193D01*
X228839Y240059D02*
Y244193D01*
X231004D01*
X228839Y240059D02*
X231004D01*
X249508Y225886D02*
Y230020D01*
X247342Y225886D02*
Y230020D01*
X249508D01*
X247342Y225886D02*
X249508D01*
X236890Y223425D02*
X241850D01*
X236890Y231693D02*
X241850D01*
X236890Y223425D02*
Y231693D01*
X241850Y223425D02*
Y231693D01*
X220276Y223622D02*
Y230709D01*
X232480Y223622D02*
Y230709D01*
X220276Y223622D02*
X232480D01*
X220276Y230709D02*
X232480D01*
X231004Y274606D02*
Y278740D01*
X228839Y274606D02*
Y278740D01*
X231004D01*
X228839Y274606D02*
X231004D01*
X223524Y274705D02*
Y278839D01*
X221358Y274705D02*
Y278839D01*
X223524D01*
X221358Y274705D02*
X223524D01*
X236890Y256890D02*
X241850D01*
X236890Y265158D02*
X241850D01*
X236890Y256890D02*
Y265158D01*
X241850Y256890D02*
Y265158D01*
X249508Y258957D02*
Y263090D01*
X247342Y258957D02*
Y263090D01*
X249508D01*
X247342Y258957D02*
X249508D01*
X219882Y257087D02*
Y264173D01*
X232087Y257087D02*
Y264173D01*
X219882Y257087D02*
X232087D01*
X219882Y264173D02*
X232087D01*
X202264Y196358D02*
Y200492D01*
X200098Y196358D02*
Y200492D01*
X202264D01*
X200098Y196358D02*
X202264D01*
X190453Y199311D02*
X194587D01*
X190453Y201476D02*
X194587D01*
Y199311D02*
Y201476D01*
X190453Y199311D02*
Y201476D01*
X185728Y193996D02*
Y198130D01*
X183563Y193996D02*
Y198130D01*
X185728D01*
X183563Y193996D02*
X185728D01*
X190453Y195571D02*
X194587D01*
X190453Y193405D02*
X194587D01*
X190453D02*
Y195571D01*
X194587Y193405D02*
Y195571D01*
X176279Y177461D02*
Y181595D01*
X174114Y177461D02*
Y181595D01*
X176279D01*
X174114Y177461D02*
X176279D01*
X156004Y205413D02*
Y209547D01*
X158169Y205413D02*
Y209547D01*
X156004Y205413D02*
X158169D01*
X156004Y209547D02*
X158169D01*
X146358Y188091D02*
Y192224D01*
X144193Y188091D02*
Y192224D01*
X146358D01*
X144193Y188091D02*
X146358D01*
X139665Y190847D02*
Y194980D01*
X137500Y190847D02*
Y194980D01*
X139665D01*
X137500Y190847D02*
X139665D01*
X190059Y233957D02*
X194193D01*
X190059Y236122D02*
X194193D01*
Y233957D02*
Y236122D01*
X190059Y233957D02*
Y236122D01*
X201870Y231004D02*
Y235138D01*
X199705Y231004D02*
Y235138D01*
X201870D01*
X199705Y231004D02*
X201870D01*
X190059Y230217D02*
X194193D01*
X190059Y228051D02*
X194193D01*
X190059D02*
Y230217D01*
X194193Y228051D02*
Y230217D01*
X184941Y228642D02*
Y232776D01*
X182776Y228642D02*
Y232776D01*
X184941D01*
X182776Y228642D02*
X184941D01*
X156004Y239508D02*
Y243642D01*
X158169Y239508D02*
Y243642D01*
X156004Y239508D02*
X158169D01*
X156004Y243642D02*
X158169D01*
X176279Y212106D02*
Y216240D01*
X174114Y212106D02*
Y216240D01*
X176279D01*
X174114Y212106D02*
X176279D01*
X138878Y224705D02*
Y228839D01*
X136713Y224705D02*
Y228839D01*
X138878D01*
X136713Y224705D02*
X138878D01*
X145177Y221949D02*
Y226083D01*
X143012Y221949D02*
Y226083D01*
X145177D01*
X143012Y221949D02*
X145177D01*
X192815Y268602D02*
X196949D01*
X192815Y270768D02*
X196949D01*
Y268602D02*
Y270768D01*
X192815Y268602D02*
Y270768D01*
X204232Y265650D02*
Y269783D01*
X202067Y265650D02*
Y269783D01*
X204232D01*
X202067Y265650D02*
X204232D01*
X187303Y264075D02*
Y268209D01*
X185138Y264075D02*
Y268209D01*
X187303D01*
X185138Y264075D02*
X187303D01*
X192815Y265650D02*
X196949D01*
X192815Y263484D02*
X196949D01*
X192815D02*
Y265650D01*
X196949Y263484D02*
Y265650D01*
X156004Y273524D02*
Y277658D01*
X158169Y273524D02*
Y277658D01*
X156004Y273524D02*
X158169D01*
X156004Y277658D02*
X158169D01*
X176279Y248327D02*
Y252461D01*
X174114Y248327D02*
Y252461D01*
X176279D01*
X174114Y248327D02*
X176279D01*
X146358Y257776D02*
Y261909D01*
X144193Y257776D02*
Y261909D01*
X146358D01*
X144193Y257776D02*
X146358D01*
X138484Y260531D02*
Y264665D01*
X136319Y260531D02*
Y264665D01*
X138484D01*
X136319Y260531D02*
X138484D01*
X201083Y300689D02*
Y304823D01*
X198917Y300689D02*
Y304823D01*
X201083D01*
X198917Y300689D02*
X201083D01*
X185728Y296752D02*
Y300886D01*
X183563Y296752D02*
Y300886D01*
X185728D01*
X183563Y296752D02*
X185728D01*
X190847Y298327D02*
X194980D01*
X190847Y296161D02*
X194980D01*
X190847D02*
Y298327D01*
X194980Y296161D02*
Y298327D01*
X156004Y307146D02*
Y311280D01*
X158169Y307146D02*
Y311280D01*
X156004Y307146D02*
X158169D01*
X156004Y311280D02*
X158169D01*
X176279Y280217D02*
Y284350D01*
X174114Y280217D02*
Y284350D01*
X176279D01*
X174114Y280217D02*
X176279D01*
X148327Y288878D02*
Y293012D01*
X146161Y288878D02*
Y293012D01*
X148327D01*
X146161Y288878D02*
X148327D01*
X140453Y292421D02*
Y296555D01*
X138287Y292421D02*
Y296555D01*
X140453D01*
X138287Y292421D02*
X140453D01*
X292815Y320768D02*
X296949D01*
X292815Y318602D02*
X296949D01*
X292815D02*
Y320768D01*
X296949Y318602D02*
Y320768D01*
M02*
